<svg xmlns="http://www.w3.org/2000/svg" width="21" height="21" viewBox="0 0 21 21">
    <path fill="#BFBFBF" fill-rule="evenodd" d="M10.48.88c2.657 0 4.921.936 6.793 2.807 1.871 1.872 2.807 4.136 2.807 6.793s-.936 4.921-2.807 6.793c-1.872 1.871-4.136 2.807-6.793 2.807s-4.921-.936-6.793-2.807C1.816 15.4.88 13.137.88 10.48s.929-4.914 2.786-6.771C5.55 1.823 7.823.88 10.48.88zm3.471 4.843c-.057 0-.128.043-.214.128L10.48 9.023 7.223 5.85c-.086-.085-.157-.128-.214-.128-.086 0-.172.043-.258.128l-.9.9c-.171.172-.171.343 0 .515L9.11 10.48 5.85 13.737c-.057.029-.085.1-.085.214 0 .115.028.2.085.258l.9.942c.058.058.143.086.258.086.114 0 .2-.028.257-.086l3.214-3.257 3.257 3.215c.086.085.157.128.214.128.086 0 .172-.043.258-.128l.9-.9a.288.288 0 0 0 .128-.258c0-.085-.043-.171-.128-.257l-3.215-3.214 3.257-3.214c.172-.172.172-.343 0-.515l-.942-.9c-.086-.085-.172-.128-.258-.128z"/>
</svg>
