<svg width="101px" height="181px" viewBox="0 0 101 181" version="1.1" xmlns="http://www.w3.org/2000/svg" xmlns:xlink="http://www.w3.org/1999/xlink">
    <g id="Page-1" stroke="none" stroke-width="1" fill="none" fill-rule="evenodd">
        <g id="arrow-icon" fill="#223D83">
            <polygon id="Path" points="0 9 12.15 9 6.55 14.6 8 16 16 8 8 0 6.6 1.4 12.15 7 0 7"></polygon>
        </g>
        <g id="in-stock" transform="translate(0.000000, 40.000000)" fill="#BFBFBF">
            <path d="M10.48,0.879863275 C12.234,0.879863275 13.857,1.318 15.35,2.195 C16.7752976,3.00520967 17.9552077,4.1854652 18.765,5.611 C19.6367532,7.08472428 20.0913068,8.76778242 20.08,10.48 C20.0914884,12.1925565 19.6369284,13.8759842 18.765,15.35 C17.9547903,16.7752976 16.7745348,17.9552077 15.349,18.765 C13.8752757,19.6367532 12.1922176,20.0913068 10.48,20.08 C8.7674435,20.0914884 7.08401583,19.6369284 5.61,18.765 C4.18684295,17.9417863 3.008227,16.7548872 2.195,15.326 C1.32535859,13.8597895 0.870806997,12.1846891 0.879863275,10.48 C0.870806997,8.77531091 1.32535859,7.1002105 2.195,5.634 C3.02159225,4.2072074 4.2072074,3.02159225 5.634,2.195 C7.1002105,1.32535859 8.77531091,0.870806997 10.48,0.879863275 Z M15.834,5.242 L8.542,12.557 L5.126,9.118 L3.765,10.48 L8.542,15.303 L17.195,6.649 L15.834,5.242 Z" id="Shape"></path>
        </g>
        <g id="low-stock" transform="translate(0.000000, 80.000000)" fill="#BFBFBF">
            <path d="M10.48,0.88 C15.76,0.88 20.08,5.2 20.08,10.48 C20.08,15.76 15.76,20.08 10.48,20.08 C5.2,20.08 0.88,15.76 0.88,10.48 C0.88,5.2 5.2,0.88 10.48,0.88 Z M11.677,4.537 L9.283,4.537 L9.283,12.08 L7.128,10.023 L5.451,11.623 L10.48,16.423 L15.509,11.623 L13.832,10.023 L11.677,12.08 L11.677,4.537 L11.677,4.537 Z" id="Shape"></path>
        </g>
        <g id="no-stock" transform="translate(0.000000, 120.000000)" fill="#BFBFBF">
            <path d="M10.48,0.88 C13.137,0.88 15.401,1.816 17.273,3.687 C19.144,5.559 20.08,7.823 20.08,10.48 C20.08,13.137 19.144,15.401 17.273,17.273 C15.401,19.144 13.137,20.08 10.48,20.08 C7.823,20.08 5.559,19.144 3.687,17.273 C1.816,15.4 0.88,13.137 0.88,10.48 C0.88,7.823 1.809,5.566 3.666,3.709 C5.55,1.823 7.823,0.88 10.48,0.88 Z M13.951,5.723 C13.894,5.723 13.823,5.766 13.737,5.851 L10.48,9.023 L7.223,5.85 C7.137,5.765 7.066,5.722 7.009,5.722 C6.923,5.722 6.837,5.765 6.751,5.85 L5.851,6.75 C5.68,6.922 5.68,7.093 5.851,7.265 L9.11,10.48 L5.85,13.737 C5.793,13.766 5.765,13.837 5.765,13.951 C5.765,14.066 5.793,14.151 5.85,14.209 L6.75,15.151 C6.808,15.209 6.893,15.237 7.008,15.237 C7.122,15.237 7.208,15.209 7.265,15.151 L10.479,11.894 L13.736,15.109 C13.822,15.194 13.893,15.237 13.95,15.237 C14.036,15.237 14.122,15.194 14.208,15.109 L15.108,14.209 C15.1936917,14.1520405 15.2424854,14.0536908 15.236,13.951 C15.236,13.866 15.193,13.78 15.108,13.694 L11.893,10.48 L15.15,7.266 C15.322,7.094 15.322,6.923 15.15,6.751 L14.208,5.851 C14.122,5.766 14.036,5.723 13.95,5.723 L13.951,5.723 Z" id="Shape"></path>
        </g>
        <g id="search-icon" transform="translate(40.000000, 0.000000)">
            <polygon id="Path" points="0 0 29 0 29 26 0 26"></polygon>
            <ellipse id="Oval" stroke="#223D83" stroke-width="2" cx="13.214" cy="9.5" rx="6.845" ry="6.5"></ellipse>
            <path d="M18.655,14.667 L25.675,21.333" id="Path" stroke="#223D83" stroke-width="2" stroke-linecap="square"></path>
        </g>
        <g id="emergency" transform="translate(0.000000, 160.000000)" fill="#BFBFBF">
            <path d="M10.48,0.88 C13.126,0.88 15.388,1.818 17.265,3.695 C19.142,5.572 20.08,7.834 20.08,10.48 C20.08,13.126 19.142,15.388 17.265,17.265 C15.388,19.142 13.126,20.08 10.48,20.08 C7.834,20.08 5.572,19.142 3.695,17.265 C1.818,15.388 0.88,13.126 0.88,10.48 C0.88,7.834 1.818,5.572 3.695,3.695 C5.572,1.818 7.834,0.88 10.48,0.88 Z M11.588,13.434 L9.372,13.434 L9.372,15.28 L11.588,15.28 L11.588,13.434 Z M11.588,5.311 L9.372,5.311 L9.372,11.218 L11.588,11.218 L11.588,5.311 L11.588,5.311 Z" id="Shape"></path>
        </g>
        <g id="in-stock" transform="translate(40.000000, 40.000000)" fill="#3E7406">
            <path d="M10.48,0.879863275 C12.234,0.879863275 13.857,1.318 15.35,2.195 C16.7752976,3.00520967 17.9552077,4.1854652 18.765,5.611 C19.6367532,7.08472428 20.0913068,8.76778242 20.08,10.48 C20.0914884,12.1925565 19.6369284,13.8759842 18.765,15.35 C17.9547903,16.7752976 16.7745348,17.9552077 15.349,18.765 C13.8752757,19.6367532 12.1922176,20.0913068 10.48,20.08 C8.7674435,20.0914884 7.08401583,19.6369284 5.61,18.765 C4.18684295,17.9417863 3.008227,16.7548872 2.195,15.326 C1.32535859,13.8597895 0.870806997,12.1846891 0.879863275,10.48 C0.870806997,8.77531091 1.32535859,7.1002105 2.195,5.634 C3.02159225,4.2072074 4.2072074,3.02159225 5.634,2.195 C7.1002105,1.32535859 8.77531091,0.870806997 10.48,0.879863275 Z M15.834,5.242 L8.542,12.557 L5.126,9.118 L3.765,10.48 L8.542,15.303 L17.195,6.649 L15.834,5.242 Z" id="Shape"></path>
        </g>
        <g id="low-stock" transform="translate(40.000000, 80.000000)" fill="#F5B403">
            <path d="M10.48,0.88 C15.76,0.88 20.08,5.2 20.08,10.48 C20.08,15.76 15.76,20.08 10.48,20.08 C5.2,20.08 0.88,15.76 0.88,10.48 C0.88,5.2 5.2,0.88 10.48,0.88 Z M11.677,4.537 L9.283,4.537 L9.283,12.08 L7.128,10.023 L5.451,11.623 L10.48,16.423 L15.509,11.623 L13.832,10.023 L11.677,12.08 L11.677,4.537 L11.677,4.537 Z" id="Shape"></path>
        </g>
        <g id="no-stock" transform="translate(40.000000, 120.000000)" fill="#A60D0D">
            <path d="M10.48,0.88 C13.137,0.88 15.401,1.816 17.273,3.687 C19.144,5.559 20.08,7.823 20.08,10.48 C20.08,13.137 19.144,15.401 17.273,17.273 C15.401,19.144 13.137,20.08 10.48,20.08 C7.823,20.08 5.559,19.144 3.687,17.273 C1.816,15.4 0.88,13.137 0.88,10.48 C0.88,7.823 1.809,5.566 3.666,3.709 C5.55,1.823 7.823,0.88 10.48,0.88 Z M13.951,5.723 C13.894,5.723 13.823,5.766 13.737,5.851 L10.48,9.023 L7.223,5.85 C7.137,5.765 7.066,5.722 7.009,5.722 C6.923,5.722 6.837,5.765 6.751,5.85 L5.851,6.75 C5.68,6.922 5.68,7.093 5.851,7.265 L9.11,10.48 L5.85,13.737 C5.793,13.766 5.765,13.837 5.765,13.951 C5.765,14.066 5.793,14.151 5.85,14.209 L6.75,15.151 C6.808,15.209 6.893,15.237 7.008,15.237 C7.122,15.237 7.208,15.209 7.265,15.151 L10.479,11.894 L13.736,15.109 C13.822,15.194 13.893,15.237 13.95,15.237 C14.036,15.237 14.122,15.194 14.208,15.109 L15.108,14.209 C15.1936917,14.1520405 15.2424854,14.0536908 15.236,13.951 C15.236,13.866 15.193,13.78 15.108,13.694 L11.893,10.48 L15.15,7.266 C15.322,7.094 15.322,6.923 15.15,6.751 L14.208,5.851 C14.122,5.766 14.036,5.723 13.95,5.723 L13.951,5.723 Z" id="Shape"></path>
        </g>
        <g id="emergency" transform="translate(41.000000, 160.000000)">
            <path d="M10.38,3.88 C12.1715625,3.88 13.703125,4.51510417 14.9740104,5.78598958 C16.2448958,7.056875 16.88,8.5884375 16.88,10.38 C16.88,12.1715625 16.2448958,13.703125 14.9740104,14.9740104 C13.703125,16.2448958 12.1715625,16.88 10.38,16.88 C8.5884375,16.88 7.056875,16.2448958 5.78598958,14.9740104 C4.51510417,13.703125 3.88,12.1715625 3.88,10.38 C3.88,8.5884375 4.51510417,7.056875 5.78598958,5.78598958 C7.056875,4.51510417 8.5884375,3.88 10.38,3.88 Z" id="Shape" fill="#FF5E5E"></path>
            <path d="M10.48,0.88 C13.126,0.88 15.388,1.818 17.265,3.695 C19.142,5.572 20.08,7.834 20.08,10.48 C20.08,13.126 19.142,15.388 17.265,17.265 C15.388,19.142 13.126,20.08 10.48,20.08 C7.834,20.08 5.572,19.142 3.695,17.265 C1.818,15.388 0.88,13.126 0.88,10.48 C0.88,7.834 1.818,5.572 3.695,3.695 C5.572,1.818 7.834,0.88 10.48,0.88 Z M11.588,13.434 L9.372,13.434 L9.372,15.28 L11.588,15.28 L11.588,13.434 Z M11.588,5.311 L9.372,5.311 L9.372,11.218 L11.588,11.218 L11.588,5.311 L11.588,5.311 Z" id="Shape" fill="#FFFFFF"></path>
        </g>
        <g id="emergency" transform="translate(80.000000, 160.000000)" fill="#000000">
            <path d="M10.48,0.88 C13.126,0.88 15.388,1.818 17.265,3.695 C19.142,5.572 20.08,7.834 20.08,10.48 C20.08,13.126 19.142,15.388 17.265,17.265 C15.388,19.142 13.126,20.08 10.48,20.08 C7.834,20.08 5.572,19.142 3.695,17.265 C1.818,15.388 0.88,13.126 0.88,10.48 C0.88,7.834 1.818,5.572 3.695,3.695 C5.572,1.818 7.834,0.88 10.48,0.88 Z M11.588,13.434 L9.372,13.434 L9.372,15.28 L11.588,15.28 L11.588,13.434 Z M11.588,5.311 L9.372,5.311 L9.372,11.218 L11.588,11.218 L11.588,5.311 L11.588,5.311 Z" id="Shape" transform="translate(10.480000, 10.480000) rotate(180.000000) translate(-10.480000, -10.480000) "></path>
        </g>
    </g>
</svg>
