<svg width="17px" height="23px" viewBox="0 0 17 23" version="1.1" xmlns="http://www.w3.org/2000/svg" xmlns:xlink="http://www.w3.org/1999/xlink">
    <defs>
        <linearGradient x1="32.8017799%" y1="-42.609375%" x2="70.9491912%" y2="146.951563%" id="linearGradient-1">
            <stop stop-color="#01C1B5" offset="0%"></stop>
            <stop stop-color="#2C5697" offset="49.6169131%"></stop>
            <stop stop-color="#84329B" offset="100%"></stop>
        </linearGradient>
    </defs>
    <g id="Page-1" stroke="none" stroke-width="1" fill="none" fill-rule="evenodd">
        <path d="M9.07106781,13.6568542 L14.4350288,8.29289322 C14.8255531,7.90236893 15.4587181,7.90236893 15.8492424,8.29289322 C16.2397667,8.68341751 16.2397667,9.31658249 15.8492424,9.70710678 L8.77817459,16.7781746 C8.3876503,17.1686989 7.75448532,17.1686989 7.36396103,16.7781746 L0.292893219,9.70710678 C-0.0976310729,9.31658249 -0.0976310729,8.68341751 0.292893219,8.29289322 C0.683417511,7.90236893 1.31658249,7.90236893 1.70710678,8.29289322 L7.07106781,13.6568542 L7.07106781,1 C7.07106781,0.44771525 7.51878306,1.01453063e-16 8.07106781,1.23259516e-32 C8.62335256,-1.01453063e-16 9.07106781,0.44771525 9.07106781,1 L9.07106781,13.6568542 Z M1.07106781,21 L15.0710678,21 C15.6233526,21 16.0710678,21.4477153 16.0710678,22 C16.0710678,22.5522847 15.6233526,23 15.0710678,23 L1.07106781,23 C0.518783062,23 0.0710678119,22.5522847 0.0710678119,22 C0.0710678119,21.4477153 0.518783062,21 1.07106781,21 Z" id="Combined-Shape" fill="url(#linearGradient-1)"></path>
    </g>
</svg>
