<svg width="203px" height="202px" viewBox="0 0 203 202" version="1.1" xmlns="http://www.w3.org/2000/svg" xmlns:xlink="http://www.w3.org/1999/xlink">
    <g id="Symbols" stroke="none" stroke-width="1" fill="none" fill-rule="evenodd">
        <g id="View/How-to-Guide" transform="translate(1.000000, 1.000000)">
            <g id="Icon/How-to1">
                <g id="Group-5" fill="#321065" opacity="0.699999988">
                    <circle id="Oval" cx="100" cy="100" r="100"></circle>
                </g>
                <g id="Group-51" transform="translate(58.000000, 48.000000)" stroke-linecap="round" stroke-linejoin="round">
                    <path d="M31,77 L31.0194742,77.0164609 C32.7702045,79.0576132 36.1996105,80.81893 41.0097371,81 C45.8179163,80.81893 49.2473223,79.0576132 51,77.0164609" id="Stroke-1" stroke="#63C8BB" stroke-width="3"></path>
                    <path d="M54,66 L54,66" id="Stroke-3" stroke="#494949" stroke-width="3"></path>
                    <path d="M65,33 C64.806,29.58 64.018,26.004 63,23" id="Stroke-5" stroke="#63C8BB" stroke-width="3"></path>
                    <path d="M19.286,33 C19.48,29.7284895 19.69,25.8699809 20.714,23" id="Stroke-7" stroke="#63C8BB" stroke-width="3"></path>
                    <path d="M64.2129992,33 C66.4551292,33.4165625 68,35.8268125 68,38.188625 C68,40.8023125 65.4646829,42.91225 62.893657,43.0188125 C61.5292091,49.5908125 58.3868442,55.223125 54.1713391,58.978 C53.1433046,59.9060625 52.0626468,60.7120625 50.9218481,61.38825 C48.1271731,63.06225 45.0129992,64 41.7259201,64 C38.3730619,64 35.3566171,63.4168125 31.9699295,61.38825 C30.8272514,60.7120625 29.7465936,59.9060625 28.7204385,58.978 C24.5049334,55.223125 21.3606891,49.5908125 20,43.0188125" id="Stroke-9" stroke="#87339B" stroke-width="3"></path>
                    <path d="M19.404878,33 C17.4650407,33.4367165 16,35.4949454 16,37.9595633 C16,40.6890416 17.7739837,42.8908209 20,43" id="Stroke-11" stroke="#87339B" stroke-width="3"></path>
                    <path d="M34,51 C37.812,54.8853885 43.962,55.1129929 48,51" id="Stroke-13" stroke="#87339B" stroke-width="3"></path>
                    <path d="M54,36.8211617 C51.9943314,34.5811617 48.8415357,34.7031617 47,36.7571617" id="Stroke-15" stroke="#87339B" stroke-width="3"></path>
                    <path d="M30,36.8211617 C32.005152,34.5811617 35.1571355,34.7031617 37,36.7571617" id="Stroke-17" stroke="#87339B" stroke-width="3"></path>
                    <path d="M42.5,31 L42.5613333,31 L42.6188333,31 L42.6245833,31 L42.6878333,31 L42.7491667,31 C48.963,31 54,25.848 54,19.5 C54,13.1500833 48.963,8 42.7491667,8 L42.6878333,8 L42.6265,8 L42.6245833,8 L42.62075,8 L42.5613333,8 L42.5,8 L42.43675,8 L42.3735,8 L42.3715833,8 L42.3064167,8 L42.247,8 C36.0350833,8 31,13.1500833 31,19.5 C31,25.848 36.0350833,31 42.247,31 L42.3064167,31 L42.3696667,31 L42.3715833,31 L42.3735,31 L42.43675,31 L42.5,31 Z" id="Stroke-19" stroke="#FFFFFF" stroke-width="3"></path>
                    <path d="M42.5,23 L42.549,23 L42.598,23 L42.59975,23 L42.65225,23 L42.6995,23 C44.5195,23 46,21.432 46,19.5 C46,17.568 44.5195,16 42.6995,16 L42.65225,16 L42.6015,16 L42.59975,16 L42.598,16 L42.549,16 L42.5,16 L42.44925,16 L42.3985,16 L42.39675,16 L42.34425,16 L42.297,16 C40.4735,16 39,17.568 39,19.5 C39,21.432 40.4735,23 42.297,23 L42.34425,23 L42.395,23 L42.39675,23 L42.3985,23 L42.44925,23 L42.5,23 Z" id="Stroke-21" stroke="#FFFFFF" stroke-width="3"></path>
                    <path d="M53.4757585,23 L63,23 C63,15.3333333 62.9942855,0 57.2854551,0 L42.1171482,0 L42.0009524,0 L41.8828518,0 L26.7145449,0 C21.0057145,0 21,15.3333333 21,23 L30.617579,23" id="Stroke-23" stroke="#63C8BB" stroke-width="3"></path>
                    <path d="M53,25 C53,25 58.0675283,33 65,33" id="Stroke-25" stroke="#63C8BB" stroke-width="3"></path>
                    <path d="M32,23 C32,23 27.3270709,33 20,33" id="Stroke-27" stroke="#63C8BB" stroke-width="3"></path>
                    <path d="M56,58 C56,58 59.2259259,59.7843898 63.3666667,62.11194 C67.1740741,64.2512469 71.7518519,66.8493968 75.2925926,68.9357603 L75.2925926,68.9377211 C77.3537037,70.1495375 79.2277778,70.9711411 80.0611111,71.8652969 C84,76.0870455 84,96.1447632 84,96.1565284 L84,104" id="Stroke-29" stroke="#FFFFFF" stroke-width="3"></path>
                    <path d="M28,58 C28,58 24.7740741,59.7843898 20.6333333,62.11194 C16.8259259,64.2512469 12.2481481,66.8493968 8.70740741,68.9357603 L8.70740741,68.9377211 C6.6462963,70.1495375 4.77222222,70.9711411 3.93888889,71.8652969 C0,76.0870455 0,96.1447632 0,96.1565284 L0,104" id="Stroke-31" stroke="#FFFFFF" stroke-width="3"></path>
                    <polyline id="Stroke-33" stroke="#FFFFFF" stroke-width="3" points="65 64.8695652 65 80.5217391 59.3 86.3913043 65 92.2608696 57.4 104 46 104 55.5 59"></polyline>
                    <polyline id="Stroke-35" stroke="#FFFFFF" stroke-width="3" points="19 64.8695652 19 80.5217391 24.7 86.3913043 19 92.2608696 26.6 104 38 104 28.5 59"></polyline>
                    <path d="M75,69 L75,76" id="Stroke-37" stroke="#FFFFFF" stroke-width="3"></path>
                    <path d="M9,69 L9,76" id="Stroke-39" stroke="#FFFFFF" stroke-width="3"></path>
                    <polyline id="Stroke-41" stroke="#FFFFFF" stroke-width="3" points="65 94 72 94 72 104"></polyline>
                    <path d="M54,16 L63,16" id="Stroke-43" stroke="#63C8BB" stroke-width="3"></path>
                    <path d="M30,16 L21,16" id="Stroke-45" stroke="#63C8BB" stroke-width="3"></path>
                    <path d="M12,97 L12,104" id="Stroke-47" stroke="#FFFFFF" stroke-width="3"></path>
                    <path d="M15,100 L8,100" id="Stroke-49" stroke="#FFFFFF" stroke-width="3"></path>
                </g>
            </g>
            <path d="M99.1109834,-4.13532362 C63.1564749,-4.13532362 31.5353949,14.4274472 13.5238693,42.329429 L23.7885349,42.329429 C40.680528,19.2863002 68.1402983,4.25164234 99.1109834,4.25164234 C150.341398,4.25164234 192.019992,45.3498783 192.019992,95.8654274 C192.019992,146.380976 150.341398,187.47771 99.1109834,187.47771 C68.1555301,187.47771 40.706422,172.458072 23.8129057,149.435971 L13.5451937,149.435971 C31.5597656,177.318427 63.1701835,195.864676 99.1109834,195.864676 C155.029726,195.864676 200.523869,151.005523 200.523869,95.8654274 C200.523869,40.7253317 155.029726,-4.13532362 99.1109834,-4.13532362" id="Fill-10" fill="#2E1159" transform="translate(107.023869, 95.864676) rotate(-34.000000) translate(-107.023869, -95.864676) "></path>
        </g>
    </g>
</svg>
