<svg width="203px" height="202px" viewBox="0 0 203 202" version="1.1" xmlns="http://www.w3.org/2000/svg" xmlns:xlink="http://www.w3.org/1999/xlink">
    <g id="Symbols" stroke="none" stroke-width="3" fill="none" fill-rule="evenodd">
        <g id="View/How-to-Guide" transform="translate(1.000000, 1.000000)">
            <g id="Icon/How-to1">
                <g id="Group-5" fill="#321065" opacity="0.699999988">
                    <circle id="Oval" cx="100" cy="100" r="100"></circle>
                </g>
                <g id="Group-21" transform="translate(53.000000, 51.000000)">
                    <path d="M32,84 C32.8320345,83.1731055 33.6836207,81.8410066 36.3448276,81.8410066 L66.7586207,81.8410066 C69.1721724,81.8410066 82.4499655,68.6085359 84.137931,66.7280527 C85.7607241,64.9188162 92.9948621,54.1173721 95,49.4561053 C93.74,47.7699315 90.3358276,46.3665858 86.3103448,47.2971119 C82.4695172,48.1822992 80.2102069,50.9263799 77.6206897,55.9330856 L67.6623448,61.0714899" id="Stroke-1" stroke="#87339B" stroke-linejoin="round"></path>
                    <path d="M45.24,69 L62.52,69 C71.16,69 71.16,58.2857143 62.52,58.2857143 L51.10872,58.2857143 C49.30728,58.2857143 45.93336,54 43.08,54 L32.28,54 C29.35968,54 25.7352,56.3507143 23.64,58.2857143 L15,66.8571429" id="Stroke-3" stroke="#87339B" stroke-linejoin="round"></path>
                    <polygon id="Stroke-5" stroke="#63C8BB" stroke-linejoin="round" points="26.1176471 99 37 88.1176471 10.8823529 62 0 72.8823529"></polygon>
                    <path d="M11,73 L15,77" id="Stroke-7" stroke="#63C8BB" stroke-linejoin="round"></path>
                    <path d="M56,19 C56,19 56.7960484,7.25040277 62.3947759,2.2758809 C66.221086,-1.12589474 71.3558184,-0.486282062 74.1969636,2.68549586 C77.0381089,5.85946424 76.512541,10.3652289 72.6840318,13.7648141 C67.0853044,18.7393359 56,19 56,19 Z" id="Stroke-9" stroke="#FFFFFF"></path>
                    <path d="M56,19 C56,19 55.7470827,9.52203316 51.4474887,5.7321175 C48.5089327,3.14336572 44.567281,3.62849187 42.3831901,6.04776727 C40.203386,8.46280575 40.6063389,11.896821 43.5470383,14.4876912 C47.844489,18.2776069 52.9071216,18.9025511 56,19 Z" id="Stroke-11" stroke="#FFFFFF"></path>
                    <path d="M82,49 L82,32" id="Stroke-13" stroke="#63C8BB"></path>
                    <path d="M30,32 L30,54" id="Stroke-15" stroke="#63C8BB"></path>
                    <polyline id="Stroke-17" stroke="#63C8BB" points="62.4285714 32 86 32 86 19 26 19 26 32 49.5714286 32"></polyline>
                    <polyline id="Stroke-19" stroke="#FFFFFF" points="50 58 50 19 63 19 63 58"></polyline>
                </g>
            </g>
            <path d="M99.1109834,-4.13532362 C63.1564749,-4.13532362 31.5353949,14.4274472 13.5238693,42.329429 L23.7885349,42.329429 C40.680528,19.2863002 68.1402983,4.25164234 99.1109834,4.25164234 C150.341398,4.25164234 192.019992,45.3498783 192.019992,95.8654274 C192.019992,146.380976 150.341398,187.47771 99.1109834,187.47771 C68.1555301,187.47771 40.706422,172.458072 23.8129057,149.435971 L13.5451937,149.435971 C31.5597656,177.318427 63.1701835,195.864676 99.1109834,195.864676 C155.029726,195.864676 200.523869,151.005523 200.523869,95.8654274 C200.523869,40.7253317 155.029726,-4.13532362 99.1109834,-4.13532362" id="Fill-10" fill="#2E1159" transform="translate(107.023869, 95.864676) rotate(-34.000000) translate(-107.023869, -95.864676) "></path>
        </g>
    </g>
</svg>
