<svg width="203px" height="202px" viewBox="0 0 203 202" version="1.1" xmlns="http://www.w3.org/2000/svg" xmlns:xlink="http://www.w3.org/1999/xlink">
    <g id="Symbols" stroke="none" stroke-width="1" fill="none" fill-rule="evenodd">
        <g id="View/How-to-Guide" transform="translate(1.000000, 1.000000)">
            <g id="Icon/How-to1">
                <g id="Group-5" fill="#321065" opacity="0.699999988">
                    <circle id="Oval" cx="100" cy="100" r="100"></circle>
                </g>
                <g id="Group-30" transform="translate(64.000000, 50.000000)">
                    <path d="M61.142,49.653 L60.858,48.347" id="Stroke-2" stroke="#87339B" stroke-width="3" stroke-linecap="round" stroke-linejoin="round"></path>
                    <path d="M58.6720421,37.9454545 L58.6720421,38.8560364 L57.2813053,33.3795636 L54.5017263,21.3806545 L51.5156211,8.24490909 L50.6497263,4.4672 C50.1116211,2.07669091 47.9080421,0.491054545 45.7442526,0.925018182 L13.4541474,7.42149091 C11.2846737,7.86101818 9.95835789,10.1569455 10.4964632,12.5530182 L11.7432,16.3270182 L16.9878316,37.9547273 L16.9878316,37.9677091 L23.9263579,70.6114182 L25.5520421,78.7250545 C26.0882526,81.1211273 28.1781474,82.7086182 30.3438316,82.2672364 L62.5808842,75.7670545 C62.5998316,75.7633455 62.5922526,75.7596364 62.6093053,75.7559273 C64.3752,75.3776 65.5613053,73.7456 65.6086737,71.8465455 C65.6200421,71.4515273 65.1899368,71.0509455 65.0970947,70.6410909 L64.3562526,69.1036727 L64.3562526,69.4727273" id="Stroke-3" stroke="#63C8BB" stroke-width="3" stroke-linecap="round" stroke-linejoin="round"></path>
                    <polyline id="Stroke-5" stroke="#87339B" stroke-width="3" stroke-linecap="round" stroke-linejoin="round" points="62.6816842 58.1733527 62.6816842 58.1696436 62.4221053 57.0124073"></polyline>
                    <g id="Group-8" transform="translate(35.692029, 33.485148) rotate(-14.000000) translate(-35.692029, -33.485148) translate(27.692029, 22.985148)" stroke="#FFFFFF" stroke-linecap="round" stroke-linejoin="round" stroke-width="3">
                        <g id="Group-5">
                            <path d="M7.92893219,0.5 L7.92893219,11.38012" id="Line"></path>
                            <polyline id="Shape" transform="translate(8.000000, 7.071068) rotate(45.000000) translate(-8.000000, -7.071068) " points="13 2.07106781 13 12.0710678 3 12.0710678"></polyline>
                        </g>
                        <path d="M7.25541178,13.8388263 L7.92893219,26" id="Line-Copy" transform="translate(7.428932, 20.000000) rotate(-90.000000) translate(-7.428932, -20.000000) "></path>
                    </g>
                    <path d="M11.3443579,16.3247927 L51.4748842,8.24639273" id="Stroke-7" stroke="#63C8BB" stroke-width="3" stroke-linecap="round" stroke-linejoin="round"></path>
                    <path d="M59.1902526,63.4219018 L23.5313053,70.6119745" id="Stroke-9" stroke="#63C8BB" stroke-width="3" stroke-linecap="round" stroke-linejoin="round"></path>
                    <path d="M48.1752,72.4464909 C48.1714105,70.9591455 46.8981474,69.7555455 45.3293053,69.7574 C43.7585684,69.7592545 42.4890947,70.9647091 42.4909895,72.4520545 C42.4947789,73.9394 43.7680421,75.143 45.3349895,75.1392909 C46.9057263,75.1392909 48.1770947,73.9338364 48.1752,72.4464909" id="Fill-11" fill="#63C8BB"></path>
                    <path d="M9.40888421,84.3090909 L9.40888421,73.1799636 C9.40888421,64.8882909 15.2560421,59.6046909 9.44109474,37.9436 C9.44109474,37.9436 12.1164632,33.7078182 16.1522526,38.2496" id="Stroke-15" stroke="#87339B" stroke-width="3" stroke-linecap="round" stroke-linejoin="round"></path>
                    <path d="M66.6877263,70.2570145 C66.6839368,70.2495964 66.2822526,70.2458873 66.2784632,70.2421782 C65.7422526,69.8508691 66.2519368,69.4706873 64.3572,69.1034873 L64.3572,69.0979236 C62.4624632,66.76676 59.8572,64.8973782 58.8018316,63.42116 C55.9767789,59.5025055 58.7089895,58.3155964 58.7089895,58.3155964 C60.0978316,58.1690873 62.4624632,58.1301418 62.4624632,58.1690873 L62.4624632,58.1727964 C70.0414105,58.4454145 70.0319368,61.9579236 70.0319368,61.9579236 C71.3923579,64.3873782 69.8557263,67.2545055 66.6119368,70.2421782 C66.2727789,70.7762873 65.9412,71.3178145 65.5679368,71.84636" id="Stroke-17" stroke="#87339B" stroke-width="3" stroke-linecap="round" stroke-linejoin="round"></path>
                    <path d="M47.0279368,90.6495964 C49.4513053,88.7208691 56.8786737,82.5452327 62.5837263,75.7594509" id="Stroke-19" stroke="#87339B" stroke-width="3" stroke-linecap="round" stroke-linejoin="round"></path>
                    <path d="M54.4219579,21.3830655 C56.9874316,18.2099382 60.4415368,16.69292 62.7114316,17.9206291 C65.3451158,19.3504836 65.3868,23.9683018 62.8023789,28.2319018 C61.2657474,30.76892 59.1398526,32.6086291 57.1200632,33.38012" id="Stroke-21" stroke="#87339B" stroke-width="3" stroke-linecap="round" stroke-linejoin="round"></path>
                    <path d="M58.7165684,38.5051564 C55.7134105,41.2146473 54.8948842,45.0201745 56.8900421,47.0026836 C58.8833053,48.9851927 62.9342526,48.3973018 65.9355158,45.6878109 C68.9405684,42.97832 70.3692,39.6549745 67.7639368,37.1921382 C65.1586737,34.7293018 61.7216211,35.7993745 58.7165684,38.5051564 Z" id="Stroke-23" stroke="#87339B" stroke-width="3" stroke-linecap="round" stroke-linejoin="round"></path>
                    <path d="M66.0289263,47.6510327 C62.5122947,47.4062327 59.4845053,49.4684873 59.2685053,52.2577236 C59.0506105,55.0488145 61.7259789,57.5060873 65.2426105,57.7527418 C68.7592421,57.9993964 72.0049263,57.7675782 71.9992421,53.1460509 C71.9935579,48.1647418 69.5417684,47.8958327 66.0289263,47.6510327 Z" id="Stroke-25" stroke="#87339B" stroke-width="3" stroke-linecap="round" stroke-linejoin="round"></path>
                    <polygon id="Stroke-27" stroke="#63C8BB" stroke-width="3" stroke-linecap="round" stroke-linejoin="round" points="0 84.3090909 54.9473684 91.7272727 51.1578947 101 1.89473684 101"></polygon>
                </g>
            </g>
            <path d="M99.1109834,-4.13532362 C63.1564749,-4.13532362 31.5353949,14.4274472 13.5238693,42.329429 L23.7885349,42.329429 C40.680528,19.2863002 68.1402983,4.25164234 99.1109834,4.25164234 C150.341398,4.25164234 192.019992,45.3498783 192.019992,95.8654274 C192.019992,146.380976 150.341398,187.47771 99.1109834,187.47771 C68.1555301,187.47771 40.706422,172.458072 23.8129057,149.435971 L13.5451937,149.435971 C31.5597656,177.318427 63.1701835,195.864676 99.1109834,195.864676 C155.029726,195.864676 200.523869,151.005523 200.523869,95.8654274 C200.523869,40.7253317 155.029726,-4.13532362 99.1109834,-4.13532362" id="Fill-10" fill="#2E1159" transform="translate(107.023869, 95.864676) rotate(-34.000000) translate(-107.023869, -95.864676) "></path>
        </g>
    </g>
</svg>
