<svg width="44px" height="60px" viewBox="0 0 44 60" version="1.1" xmlns="http://www.w3.org/2000/svg" xmlns:xlink="http://www.w3.org/1999/xlink">
    <g stroke="none" stroke-width="1" fill="none" fill-rule="evenodd">
        <g transform="translate(-596.000000, -822.000000)" fill="#ffffff" fill-rule="nonzero">
            <g transform="translate(596.000000, 822.000000)">
                <path d="M0,60 L18.2172702,37.5208914 C10.2785515,35.0139276 4.51253482,27.8272981 4.51253482,19.1364903 C4.51253482,8.44011142 13.454039,0 24.1504178,0 C34.8467967,0 43.8718663,8.44011142 43.8718663,19.1364903 C43.8718663,23.816156 42.1169916,27.994429 39.3593315,31.3370474 L25.7381616,48.2172702 L43.7883008,48.2172702 L43.7883008,60 L0,60 Z M24.1504178,26.5738162 C28.4122563,26.5738162 31.1699164,23.1476323 31.1699164,19.1364903 C31.1699164,15.1253482 28.4122563,11.7827298 24.1504178,11.7827298 C19.8885794,11.7827298 17.2144847,15.1253482 17.2144847,19.1364903 C17.2144847,23.1476323 19.8885794,26.5738162 24.1504178,26.5738162 Z"></path>
            </g>
        </g>
    </g>
</svg>
