<svg xmlns="http://www.w3.org/2000/svg"><symbol id="sprite-appointment" viewBox="0 0 25 25"><title>appointment</title><path d="M5.4 17.2h17V4H2.6v15.3l2.8-2.1zM1 2.4h23v16.4H5.9L1 22.6V2.4zm7.7 9.3c-.6 0-1.1-.5-1.1-1.1 0-.6.5-1.1 1.1-1.1.6 0 1.1.5 1.1 1.1 0 .6-.5 1.1-1.1 1.1zm3.8 0c-.6 0-1.1-.5-1.1-1.1 0-.6.5-1.1 1.1-1.1s1.1.5 1.1 1.1c0 .6-.5 1.1-1.1 1.1zm3.8 0c-.6 0-1.1-.5-1.1-1.1 0-.6.5-1.1 1.1-1.1.6 0 1.1.5 1.1 1.1 0 .6-.5 1.1-1.1 1.1z"/></symbol><symbol id="sprite-arrow-breadcrumb" viewBox="0 0 10 9"><title>arrow-breadcrumb</title><path fill="#143489" d="M4.8.3L3.7 1.4l2.4 2.4H.5v1.4h5.7L3.7 7.7l1.1 1.1L9 4.5z"/></symbol><symbol id="sprite-arrow-down" viewBox="0 0 25 25"><title>arrow-down</title><path d="M13.4 20.5l6.9-7 1.3 1.3-9.1 9.2-9.1-9.2 1.3-1.3 6.7 6.8V1h1.9v19.5z" fill="currentColor"/></symbol><symbol id="sprite-arrow-left" viewBox="0 0 25 25"><title>arrow-left</title><path d="M4.5 13.4l7 6.9-1.3 1.3L1 12.5l9.2-9.1 1.3 1.3-6.8 6.7H24v1.9H4.5z" fill="currentColor"/></symbol><symbol id="sprite-arrow-right" viewBox="0 0 25 25"><title>arrow-right</title><path d="M20.5 11.6l-7-6.9 1.3-1.3 9.2 9.1-9.2 9.1-1.3-1.3 6.8-6.7H1v-1.9h19.5z" fill="currentColor"/></symbol><symbol id="sprite-arrow-up" viewBox="0 0 25 25"><title>arrow-up</title><path d="M11.6 4.5l-6.9 7-1.3-1.3L12.5 1l9.1 9.2-1.3 1.3-6.7-6.8V24h-1.9V4.5z"/></symbol><symbol id="sprite-bg-circle" viewBox="0 0 500 500"><title>bg-circle</title><path fill="#E5F5FF" d="M250 500C111.9 500 0 388.1 0 250S111.9 0 250 0s250 111.9 250 250-111.9 250-250 250zm0-160.7c49.3 0 89.3-40 89.3-89.3s-40-89.3-89.3-89.3-89.3 40-89.3 89.3 40 89.3 89.3 89.3z"/></symbol><symbol id="sprite-bullet" viewBox="0 0 30 30"><title>bullet</title><circle cx="15.1" cy="15.6" r="5.1"/></symbol><symbol id="sprite-burger" viewBox="0 0 25 25"><title>burger</title><path d="M3.5 15C2.1 15 1 13.9 1 12.5S2.1 10 3.5 10 6 11.1 6 12.5 4.8 15 3.5 15zm9 0c-1.4 0-2.5-1.1-2.5-2.5s1.1-2.5 2.5-2.5 2.5 1.1 2.5 2.5-1.1 2.5-2.5 2.5zm9 0c-1.4 0-2.5-1.1-2.5-2.5s1.1-2.5 2.5-2.5 2.5 1.1 2.5 2.5-1.1 2.5-2.5 2.5z"/></symbol><symbol id="sprite-circle-facebook" viewBox="0 0 25 25"><title>circle-facebook</title><path class="st0" d="M12.5 0C5.6 0 0 5.6 0 12.5S5.6 25 12.5 25 25 19.4 25 12.5 19.4 0 12.5 0zm3.2 12.5h-2V20h-2.8v-7.5H9V9.9h1.9V8.4c0-2.1.6-3.4 3.1-3.4h2v2.6h-1.3c-1 0-1 .4-1 1v1.3H16l-.3 2.6z"/></symbol><symbol id="sprite-circle-instagram" viewBox="0 0 25 25"><title>circle-instagram</title><path d="M12.5 15c1.4 0 2.5-1.1 2.5-2.5 0-.5-.2-1-.5-1.5-.5-.6-1.2-1-2-1s-1.6.4-2 1c-.3.4-.5.9-.5 1.5 0 1.4 1.1 2.5 2.5 2.5zM18 9.4V7h-2.4v2.4z"/><path d="M12.5 0C5.6 0 0 5.6 0 12.5S5.6 25 12.5 25 25 19.4 25 12.5 19.4 0 12.5 0zm7.1 11v5.8c0 1.5-1.2 2.7-2.7 2.7H8.2c-1.5 0-2.7-1.2-2.7-2.7V8.1c0-1.5 1.2-2.7 2.7-2.7h8.7c1.5 0 2.7 1.2 2.7 2.7V11z"/><path d="M16.4 12.5c0 2.1-1.7 3.9-3.9 3.9s-3.9-1.7-3.9-3.9c0-.5.1-1 .3-1.5H6.8v5.8c0 .8.6 1.4 1.4 1.4h8.7c.8 0 1.4-.6 1.4-1.4V11h-2.1c.1.5.2 1 .2 1.5z"/></symbol><symbol id="sprite-circle-linkedin" viewBox="0 0 25 25"><title>circle-linkedin</title><path class="st0" d="M12.5 0C5.6 0 0 5.6 0 12.5S5.6 25 12.5 25 25 19.4 25 12.5 19.4 0 12.5 0zM8.9 18.9h-3V9.7h3v9.2zM7.3 8.5c-1 0-1.7-.7-1.7-1.6 0-.9.7-1.6 1.7-1.6S9 6 9.1 6.9c0 .9-.7 1.6-1.8 1.6zm12.5 10.4h-3V14c0-1.2-.4-2.1-1.5-2.1-.8 0-1.3.6-1.6 1.1-.1.2-.1.5-.1.7v5.1h-3V9.6h3V11c.4-.6 1.1-1.5 2.7-1.5 2 0 3.5 1.3 3.5 4.1v5.3z"/></symbol><symbol id="sprite-circle-youtube" viewBox="0 0 25 25"><title>circle-youtube</title><path d="M10.9 14.8l4.1-2.3-4.1-2.3z"/><path d="M12.5 0C5.6 0 0 5.6 0 12.5S5.6 25 12.5 25 25 19.4 25 12.5 19.4 0 12.5 0zm7.8 12.5s0 2.5-.3 3.8c-.2.7-.7 1.2-1.4 1.4-1.2.3-6.1.3-6.1.3s-4.9 0-6.1-.3c-.7-.2-1.2-.7-1.4-1.4-.3-1.2-.3-3.8-.3-3.8s0-2.5.3-3.8c.2-.7.7-1.2 1.4-1.4C7.6 7 12.5 7 12.5 7s4.9 0 6.1.3c.7.2 1.2.7 1.4 1.4.3 1.3.3 3.8.3 3.8z"/></symbol><symbol id="sprite-clock" viewBox="0 0 30 30"><style/><title>icn-30-country</title><path fill="#143489" d="M15 5.5c-5.2 0-9.5 4.3-9.5 9.5s4.3 9.5 9.5 9.5 9.5-4.3 9.5-9.5-4.3-9.5-9.5-9.5zm.7 9.8l-4.3 4.3-1-1 3.9-3.9V8.8h1.4v6.5z"/></symbol><symbol id="sprite-close" viewBox="0 0 25 25"><title>close</title><path d="M14.2 12.5l9.8 9.8-1.7 1.7-9.8-9.8L2.7 24 1 22.3l9.8-9.8L1 2.7 2.7 1l9.8 9.8L22.3 1 24 2.7z"/></symbol><symbol id="sprite-country" viewBox="0 0 25 25"><title>country</title><path class="st0" d="M11.8 4.4c.1 0 .1 0 .2.1.2.3.3 1 0 1.1-.3.1-.7 0-.9.2s-.2.6-.9.8c-.4 0-1.2-.5-1.4-.5-.4.1-.7.2-1 .4-.1.1-.3.1-.4.1-.1 0-.2-.1-.2-.2s0-.1.1-.1c1.2-1.1 2.8-1.8 4.5-1.9zm8.8 9.1c0 .1-.1.2-.2.2h-.1c-.4-.3-.1-.6-.2-.9s-.8-.3-1.2-.7-.1-.5-.2-.8c-.3-.4-.7-.6-1.2-.6-.5.1-1 .3-.9.8s1.7.2 1.7 1.1c0 .4-.7.6-.8.8s-.1.5-.3.6-.6-.1-.7 0-.1.5-.3.5-1 .2-1.2.5-.1 1.1-.3 1.3c-.2.3-.5.7-.6 1.1-.1.5.1 1 0 1.4-.3.8-2 1.2-2.8.6-.4-.3-.1-.9-.4-1.3-.1-.2-.3-.2-.6-.6s.1-.9-.1-1.3-2.3-1-2.6-1.7c-.2-.8-.3-1.7-.1-2.5.1-.4.8-.6 1.1-.8s.4-.7.9-.7.9.4 1.1.5.6-.1.9 0 1.5 1.1 2.1 1.1.7-.7.6-1.1-.7-.3-1-.5-.6-.8-1-.8-1.1.4-1.6.5c-.4.1-.8-.3-.9-.7v-.1c0-.5.5-.7.9-.9s2.3-.3 3.4-1.1c.3-.2.3-1.1 1.1-1.6.5-.4 1.2-.2 1.7-.3h.2c2.6 1.8 4 4.9 3.6 8zM12.5 3C7.3 3 3 7.3 3 12.5S7.3 22 12.5 22s9.5-4.3 9.5-9.5S17.7 3 12.5 3z"/></symbol><symbol id="sprite-coupon" viewBox="0 0 30 30"><title>coupon</title><style>.st0{fill-rule:evenodd;clip-rule:evenodd}</style><path class="st0" d="M27.9 13.4l-5-8.7c-.6-1-1.8-1.3-2.7-.7l-13 7.5 1 1.7-.9.5-1-1.7-3.5 2c-1 .6-1.3 1.8-.7 2.7l5 8.7c.6 1 1.8 1.3 2.7.7l3.5-2-1-1.7.9-.5 1 1.7 13-7.5c.9-.5 1.2-1.8.7-2.7zM7.8 14.5l.9-.5 1 1.8-.9.5-1-1.8zm1.5 2.6l.9-.5 1 1.7-.9.5-1-1.7zm2.5 4.4l-1-1.7.9-.5 1 1.7-.9.5zm4.8-6.8c-.8.4-2-.1-2.6-1.2-.6-1.1-.4-2.3.4-2.8.8-.4 2 .1 2.6 1.2.6 1.1.4 2.3-.4 2.8zm2.3 1.9l-1 .6V9l1-.6v8.2zm3.4-1.8c-.8.4-2-.1-2.6-1.2s-.4-2.3.4-2.8c.8-.4 2 .1 2.6 1.2s.4 2.3-.4 2.8z"/><path class="st0" d="M14.9 11.7c-.2.1-.1.7.2 1.3.3.6.7 1 1 .8.2-.1.1-.7-.2-1.3-.3-.6-.8-1-1-.8zm5.7 0c-.2.1-.1.7.2 1.3.3.6.7 1 1 .8.2-.1.1-.7-.2-1.3-.3-.5-.8-.9-1-.8z"/></symbol><symbol id="sprite-download" viewBox="0 0 30 30"><title>download</title><path d="M22 8h-4V4z"/><path d="M17 9V3H6v24h17V9h-6zm-6 8.1l3 3V13h1v7.1l3-3 .7.7-4.2 4.2-4.2-4.2.7-.7zm8 6.9h-9v-1h9v1z"/></symbol><symbol id="sprite-dropdown-close" viewBox="0 0 25 25"><title>dropdown-close</title><path d="M4.1 17l-1.2-1.5L12.5 8l9.6 7.5-1.2 1.5-8.4-6.5z"/></symbol><symbol id="sprite-dropdown-open" viewBox="0 0 25 25"><title>dropdown-open</title><path d="M4.1 8l8.4 6.5L20.9 8l1.2 1.5-9.6 7.5-9.6-7.5z"/></symbol><symbol id="sprite-facebook-circled" viewBox="0 0 25 25"><title>facebook-circled</title><path class="st0" d="M12.5 0C5.6 0 0 5.6 0 12.5S5.6 25 12.5 25 25 19.4 25 12.5 19.4 0 12.5 0zm3.2 12.5h-2V20h-2.8v-7.5H9V9.9h1.9V8.4c0-2.1.6-3.4 3.1-3.4h2v2.6h-1.3c-1 0-1 .4-1 1v1.3H16l-.3 2.6z"/></symbol><symbol id="sprite-flip" viewBox="0 0 25 25"><title>flip</title><path d="M16.5 19.7h.9v3.6s-.3.1-.8.1l-6.8.9-.9.1v-1.8l6.8-.9v-2h.8zm-6.9-8.1h-.8V.6s.9.3 1.1.4l6.9 2.5.6.2v11.1h-1.7V5.1l-5.2-1.9v8.4h-.9zm9.3-2c2.5-.1 4.5 1.8 4.6 4.3.1 2.3-1.8 4.2-4.1 4.3h-5.3v-1.9h5.3c1.3 0 2.3-1.1 2.3-2.4-.1-1.4-1.2-2.5-2.6-2.4h-.2V9.6zm-10 10.5l-.7-.8L9.5 18h-4c-2.3-.1-4.1-2-4-4.2-.1-2.3 1.7-4.2 4-4.3h1.3v1.9H5.5c-1.3.1-2.3 1.2-2.2 2.5.1 1.2 1 2.1 2.2 2.2h4l-1.3-1.5.6-.5c.2-.2.5-.4.7-.6l2.7 3 .6.6-3 3.3-.3.3-.6-.6z"/></symbol><symbol id="sprite-full-screen" viewBox="0 0 25 25"><title>full-screen</title><path class="bottom" d="M21.7 20.1V15H24v9.1h-9.2v-2.3h5.3L14 15.6l1.6-1.6 6.1 6.1z"/><path class="top" d="M3.3 4.9V10H1V1h9.2v2.3H4.8L11 9.4 9.4 11 3.3 4.9z"/></symbol><symbol id="sprite-globe" viewBox="0 0 25 25"><title>globe</title><path d="M12.5 1C6.2 1 1 6.2 1 12.5S6.2 24 12.5 24 24 18.8 24 12.5 18.8 1 12.5 1zm9.8 12.7c0 .2-.2.3-.4.2-.5-.4-.1-.8-.3-1-.2-.3-1-.4-1.4-.9-.4-.4-.1-.6-.3-1-.1-.3-1-.8-1.5-.7-.7.1-1.2.4-1.1 1 0 .5 2 .3 2 1.4 0 .4-.8.7-.9 1s-.2.6-.4.7c-.2.1-.7-.1-.9 0-.2.1-.2.6-.3.7-.2.1-1.1.2-1.4.6s-.2 1.3-.3 1.6c-.2.3-.7.9-.7 1.3-.1.6.1 1.2 0 1.7-.3 1-2.4 1.5-3.4.8-.5-.4-.1-1.1-.4-1.5-.2-.2-.4-.2-.8-.7-.4-.5.1-1.1-.2-1.6-.4-.6-2.7-1.3-3.1-2.1-.3-.7-.3-2.3-.1-3 .1-.5 1-.7 1.3-.9.3-.2.5-.8 1.1-.9.5-.1 1 .5 1.3.6.3.2.7-.1 1.1 0s1.8 1.4 2.5 1.4.8-.9.8-1.3-.9-.4-1.2-.6c-.3-.2-.7-1-1.2-1s-1.3.5-2 .6c-.6.1-1-.4-1-1s.6-.9 1.1-1.1c.5-.2 2.8-.4 4.2-1.3.4-.3.4-1.4 1.3-2 .6-.4 1.5-.2 2-.3h.2c3.1 1.9 4.9 5.5 4.4 9.3zM11.6 2.6c.1 0 .2 0 .2.1.3.4.3 1.2-.1 1.3-.5.2-.9.1-1.1.2-.3.2-.2.7-1 .9-.4.1-1.4-.5-1.7-.5s-1.1.3-1.2.5c-.1.1-.3.1-.5.2-.2 0-.3-.3-.2-.4 1.6-1.2 3.5-2.1 5.6-2.3z"/></symbol><symbol id="sprite-instagram-circled" viewBox="0 0 25 25"><title>instagram-circled</title><path d="M12.5 15c1.4 0 2.5-1.1 2.5-2.5 0-.5-.2-1-.5-1.5-.5-.6-1.2-1-2-1s-1.6.4-2 1c-.3.4-.5.9-.5 1.5 0 1.4 1.1 2.5 2.5 2.5zM18 9.4V7h-2.4v2.4z"/><path d="M12.5 0C5.6 0 0 5.6 0 12.5S5.6 25 12.5 25 25 19.4 25 12.5 19.4 0 12.5 0zm7.1 11v5.8c0 1.5-1.2 2.7-2.7 2.7H8.2c-1.5 0-2.7-1.2-2.7-2.7V8.1c0-1.5 1.2-2.7 2.7-2.7h8.7c1.5 0 2.7 1.2 2.7 2.7V11z"/><path d="M16.4 12.5c0 2.1-1.7 3.9-3.9 3.9s-3.9-1.7-3.9-3.9c0-.5.1-1 .3-1.5H6.8v5.8c0 .8.6 1.4 1.4 1.4h8.7c.8 0 1.4-.6 1.4-1.4V11h-2.1c.1.5.2 1 .2 1.5z"/></symbol><symbol id="sprite-lightning" viewBox="0 0 25 25"><title>lightning</title><path d="M14.7 2.2H10L8.4 12.5h3l-.7 6.2L16 9.8h-4.3l3-7.6zm-4.6 11.5H7L9 1h7.4l-3.1 7.7H18L8.9 24l1.2-10.3z"/></symbol><symbol id="sprite-lightshow-small" viewBox="0 0 1460 410"><title>lightshow-small</title><circle class="lightshow__item" cx="1430" cy="60" r="30"/><circle class="lightshow__item" cx="1220" cy="130" r="30"/><circle class="lightshow__item" fill="currentColor" cx="1430" cy="130" r="30"/><circle class="lightshow__item" cx="1360" cy="200" r="30"/><circle class="lightshow__item" cx="1220" cy="270" r="30"/><circle class="lightshow__item" fill="currentColor" cx="1360" cy="270" r="30"/><circle class="lightshow__item" cx="1430" cy="270" r="30"/><g><circle class="lightshow__item" cx="1010" cy="340" r="30"/><circle class="lightshow__item" fill="currentColor" cx="1080" cy="340" r="30"/><circle class="lightshow__item" cx="1150" cy="340" r="30"/><circle class="lightshow__item" cx="1290" cy="340" r="30"/><circle class="lightshow__item" cx="1360" cy="340" r="30"/><circle class="lightshow__item" cx="1430" cy="340" r="30"/></g><g><circle class="lightshow__item" cx="940" cy="410" r="30"/><circle class="lightshow__item" cx="1010" cy="410" r="30"/><circle class="lightshow__item" cx="1080" cy="410" r="30"/><circle class="lightshow__item" cx="1150" cy="410" r="30"/><circle class="lightshow__item" fill="currentColor" cx="1220" cy="410" r="30"/><circle class="lightshow__item" cx="1290" cy="410" r="30"/><circle class="lightshow__item" cx="1360" cy="410" r="30"/><circle class="lightshow__item" cx="1430" cy="410" r="30"/></g></symbol><symbol id="sprite-lightshow" viewBox="0 0 1460 410"><title>lightshow</title><circle class="lightshow__item" cx="30" cy="30" r="30"/><circle class="lightshow__item lightshow__item--animation lightshow__item--delay9" cx="240" cy="30" r="30"/><circle class="lightshow__item" cx="380" cy="30" r="30"/><circle class="lightshow__item lightshow__item--animation lightshow__item--delay8" cx="1150" cy="30" r="30"/><circle class="lightshow__item" fill="currentColor" cx="1430" cy="30" r="30"/><circle class="lightshow__item lightshow__item--animation lightshow__item--delay6" cx="30" cy="100" r="30"/><circle class="lightshow__item" fill="currentColor" cx="380" cy="100" r="30"/><circle class="lightshow__item" cx="1010" cy="100" r="30"/><circle class="lightshow__item" cx="1220" cy="100" r="30"/><circle class="lightshow__item lightshow__item--animation lightshow__item--delay3" cx="1430" cy="100" r="30"/><g><circle class="lightshow__item" fill="currentColor" cx="30" cy="170" r="30"/><circle class="lightshow__item" cx="100" cy="170" r="30"/><circle class="lightshow__item" cx="240" cy="170" r="30"/><circle class="lightshow__item" cx="380" cy="170" r="30"/><circle class="lightshow__item" cx="450" cy="170" r="30"/><circle class="lightshow__item lightshow__item--animation lightshow__item--delay5" cx="520" cy="170" r="30"/><circle class="lightshow__item" cx="660" cy="170" r="30"/><circle class="lightshow__item" cx="800" cy="170" r="30"/><circle class="lightshow__item" cx="870" cy="170" r="30"/><circle class="lightshow__item lightshow__item--animation lightshow__item--delay11" cx="1010" cy="170" r="30"/><circle class="lightshow__item" cx="1360" cy="170" r="30"/></g><g><circle class="lightshow__item" cx="30" cy="240" r="30"/><circle class="lightshow__item" cx="170" cy="240" r="30"/><circle class="lightshow__item lightshow__item--animation lightshow__item--delay2" cx="240" cy="240" r="30"/><circle class="lightshow__item" cx="310" cy="240" r="30"/><circle class="lightshow__item" cx="590" cy="240" r="30"/><circle class="lightshow__item" cx="660" cy="240" r="30"/><circle class="lightshow__item" cx="730" cy="240" r="30"/><circle class="lightshow__item lightshow__item--animation lightshow__item--delay1" cx="800" cy="240" r="30"/><circle class="lightshow__item" cx="940" cy="240" r="30"/><circle class="lightshow__item" fill="currentColor" cx="1080" cy="240" r="30"/><circle class="lightshow__item lightshow__item--animation lightshow__item--delay12" cx="1220" cy="240" r="30"/><circle class="lightshow__item" cx="1360" cy="240" r="30"/><circle class="lightshow__item" fill="currentColor" cx="1430" cy="240" r="30"/></g><g><circle class="lightshow__item lightshow__item--animation lightshow__item--delay13" cx="100" cy="310" r="30"/><circle class="lightshow__item" fill="currentColor" cx="170" cy="310" r="30"/><circle class="lightshow__item" cx="310" cy="310" r="30"/><circle class="lightshow__item" cx="380" cy="310" r="30"/><circle class="lightshow__item" cx="520" cy="310" r="30"/><circle class="lightshow__item" cx="660" cy="310" r="30"/><circle class="lightshow__item" fill="currentColor" cx="730" cy="310" r="30"/><circle class="lightshow__item" cx="800" cy="310" r="30"/><circle class="lightshow__item" cx="940" cy="310" r="30"/><circle class="lightshow__item lightshow__item--animation lightshow__item--delay4" cx="1010" cy="310" r="30"/><circle class="lightshow__item" cx="1080" cy="310" r="30"/><circle class="lightshow__item" cx="1220" cy="310" r="30"/><circle class="lightshow__item" fill="currentColor" cx="1290" cy="310" r="30"/><circle class="lightshow__item" cx="1360" cy="310" r="30"/><circle class="lightshow__item" cx="1430" cy="310" r="30"/></g><g><circle class="lightshow__item" cx="30" cy="380" r="30"/><circle class="lightshow__item" cx="100" cy="380" r="30"/><circle class="lightshow__item" cx="170" cy="380" r="30"/><circle class="lightshow__item lightshow__item--animation lightshow__item--delay14" cx="240" cy="380" r="30"/><circle class="lightshow__item" cx="310" cy="380" r="30"/><circle class="lightshow__item" fill="currentColor" cx="380" cy="380" r="30"/><circle class="lightshow__item" cx="450" cy="380" r="30"/><circle class="lightshow__item lightshow__item--animation lightshow__item--delay7" cx="520" cy="380" r="30"/><circle class="lightshow__item" fill="currentColor" cx="590" cy="380" r="30"/><circle class="lightshow__item" cx="660" cy="380" r="30"/><circle class="lightshow__item" cx="730" cy="380" r="30"/><circle class="lightshow__item" cx="800" cy="380" r="30"/><circle class="lightshow__item lightshow__item--animation lightshow__item--delay15" cx="870" cy="380" r="30"/><circle class="lightshow__item" cx="940" cy="380" r="30"/><circle class="lightshow__item" fill="currentColor" cx="1010" cy="380" r="30"/><circle class="lightshow__item" cx="1080" cy="380" r="30"/><circle class="lightshow__item" cx="1150" cy="380" r="30"/><circle class="lightshow__item" cx="1220" cy="380" r="30"/><circle class="lightshow__item lightshow__item--animation lightshow__item--delay16" cx="1290" cy="380" r="30"/><circle class="lightshow__item" cx="1360" cy="380" r="30"/><circle class="lightshow__item" cx="1430" cy="380" r="30"/></g></symbol><symbol id="sprite-linkedin-circled" viewBox="0 0 25 25"><title>linkedin-circled</title><path class="st0" d="M12.5 0C5.6 0 0 5.6 0 12.5S5.6 25 12.5 25 25 19.4 25 12.5 19.4 0 12.5 0zM8.9 18.9h-3V9.7h3v9.2zM7.3 8.5c-1 0-1.7-.7-1.7-1.6 0-.9.7-1.6 1.7-1.6S9 6 9.1 6.9c0 .9-.7 1.6-1.8 1.6zm12.5 10.4h-3V14c0-1.2-.4-2.1-1.5-2.1-.8 0-1.3.6-1.6 1.1-.1.2-.1.5-.1.7v5.1h-3V9.6h3V11c.4-.6 1.1-1.5 2.7-1.5 2 0 3.5 1.3 3.5 4.1v5.3z"/></symbol><symbol id="sprite-lock" viewBox="0 0 25 25"><title>lock</title><path d="M3.7 10.7V6.9c0-3.2 2.7-5.9 6-5.9s6 2.6 6 5.9v3.9h1.6v8.5L9.8 24l-7.6-4.8v-8.5h1.5zm1.2 0h9.7V6.9c0-2.6-2.2-4.7-4.9-4.7S4.9 4.3 4.9 6.9v3.8zm-1.5 7.9l6.4 4.1 6.4-4.1v-6.7H3.4v6.7zm8.5-12c0-1.2-1-2.1-2.1-2.1s-2.1 1-2.1 2.1v3.7H6.5V6.6c0-1.8 1.5-3.3 3.3-3.3s3.3 1.5 3.3 3.3v3.7h-1.2V6.6zM8 16c0-1 .8-1.8 1.8-1.8s1.8.8 1.8 1.8c0 .8-.5 1.4-1.2 1.7v2H9.2v-2c-.7-.3-1.2-1-1.2-1.7zm14.8-7.2V10h-3.9V8.8h3.9zm-2-4l.8.8-2.8 2.8-.8-.8 2.8-2.8zm-1.9 5.5l2.8 2.8-.8.8-2.8-2.8.8-.8z"/></symbol><symbol id="sprite-login" viewBox="0 0 25 25"><title>login</title><path d="M12.5 24c-1.5 0-2.9-.2-4.3-.7L4.7 22c-.5-.2-.8-.7-.7-1.2l1.4-6.7c.2-.9 1-1.6 2-1.6h10c1 0 1.8.7 2 1.6l1.4 6.7c.1.5-.2 1-.7 1.2l-3.5 1.2c-1.2.6-2.6.8-4.1.8zm-6.8-3.3l3 1.1c2.4.9 5.1.9 7.6 0l3-1.1-1.3-6.3c0-.2-.3-.4-.5-.4h-10c-.3 0-.5.2-.5.4l-1.3 6.3zm6.8-10.1c-2.3 0-4.1-1.8-4.1-4.1V5.1c0-2.3 1.8-4.1 4.1-4.1s4.1 1.8 4.1 4.1v1.4c0 2.3-1.8 4.1-4.1 4.1zm0-8.1C11.1 2.5 10 3.6 10 5v1.4c0 1.4 1.1 2.5 2.5 2.5s2.5-1 2.5-2.4V5.1c0-1.4-1.1-2.6-2.5-2.6z"/></symbol><symbol id="sprite-logo-alcon-tag" viewBox="0 0 200 90"><title>logo-alcon-tag</title><path d="M194.3 27.1c-.5-1.8-1.2-3.4-2.3-4.8-1.1-1.4-2.5-2.5-4.2-3.4-1.7-.9-3.8-1.3-6.2-1.3-1.3 0-2.5.2-3.6.5s-2.2.8-3.1 1.3c-1 .5-1.8 1.2-2.5 2-.3.3-.5.6-.7.9v-3.7h-12.4v36h12.8V35.1c0-.9.1-1.8.4-2.7.2-.8.6-1.6 1.1-2.2.5-.6 1-1.1 1.7-1.5.7-.4 1.5-.5 2.4-.5.9 0 1.7.2 2.3.5.6.3 1 .8 1.4 1.4.3.6.6 1.3.7 2.2.2.9.2 1.8.2 2.7v19.6H195V32.4c0-1.8-.2-3.5-.7-5.3zm-51.4 9.4c0 4.2-3.4 7.6-7.7 7.6s-7.7-3.4-7.7-7.6 3.4-7.6 7.7-7.6 7.7 3.4 7.7 7.6zm-7.6-19.1c-10.6 0-19.2 8.6-19.2 19.1s8.6 19.1 19.2 19.1 19.2-8.6 19.2-19.1-8.6-19.1-19.2-19.1zm-34.7 26.8c-4.2 0-7.7-3.4-7.7-7.6s3.4-7.6 7.7-7.6c2.7 0 5 1.4 6.4 3.4l7.6-8.8c-3.5-3.8-8.5-6.1-14-6.1-10.6-.1-19.2 8.5-19.2 19 0 10.6 8.6 19.1 19.2 19.1 5.5 0 10.5-2.3 14-6l-7.5-9.1c-1.4 2.2-3.8 3.7-6.5 3.7zM63.7 3.8h12.9v50.7H63.7zm-37 0L5.3 54.5h14.4l3.6-9.7h18.4l3.9 9.7h14.6L39.1 3.8H26.7zM38 34H27.2l5.4-14.6L38 34zM13.2 79.2c0 1.1-.4 2-1.2 2.6-.8.6-1.9.9-3.3.9-1.5 0-2.6-.2-3.4-.6v-1.4c.5.2 1.1.4 1.7.5.6.1 1.2.2 1.8.2 1 0 1.7-.2 2.2-.6.5-.4.7-.9.7-1.5 0-.4-.1-.8-.3-1.1s-.5-.5-.9-.8-1-.5-1.9-.8c-1.2-.4-2-.9-2.5-1.5s-.8-1.3-.8-2.3c0-1 .4-1.7 1.1-2.3s1.7-.9 2.9-.9c1.3 0 2.4.2 3.5.7l-.5 1.3c-1-.4-2.1-.7-3-.7-.8 0-1.4.2-1.8.5-.4.3-.7.8-.7 1.4 0 .4.1.8.2 1.1.2.3.4.5.8.8s1 .5 1.8.8c1.3.5 2.2 1 2.7 1.5s.9 1.3.9 2.2zm12.6 3.3h-7V69.9h7v1.3h-5.6v4.1h5.2v1.3h-5.2v4.6h5.6v1.3zm13.9 0h-7V69.9h7v1.3h-5.6v4.1h5.2v1.3h-5.2v4.6h5.6v1.3zm15.4-12.6h3.6c1.7 0 2.9.3 3.6.8.7.5 1.1 1.3 1.1 2.4 0 .7-.2 1.4-.6 1.8-.4.5-1 .8-1.8.9v.1c1.9.3 2.9 1.3 2.9 3 0 1.1-.4 2-1.1 2.6-.8.6-1.8.9-3.2.9h-4.4V69.9zm1.5 5.4H59c1 0 1.8-.2 2.2-.5.5-.3.7-.9.7-1.6 0-.7-.3-1.2-.8-1.5-.5-.3-1.3-.5-2.4-.5h-2.2v4.1zm0 1.3v4.7h2.6c1 0 1.8-.2 2.3-.6.5-.4.8-1 .8-1.8s-.3-1.4-.8-1.7c-.5-.4-1.3-.6-2.4-.6h-2.5zm14.4.7v5.2h-1.5V69.9H73c1.5 0 2.7.3 3.4.9.7.6 1.1 1.5 1.1 2.7 0 1.7-.8 2.8-2.5 3.4l3.4 5.7h-1.7l-3.1-5.2H71zm0-1.3h2c1 0 1.8-.2 2.3-.6.5-.4.7-1 .7-1.8s-.2-1.4-.7-1.8c-.5-.4-1.3-.6-2.4-.6H71V76zm13.1 6.5V69.9h1.5v12.6h-1.5zm8.9 0V69.9h1.5v11.3h5.6v1.3H93zm13.2 0V69.9h1.5v11.3h5.6v1.3h-7.1zm13.2 0V69.9h1.5v12.6h-1.5zm16.9 0l-1.6-4h-5.1l-1.6 4h-1.5l5-12.7h1.2l5 12.7h-1.4zm-2-5.3l-1.5-3.9c-.2-.5-.4-1.1-.6-1.8-.1.6-.3 1.2-.5 1.8l-1.5 3.9h4.1zm18.8 5.3h-1.7L144.5 72h-.1c.1 1.2.1 2.4.1 3.4v7.2h-1.4V69.9h1.7l6.9 10.5h.1c0-.2 0-.7-.1-1.5 0-.8-.1-1.4 0-1.8v-7.2h1.4v12.6zm11.3 0H163V71.2h-4v-1.3h9.5v1.3h-4v11.3zm9.6 0V69.9h1.5v11.3h5.6v1.3H174zm16.1-6.3l3.4-6.3h1.6l-4.2 7.7v4.9h-1.5v-4.8l-4.2-7.8h1.6l3.3 6.3z" fill="#003595"/></symbol><symbol id="sprite-logo-alcon" viewBox="0 0 200 60"><title>logo-alcon</title><path d="M194.3 27.3c-.5-1.8-1.2-3.4-2.3-4.8a11.7 11.7 0 0 0-4.2-3.4c-1.7-.9-3.8-1.3-6.2-1.3a13.61 13.61 0 0 0-6.7 1.8c-1 .5-1.8 1.2-2.5 2-.3.3-.5.6-.7.9v-3.7h-12.4v36.1H172V35.3c0-.9.1-1.8.4-2.7a6.12 6.12 0 0 1 2.8-3.7c.7-.4 1.5-.5 2.4-.5.9 0 1.7.2 2.3.5.6.3 1 .8 1.4 1.4.3.6.6 1.3.7 2.2.2.9.2 1.8.2 2.7v19.7H195V32.7c0-1.8-.2-3.6-.7-5.4zm-51.4 9.5a7.7 7.7 0 1 1-15.4 0 7.7 7.7 0 0 1 15.4 0zm-7.7-19.2a19.2 19.2 0 1 0 .01 38.41 19.2 19.2 0 0 0-.01-38.41zm-34.8 26.8a7.7 7.7 0 1 1 6.4-12l7.7-8.8a19 19 0 0 0-14.1-6.1 19.2 19.2 0 0 0 0 38.4c5.5 0 10.5-2.3 14-6l-7.5-9.1a7.68 7.68 0 0 1-6.5 3.6zM26.4 4L5 54.8h14.4l3.7-9.7h18.4l3.9 9.7H60L38.8 4H26.4zm11.3 30.3H26.9l5.4-14.7 5.4 14.7zM63.5 4h12.9v50.8H63.5z"/></symbol><symbol id="sprite-logo-myalcon-hcp" viewBox="0 0 503 90"><title>logo-myalcon-hcp</title><g fill-rule="evenodd"><path d="M98.007 25.628h8.31l14.099 33.953h-9.774l-2.575-6.508H95.793l-2.434 6.508h-9.595l14.243-33.953zm4.01 10.425l-3.63 9.8h7.178l-3.549-9.8zm111.375 5.14a14.39 14.39 0 0 1 .458 3.565V59.58h-8.532V46.443c0-.624-.053-1.23-.158-1.8a4.812 4.812 0 0 0-.494-1.446 2.389 2.389 0 0 0-.905-.924c-.388-.227-.895-.342-1.504-.342-.618 0-1.162.119-1.618.353a3.269 3.269 0 0 0-1.146.98 4.575 4.575 0 0 0-.71 1.486 6.564 6.564 0 0 0-.242 1.787V59.58h-8.532V35.459h8.25v2.458c.154-.193.32-.385.496-.575a7.063 7.063 0 0 1 1.688-1.316c.633-.356 1.33-.652 2.071-.877a8.296 8.296 0 0 1 2.411-.345c1.618 0 3.02.298 4.164.887 1.141.587 2.077 1.358 2.783 2.293a9.023 9.023 0 0 1 1.52 3.209zm-90.934 18.388V25.628h8.625V59.58h-8.625zm49.65-24.871c7.075 0 12.81 5.735 12.81 12.81s-5.735 12.81-12.81 12.81-12.81-5.735-12.81-12.81 5.735-12.81 12.81-12.81zm5.115 12.81a5.115 5.115 0 1 0-10.231.001 5.115 5.115 0 0 0 10.23 0zm-28.754 5.115a5.108 5.108 0 0 0 4.338-2.414l4.985 6.08a12.771 12.771 0 0 1-9.323 4.03c-7.075 0-12.81-5.736-12.81-12.81 0-7.076 5.735-12.811 12.81-12.811 3.704 0 7.038 1.574 9.377 4.087l-5.106 5.912a5.115 5.115 0 1 0-4.271 7.926z" fill="currentColor" transform="translate(.083)"/><path d="M39.293 59.933L27.759 29.796h-.186c.217 2.387.326 5.224.326 8.51v21.627h-3.651V25.936h5.953L40.967 53.98h.186l10.86-28.044h5.906v33.997h-3.953V38.028c0-2.512.109-5.24.326-8.185h-.186l-11.627 30.09h-3.186zm23.323-25.486h4.14l5.58 14.533c1.225 3.318 1.985 5.713 2.28 7.186h.185c.202-.791.624-2.144 1.268-4.058.643-1.915 2.747-7.802 6.313-17.661h4.139l-10.952 29.02c-1.086 2.868-2.353 4.903-3.802 6.104-1.45 1.202-3.229 1.802-5.337 1.802a15.53 15.53 0 0 1-3.488-.395v-3.093c.853.186 1.806.28 2.86.28 2.651 0 4.542-1.489 5.674-4.465l1.418-3.628-10.278-25.625zm182.157 1.395c0 3.442-1.175 6.089-3.523 7.941-2.349 1.853-5.709 2.779-10.08 2.779h-4v13.37h-3.953V25.937h8.813c8.495 0 12.743 3.302 12.743 9.906zm-17.603 7.325h3.557c3.504 0 6.039-.566 7.604-1.698 1.566-1.131 2.349-2.945 2.349-5.44 0-2.249-.736-3.923-2.21-5.024-1.472-1.1-3.766-1.65-6.882-1.65h-4.418v13.812zm34.956-9.185c1.132 0 2.148.093 3.047.279l-.535 3.58c-1.054-.232-1.984-.348-2.79-.348-2.062 0-3.826.837-5.29 2.511-1.466 1.675-2.198 3.76-2.198 6.256v13.673h-3.86V34.447h3.185l.442 4.72h.186c.946-1.658 2.085-2.937 3.419-3.837a7.695 7.695 0 0 1 4.394-1.348zm28.051 13.185c0 4.154-1.046 7.398-3.14 9.731-2.092 2.333-4.983 3.5-8.673 3.5-2.279 0-4.302-.535-6.069-1.605-1.767-1.07-3.131-2.604-4.093-4.604-.96-2-1.441-4.34-1.441-7.022 0-4.155 1.038-7.391 3.116-9.709 2.077-2.317 4.96-3.476 8.65-3.476 3.566 0 6.399 1.186 8.5 3.558 2.1 2.371 3.15 5.58 3.15 9.627zm-19.417 0c0 3.255.651 5.735 1.954 7.44 1.302 1.706 3.216 2.559 5.743 2.559s4.446-.85 5.755-2.547c1.31-1.697 1.965-4.181 1.965-7.452 0-3.24-.655-5.701-1.965-7.383-1.31-1.683-3.243-2.523-5.801-2.523-2.527 0-4.434.829-5.72 2.488-1.287 1.658-1.93 4.131-1.93 7.418zm36.864-9.72h-6.488v22.486h-3.86V37.447h-4.558v-1.744l4.558-1.396V32.89c0-6.263 2.736-9.395 8.209-9.395 1.348 0 2.93.272 4.743.814l-1 3.093c-1.488-.48-2.759-.72-3.813-.72-1.457 0-2.535.484-3.232 1.452-.698.97-1.047 2.523-1.047 4.663v1.65h6.488v3zm14.61 22.95c-3.767 0-6.74-1.146-8.918-3.44-2.178-2.295-3.267-5.48-3.267-9.558 0-4.108 1.011-7.371 3.035-9.79 2.023-2.418 4.74-3.627 8.15-3.627 3.193 0 5.72 1.05 7.58 3.15 1.86 2.101 2.791 4.872 2.791 8.314v2.441h-17.556c.077 2.992.833 5.263 2.267 6.814 1.434 1.55 3.453 2.325 6.057 2.325 2.744 0 5.457-.574 8.14-1.72v3.44c-1.365.59-2.656 1.012-3.873 1.268s-2.685.384-4.406.384zm-1.047-23.183c-2.046 0-3.678.667-4.894 2-1.217 1.333-1.934 3.178-2.151 5.534h13.324c0-2.434-.543-4.298-1.628-5.592-1.085-1.295-2.635-1.942-4.65-1.942zM353.82 52.98c0 2.372-.884 4.201-2.651 5.488-1.767 1.286-4.248 1.93-7.441 1.93-3.38 0-6.015-.535-7.906-1.605v-3.58a19.12 19.12 0 0 0 3.941 1.464c1.403.357 2.756.535 4.058.535 2.015 0 3.565-.322 4.65-.965 1.086-.643 1.628-1.624 1.628-2.942 0-.992-.43-1.84-1.29-2.546-.86-.705-2.539-1.538-5.035-2.5-2.372-.883-4.057-1.654-5.057-2.313-1-.66-1.744-1.407-2.233-2.244-.488-.837-.732-1.837-.732-3 0-2.077.845-3.717 2.534-4.918 1.69-1.202 4.008-1.802 6.953-1.802 2.744 0 5.426.558 8.046 1.674l-1.372 3.14c-2.558-1.055-4.875-1.582-6.953-1.582-1.829 0-3.209.287-4.139.86-.93.574-1.395 1.365-1.395 2.372 0 .682.174 1.264.523 1.744.349.48.91.938 1.686 1.372.775.434 2.263 1.062 4.465 1.884 3.023 1.1 5.065 2.209 6.127 3.325 1.062 1.116 1.593 2.52 1.593 4.209zm21.911 0c0 2.372-.883 4.201-2.65 5.488-1.768 1.286-4.248 1.93-7.442 1.93-3.38 0-6.015-.535-7.906-1.605v-3.58a19.12 19.12 0 0 0 3.942 1.464c1.403.357 2.755.535 4.057.535 2.016 0 3.566-.322 4.651-.965s1.628-1.624 1.628-2.942c0-.992-.43-1.84-1.29-2.546-.861-.705-2.54-1.538-5.035-2.5-2.372-.883-4.058-1.654-5.058-2.313-1-.66-1.744-1.407-2.232-2.244-.488-.837-.733-1.837-.733-3 0-2.077.845-3.717 2.535-4.918 1.69-1.202 4.007-1.802 6.953-1.802 2.744 0 5.426.558 8.046 1.674l-1.372 3.14c-2.558-1.055-4.876-1.582-6.953-1.582-1.83 0-3.21.287-4.14.86-.93.574-1.395 1.365-1.395 2.372 0 .682.175 1.264.524 1.744.349.48.91.938 1.686 1.372.775.434 2.263 1.062 4.464 1.884 3.023 1.1 5.066 2.209 6.128 3.325 1.062 1.116 1.592 2.52 1.592 4.209zm9.332 6.953h-3.86V34.447h3.86v25.486zm-4.186-32.392c0-.884.217-1.531.651-1.942.434-.411.977-.616 1.628-.616.62 0 1.155.209 1.605.627.45.419.674 1.062.674 1.93 0 .869-.225 1.516-.674 1.942-.45.426-.985.64-1.605.64-.651 0-1.194-.214-1.628-.64-.434-.426-.65-1.073-.65-1.941zm33.562 19.626c0 4.154-1.047 7.398-3.14 9.731-2.092 2.333-4.983 3.5-8.673 3.5-2.279 0-4.302-.535-6.07-1.605-1.766-1.07-3.13-2.604-4.092-4.604-.961-2-1.442-4.34-1.442-7.022 0-4.155 1.04-7.391 3.116-9.709 2.078-2.317 4.961-3.476 8.65-3.476 3.566 0 6.4 1.186 8.5 3.558 2.1 2.371 3.15 5.58 3.15 9.627zm-19.417 0c0 3.255.651 5.735 1.953 7.44 1.303 1.706 3.217 2.559 5.744 2.559 2.527 0 4.445-.85 5.755-2.547 1.31-1.697 1.965-4.181 1.965-7.452 0-3.24-.655-5.701-1.965-7.383-1.31-1.683-3.244-2.523-5.802-2.523-2.526 0-4.433.829-5.72 2.488-1.287 1.658-1.93 4.131-1.93 7.418zm42.817 12.766V43.446c0-2.077-.473-3.628-1.419-4.65-.946-1.024-2.426-1.535-4.441-1.535-2.667 0-4.62.72-5.86 2.162-1.24 1.442-1.86 3.821-1.86 7.139v13.37h-3.86V34.448h3.139l.627 3.488h.187c.79-1.256 1.899-2.229 3.325-2.918 1.426-.69 3.015-1.035 4.767-1.035 3.07 0 5.38.74 6.93 2.22 1.55 1.48 2.325 3.849 2.325 7.104v16.627h-3.86zm26.655 0l-.767-3.628h-.187c-1.27 1.597-2.538 2.678-3.801 3.244-1.264.566-2.841.849-4.733.849-2.526 0-4.507-.651-5.94-1.953-1.435-1.303-2.152-3.155-2.152-5.558 0-5.147 4.116-7.844 12.348-8.092l4.325-.14v-1.581c0-2-.43-3.477-1.29-4.43-.861-.953-2.237-1.43-4.128-1.43-2.124 0-4.527.651-7.209 1.953l-1.186-2.953a18.139 18.139 0 0 1 4.128-1.604 17.876 17.876 0 0 1 4.5-.582c3.038 0 5.29.675 6.755 2.023 1.465 1.349 2.197 3.512 2.197 6.488v17.394h-2.86zm-8.72-2.72c2.403 0 4.29-.66 5.662-1.977 1.372-1.318 2.058-3.163 2.058-5.535V47.4l-3.86.163c-3.07.108-5.283.585-6.639 1.43-1.356.845-2.035 2.159-2.035 3.941 0 1.396.423 2.458 1.268 3.186.845.729 2.027 1.093 3.546 1.093zm22.586 2.72h-3.86V23.75h3.86v36.183zm23.818-6.953c0 2.372-.884 4.201-2.65 5.488-1.768 1.286-4.248 1.93-7.442 1.93-3.38 0-6.015-.535-7.906-1.605v-3.58a19.12 19.12 0 0 0 3.941 1.464c1.403.357 2.756.535 4.058.535 2.015 0 3.566-.322 4.65-.965 1.086-.643 1.629-1.624 1.629-2.942 0-.992-.43-1.84-1.291-2.546-.86-.705-2.539-1.538-5.034-2.5-2.372-.883-4.058-1.654-5.058-2.313-1-.66-1.744-1.407-2.232-2.244-.489-.837-.733-1.837-.733-3 0-2.077.845-3.717 2.535-4.918 1.69-1.202 4.007-1.802 6.953-1.802 2.743 0 5.425.558 8.045 1.674l-1.372 3.14c-2.558-1.055-4.875-1.582-6.953-1.582-1.829 0-3.209.287-4.139.86-.93.574-1.395 1.365-1.395 2.372 0 .682.175 1.264.523 1.744.35.48.911.938 1.686 1.372.775.434 2.264 1.062 4.465 1.884 3.023 1.1 5.065 2.209 6.127 3.325 1.062 1.116 1.593 2.52 1.593 4.209z" fill-rule="nonzero" transform="translate(.083)"/><path d="M77.81 14.356l-2.66 2.473C67.38 8.468 56.54 3.632 44.923 3.632 22.12 3.632 3.632 22.152 3.632 45c0 22.847 18.488 41.368 41.292 41.368 11.527 0 22.29-4.761 30.05-13.01l2.645 2.488C69.182 84.817 57.464 90 44.924 90 20.113 90 0 69.852 0 45S20.113 0 44.924 0C57.561 0 69.36 5.264 77.81 14.356z" fill-rule="nonzero" transform="translate(.083)"/></g></symbol><symbol id="sprite-logo-myalcon" viewBox="0 0 215 90"><title>logo-myalcon</title><path fill="currentColor" d="M98.376 25.435h8.311l14.101 33.5h-9.775l-2.576-6.421H96.162l-2.435 6.42H84.13l14.246-33.5zm4.01 10.286l-3.63 9.669h7.179l-3.55-9.67zm111.395 5.071c.304 1.168.458 2.351.458 3.517v14.625h-8.533V45.972a9.75 9.75 0 0 0-.158-1.776 4.705 4.705 0 0 0-.495-1.427 2.372 2.372 0 0 0-.904-.911c-.388-.224-.895-.338-1.505-.338-.617 0-1.162.117-1.618.349a3.258 3.258 0 0 0-1.146.967c-.314.42-.553.913-.71 1.466a6.394 6.394 0 0 0-.243 1.763v12.87h-8.533v-23.8h8.253v2.425c.153-.19.318-.38.495-.567a7.052 7.052 0 0 1 1.688-1.299c.634-.352 1.33-.643 2.072-.865a8.404 8.404 0 0 1 2.411-.34c1.619 0 3.02.294 4.165.875 1.141.578 2.077 1.34 2.783 2.262a8.85 8.85 0 0 1 1.52 3.166zm-90.95 18.142v-33.5h8.627v33.5h-8.627zm49.659-24.538c7.076 0 12.812 5.658 12.812 12.639 0 6.98-5.736 12.639-12.812 12.639s-12.813-5.659-12.813-12.64c0-6.98 5.737-12.638 12.813-12.638zm5.116 12.639c0-2.787-2.291-5.047-5.116-5.047-2.826 0-5.116 2.26-5.116 5.047s2.29 5.047 5.116 5.047c2.825 0 5.116-2.26 5.116-5.047zm-28.76 5.046a5.124 5.124 0 0 0 4.34-2.381l4.985 5.999a12.856 12.856 0 0 1-9.324 3.975c-7.076 0-12.813-5.659-12.813-12.64 0-6.98 5.737-12.639 12.813-12.639 3.704 0 7.04 1.553 9.379 4.033l-5.107 5.834a5.128 5.128 0 0 0-4.272-2.274c-2.826 0-5.116 2.26-5.116 5.047s2.29 5.046 5.116 5.046z"/><path d="M39.583 60.082L27.987 30.236H27.8c.218 2.364.327 5.174.327 8.429v21.417h-3.67V26.413h5.985l10.824 27.774h.187l10.918-27.774h5.938v33.67h-3.974V38.387c0-2.487.109-5.189.327-8.106h-.187l-11.69 29.8h-3.202zm23.449-25.24h4.161l5.611 14.393c1.231 3.286 1.995 5.658 2.291 7.117h.187c.203-.783.628-2.123 1.274-4.019.647-1.896 2.763-7.726 6.348-17.491h4.161L76.054 63.583c-1.091 2.84-2.365 4.855-3.823 6.045-1.457 1.19-3.245 1.785-5.365 1.785a15.84 15.84 0 0 1-3.507-.391v-3.063c.857.184 1.816.276 2.876.276 2.665 0 4.566-1.474 5.704-4.422l1.426-3.592-10.333-25.38z"/><path d="M78.26 14.356l-2.675 2.473c-7.816-8.361-18.717-13.197-30.4-13.197C22.247 3.632 3.652 22.152 3.652 45c0 22.847 18.595 41.368 41.531 41.368a41.468 41.468 0 0 0 30.224-13.01l2.661 2.488A45.13 45.13 0 0 1 45.184 90C20.23 90 0 69.852 0 45S20.229 0 45.184 0a45.14 45.14 0 0 1 33.077 14.356z"/></symbol><symbol id="sprite-menu" viewBox="0 0 25 25"><title>menu</title><path d="M3.6 15.1C2.2 15.1 1 14 1 12.5s1.1-2.6 2.6-2.6 2.6 1.1 2.6 2.6-1.2 2.6-2.6 2.6zm8.9 0c-1.4 0-2.6-1.1-2.6-2.6s1.1-2.6 2.6-2.6 2.6 1.1 2.6 2.6-1.2 2.6-2.6 2.6zm8.9 0c-1.4 0-2.6-1.1-2.6-2.6s1.1-2.6 2.6-2.6S24 11 24 12.5s-1.1 2.6-2.6 2.6z" fill="currentColor"/></symbol><symbol id="sprite-offers" viewBox="0 0 30 30"><title>offers</title><style>.st0{fill-rule:evenodd;clip-rule:evenodd}</style><path class="st0" d="M27.9 13.4l-5-8.7c-.6-1-1.8-1.3-2.7-.7l-13 7.5 1 1.7-.9.5-1-1.7-3.5 2c-1 .6-1.3 1.8-.7 2.7l5 8.7c.6 1 1.8 1.3 2.7.7l3.5-2-1-1.7.9-.5 1 1.7 13-7.5c.9-.5 1.2-1.8.7-2.7zM7.8 14.5l.9-.5 1 1.8-.9.5-1-1.8zm1.5 2.6l.9-.5 1 1.7-.9.5-1-1.7zm2.5 4.4l-1-1.7.9-.5 1 1.7-.9.5zm4.8-6.8c-.8.4-2-.1-2.6-1.2-.6-1.1-.4-2.3.4-2.8.8-.4 2 .1 2.6 1.2.6 1.1.4 2.3-.4 2.8zm2.3 1.9l-1 .6V9l1-.6v8.2zm3.4-1.8c-.8.4-2-.1-2.6-1.2s-.4-2.3.4-2.8c.8-.4 2 .1 2.6 1.2s.4 2.3-.4 2.8z" fill="currentColor"/><path class="st0" d="M14.9 11.7c-.2.1-.1.7.2 1.3.3.6.7 1 1 .8.2-.1.1-.7-.2-1.3-.3-.6-.8-1-1-.8zm5.7 0c-.2.1-.1.7.2 1.3.3.6.7 1 1 .8.2-.1.1-.7-.2-1.3-.3-.5-.8-.9-1-.8z" fill="currentColor"/></symbol><symbol id="sprite-pin" viewBox="0 0 25 25"><title>pin</title><path d="M12.5 24l-.4-.4C6.2 18 3.3 13.5 3.3 10.2 3.3 5.1 7.4 1 12.5 1s9.2 4.1 9.2 9.2c0 3.3-2.9 7.8-8.8 13.4l-.4.4zm0-21.7c-4.4 0-7.9 3.6-7.9 7.9 0 2 1.4 5.7 7.9 12.1 6.6-6.4 7.9-10.1 7.9-12.1 0-4.4-3.5-7.9-7.9-7.9zm0 11.6c-2.5 0-4.6-2.1-4.6-4.6s2.1-4.6 4.6-4.6 4.6 2.1 4.6 4.6-2.1 4.6-4.6 4.6zm0-7.9c-1.8 0-3.3 1.5-3.3 3.3s1.5 3.3 3.3 3.3 3.3-1.5 3.3-3.3S14.3 6 12.5 6z"/></symbol><symbol id="sprite-play" viewBox="0 0 25 25"><title>play</title><path d="M2.7 24V1l19.6 11.5L2.7 24zM4.2 3.6v17.8l15.2-8.9L4.2 3.6z" fill="currentColor"/></symbol><symbol id="sprite-prepare" viewBox="0 0 25 25"><title>prepare</title><path d="M17.5 15.9V3.1H3.3v14.8c0 .1.1.1.2.1h13.9c.1 0 .1-.1.1-.1v-2zm2.2-11.4h1.9c1.3 0 2.3 1 2.3 2.3v6.8c0 1.3-1 2.3-2.3 2.3h-1.9v2c0 1.3-1 2.3-2.3 2.3H3.5c-1.3 0-2.3-1-2.3-2.3V1h18.5v3.5zm0 2.2v7.1h1.9c.1 0 .1-.1.1-.1V6.8c0-.1-.1-.1-.1-.1h-1.9zM1.2 22.3h18.5V24H1.2v-1.7z"/></symbol><symbol id="sprite-research" viewBox="0 0 25 25"><title>research</title><path d="M13.5 14.6c-3 2.4-7.5 2.3-10.3-.5C1.8 12.6 1 10.7 1 8.7c0-2 .8-4 2.2-5.4C4.7 1.8 6.6 1 8.7 1s4 .8 5.4 2.2c1.4 1.4 2.2 3.4 2.2 5.4 0 1.8-.6 3.4-1.7 4.8l1.2 1.2 1.1-1.1 7.1 7.1-3.4 3.4-7.1-7.1 1.1-1.1-1.1-1.2zm2.3 2.3l4.9 4.9 1.1-1.1-4.9-4.9-1.1 1.1zm-2.9-4c1.1-1.1 1.8-2.6 1.8-4.2s-.6-3.1-1.8-4.2c-1.1-1.1-2.6-1.8-4.2-1.8s-3.1.6-4.3 1.7C3.3 5.6 2.7 7.1 2.7 8.7c0 1.6.6 3.1 1.8 4.2a5.8 5.8 0 0 0 8.4 0zM8.3 6.2c-.6 0-1.1-.5-1.1-1.1 0-.6.5-1.1 1.1-1.1.6 0 1.1.5 1.1 1.1-.1.6-.5 1.1-1.1 1.1zm2.6.5c-.3 0-.5-.2-.5-.5s.2-.5.5-.5.5.2.5.5-.2.5-.5.5z"/></symbol><symbol id="sprite-schedule" viewBox="0 0 25 25"><title>schedule</title><path d="M12.5 22.3c5.4 0 9.8-4.4 9.8-9.8s-4.4-9.8-9.8-9.8-9.8 4.4-9.8 9.8 4.4 9.8 9.8 9.8zm0 1.7C6.1 24 1 18.9 1 12.5S6.1 1 12.5 1 24 6.1 24 12.5 18.9 24 12.5 24zm-.9-17.8h1.7v7.2l-4.2 4.3-1.2-1.2 3.7-3.8V6.2z"/></symbol><symbol id="sprite-search" viewBox="0 0 25 25"><title>search</title><path d="M13.5 14.6c-3 2.4-7.5 2.3-10.3-.5C1.8 12.6 1 10.7 1 8.7c0-2 .8-4 2.2-5.4C4.7 1.8 6.6 1 8.7 1s4 .8 5.4 2.2c1.4 1.4 2.2 3.4 2.2 5.4 0 1.8-.6 3.4-1.7 4.8l1.2 1.2 1.1-1.1 7.1 7.1-3.4 3.4-7.1-7.1 1.1-1.1-1.1-1.2zm-.6-1.7c1.1-1.1 1.8-2.6 1.8-4.2s-.6-3.1-1.8-4.2c-1.1-1.1-2.6-1.8-4.2-1.8s-3.1.6-4.3 1.7C3.3 5.6 2.7 7.1 2.7 8.7c0 1.6.6 3.1 1.8 4.2a5.8 5.8 0 0 0 8.4 0zM8.3 6.2c-.6 0-1.1-.5-1.1-1.1S7.7 4 8.3 4s1.1.5 1.1 1.1-.5 1.1-1.1 1.1zm2.6.5c-.3 0-.5-.2-.5-.5s.2-.5.5-.5.5.2.5.5c.1.3-.2.5-.5.5z"/></symbol><symbol id="sprite-shop" viewBox="0 0 25 25"><title>shop</title><path d="M9.6 19.1c-1.1 0-1.9.9-1.9 1.9 0 1.1.9 1.9 1.9 1.9s1.9-.9 1.9-1.9c0-1.1-.9-1.9-1.9-1.9zm0 2.3c-.2 0-.4-.2-.4-.4s.2-.4.4-.4.4.1.4.4c0 .2-.2.4-.4.4zM21 19.1c-1.1 0-1.9.9-1.9 1.9 0 1.1.9 1.9 1.9 1.9s2-.9 2-1.9c0-1.1-.9-1.9-2-1.9zm0 2.3c-.2 0-.4-.2-.4-.4s.2-.4.4-.4.4.2.4.4c.1.2-.1.4-.4.4zm-10.5-4.3l-1-3.1H22l.7-3.3L24 5.6H6.8l-.6-2-.6-1.5H1v1.5h3.6l.7 2.1 4 12.4.2.5h12.9l.7-.8-.7-.7H10.5zm-3.2-10H22l-.5 2.1H8l-.7-2.1zM9 12.5l-.6-1.8h12.8l-.4 1.8H9z" fill="currentColor"/></symbol><symbol id="sprite-time" viewBox="0 0 25 25"><title>time</title><path d="M18.1 3.7V2.4H6.9v1.4h11.2zM6.9 6.6c0 1.1 1 2.3 2.9 3.6.6.4 1.3.8 2.1 1.2.2.1.5.2.7.3.2-.1.4-.2.7-.3.7-.4 1.5-.8 2.1-1.2 1.9-1.3 2.9-2.5 2.9-3.6V5.1H6.9v1.5zm14.4 16V24H3.7v-1.4h1.8v-4.3c0-1.6 1.2-3.2 3.5-4.7.6-.4 1.3-.8 2-1.2-.7-.4-1.4-.8-2-1.2-2.3-1.4-3.5-3-3.5-4.6V2.4H3.7V1h17.6v1.4h-1.8v4.2c0 1.6-1.2 3.2-3.5 4.7-.6.4-1.3.8-2 1.2.7.4 1.4.8 2 1.2 2.3 1.5 3.5 3.1 3.5 4.7v4.3h1.8zm-14.4 0h11.3v-4.3c0-1.1-1-2.3-2.9-3.6-.6-.4-1.3-.8-2.1-1.2-.2-.1-.5-.2-.7-.3-.2.1-.4.2-.7.3-.7.4-1.5.8-2.1 1.2-1.9 1.3-2.9 2.5-2.9 3.6v4.3z"/></symbol><symbol id="sprite-user" viewBox="0 0 25 25"><title>user</title><path d="M12.5 1c2.3 0 4.1 1.8 4.1 4.1v1.4c0 2.3-1.8 4.1-4.1 4.1S8.4 8.7 8.4 6.5V5.1c0-2.3 1.8-4.1 4.1-4.1zM9.2 12.5h6.6c1.5 0 2.8 1.1 3 2.5l.8 4.3c.3 1.4-.5 2.9-1.9 3.4l-1.5.6c-2.4 1-5.1 1-7.6 0l-1.5-.6c-1.4-.6-2.1-2-1.9-3.4l1-4.3c.2-1.5 1.5-2.5 3-2.5z"/></symbol><symbol id="sprite-youtube-circled" viewBox="0 0 25 25"><title>youtube-circled</title><path d="M10.9 14.8l4.1-2.3-4.1-2.3z"/><path d="M12.5 0C5.6 0 0 5.6 0 12.5S5.6 25 12.5 25 25 19.4 25 12.5 19.4 0 12.5 0zm7.8 12.5s0 2.5-.3 3.8c-.2.7-.7 1.2-1.4 1.4-1.2.3-6.1.3-6.1.3s-4.9 0-6.1-.3c-.7-.2-1.2-.7-1.4-1.4-.3-1.2-.3-3.8-.3-3.8s0-2.5.3-3.8c.2-.7.7-1.2 1.4-1.4C7.6 7 12.5 7 12.5 7s4.9 0 6.1.3c.7.2 1.2.7 1.4 1.4.3 1.3.3 3.8.3 3.8z"/></symbol></svg>