<svg width="152px" height="40px" viewBox="0 0 152 40" version="1.1" xmlns="http://www.w3.org/2000/svg" xmlns:xlink="http://www.w3.org/1999/xlink">
    <g id="Symbols" stroke="none" stroke-width="1" fill="none" fill-rule="evenodd">
        <g id="Brands/Air-Optix/Gold" fill-rule="nonzero">
            <g id="Air-Optix-Colors_Logo_Gold">
                <path d="M144.4,3.76 C144.4,5.68 145.92,7.2 147.84,7.2 C149.76,7.2 151.28,5.68 151.28,3.76 C151.28,1.84 149.76,0.32 147.84,0.32 C145.92,0.32 144.4,1.92 144.4,3.76 L144.4,3.76 Z M144.8,3.76 C144.8,2.08 146.16,0.72 147.84,0.72 C149.52,0.72 150.88,2.08 150.88,3.76 C150.88,5.44 149.52,6.8 147.84,6.8 C146.16,6.88 144.8,5.44 144.8,3.76 L144.8,3.76 Z M62.56,1.2 C61.28,1.68 60.08,2.32 59.2,3.2 C58.24,4.08 57.52,5.12 56.96,6.4 C56.4,7.68 56.16,9.12 56.16,10.72 C56.16,12.32 56.4,13.76 56.96,15.04 C57.52,16.32 58.24,17.36 59.2,18.24 C60.16,19.12 61.28,19.76 62.56,20.16 C63.92,20.56 65.36,20.8 66.88,20.8 C68.48,20.8 69.92,20.56 71.28,20.16 C72.56,19.76 73.76,19.12 74.72,18.24 C75.68,17.36 76.4,16.32 76.96,15.04 C77.52,13.76 77.76,12.32 77.76,10.72 C77.76,9.12 77.52,7.68 76.96,6.4 C76.4,5.12 75.68,4.08 74.72,3.2 C73.76,2.32 72.64,1.68 71.28,1.2 C69.92,0.72 68.48,0.48 66.88,0.48 C65.28,0.48 63.84,0.72 62.56,1.2 L62.56,1.2 Z M63.76,19.28 C62.8,18.96 61.92,18.4 61.2,17.6 C60.48,16.88 59.92,15.92 59.52,14.72 C59.12,13.6 58.88,12.24 58.88,10.64 C58.88,9.04 59.04,7.68 59.52,6.56 C59.92,5.44 60.48,4.48 61.2,3.68 C61.92,2.96 62.8,2.4 63.76,2 C64.72,1.68 65.76,1.44 66.88,1.44 C68,1.44 69.04,1.6 70,2 C70.96,2.32 71.84,2.88 72.56,3.68 C73.28,4.4 73.84,5.36 74.24,6.56 C74.64,7.68 74.88,9.04 74.88,10.64 C74.88,12.24 74.64,13.6 74.24,14.72 C73.84,15.84 73.28,16.8 72.56,17.6 C71.84,18.32 70.96,18.88 70,19.28 C69.04,19.6 68,19.84 66.88,19.84 C65.76,19.84 64.72,19.68 63.76,19.28 L63.76,19.28 Z M9.52,0.48 C8,3.84 6.56,7.2 5.04,10.48 C3.6,13.76 2.08,17.04 0.48,20.4 C0.8,20.32 1.12,20.32 1.52,20.32 C1.92,20.32 2.24,20.32 2.56,20.4 C2.8,19.52 3.2,18.4 3.68,17.04 C4.16,15.68 4.72,14.32 5.36,12.8 C5.92,12.8 6.56,12.8 7.12,12.72 C7.68,12.64 8.24,12.72 8.88,12.72 C9.52,12.72 10.16,12.72 10.8,12.72 C11.44,12.72 12.08,12.72 12.64,12.8 C12.88,13.44 13.12,14.08 13.44,14.8 C13.76,15.52 14,16.16 14.32,16.88 C14.56,17.52 14.88,18.24 15.12,18.8 C15.36,19.44 15.52,19.92 15.68,20.4 C15.92,20.32 16.24,20.32 16.48,20.32 L17.28,20.32 L18.08,20.32 C18.32,20.32 18.56,20.32 18.8,20.4 C18.56,19.92 18.24,19.28 17.84,18.4 C17.44,17.52 17.04,16.56 16.48,15.44 C16,14.32 15.44,13.12 14.88,11.84 C14.32,10.56 13.76,9.28 13.2,7.92 C12.64,6.64 12.08,5.28 11.6,4 C11.04,2.72 10.56,1.52 10.08,0.4 L9.52,0.4 L9.52,0.48 Z M7.52,11.6 C6.96,11.6 6.48,11.6 6,11.6 L9.12,4.4 L12.32,11.6 C11.76,11.6 11.28,11.6 10.72,11.68 C10.16,11.68 9.68,11.68 9.12,11.68 C8.56,11.6 8.08,11.6 7.52,11.6 L7.52,11.6 Z M121.44,0.96 C121.2,0.96 120.96,1.04 120.72,1.04 C120.48,1.04 120.24,1.04 120,0.96 C119.76,0.96 119.52,0.88 119.28,0.88 C119.36,2.16 119.36,3.36 119.44,4.56 C119.44,5.76 119.52,6.96 119.52,8.24 L119.52,13.12 C119.52,14.4 119.52,15.6 119.44,16.8 C119.36,18 119.36,19.2 119.28,20.4 C119.76,20.32 120.16,20.32 120.72,20.32 C121.2,20.32 121.68,20.32 122.16,20.4 C122.08,19.2 122.08,18 122,16.8 C121.92,15.6 121.92,14.32 121.92,13.12 L121.92,8.24 C121.92,6.96 121.92,5.76 122,4.56 C122.08,3.36 122.08,2.16 122.16,0.88 C121.92,0.88 121.68,0.96 121.44,0.96 L121.44,0.96 Z M110.48,0.96 C109.28,0.96 108.08,1.04 106.8,1.04 C105.52,1.04 104.32,1.04 103.12,0.96 C101.92,0.96 100.72,0.88 99.44,0.88 C99.52,1.28 99.6,1.6 99.6,1.76 C99.6,2 99.52,2.32 99.44,2.64 C99.84,2.56 100.32,2.56 100.8,2.48 C101.28,2.4 101.84,2.4 102.4,2.4 C102.96,2.4 103.52,2.32 104,2.32 C104.56,2.32 105.04,2.32 105.6,2.32 C105.68,4.24 105.68,6.24 105.68,8.24 L105.68,13.12 C105.68,14.4 105.68,15.6 105.6,16.8 C105.52,18 105.52,19.2 105.44,20.4 C105.84,20.32 106.32,20.32 106.88,20.32 C107.36,20.32 107.84,20.32 108.32,20.4 C108.24,19.2 108.24,18 108.16,16.8 C108.08,15.6 108.08,14.32 108.08,13.12 L108.08,8.24 C108.08,6.24 108.08,4.32 108.16,2.32 C108.64,2.32 109.2,2.32 109.76,2.32 C110.32,2.32 110.88,2.32 111.36,2.4 C111.92,2.4 112.4,2.48 112.96,2.48 C113.44,2.48 113.92,2.56 114.32,2.64 C114.24,2.32 114.16,2 114.16,1.76 C114.16,1.52 114.24,1.2 114.32,0.88 C112.96,0.88 111.68,0.96 110.48,0.96 L110.48,0.96 Z M25.84,0.96 C25.6,0.96 25.36,1.04 25.12,1.04 C24.88,1.04 24.64,1.04 24.4,0.96 C24.16,0.96 23.92,0.88 23.68,0.88 C23.76,2.16 23.76,3.36 23.84,4.56 C23.92,5.76 23.92,6.96 23.92,8.24 L23.92,13.12 C23.92,14.4 23.92,15.6 23.84,16.8 C23.76,18 23.76,19.2 23.68,20.4 C24.08,20.32 24.56,20.32 25.12,20.32 C25.6,20.32 26.08,20.32 26.56,20.4 C26.48,19.2 26.48,18 26.4,16.8 C26.32,15.6 26.32,14.32 26.32,13.12 L26.32,8.24 C26.32,6.96 26.32,5.76 26.4,4.56 C26.48,3.36 26.48,2.16 26.56,0.88 C26.32,0.88 26.08,0.96 25.84,0.96 L25.84,0.96 Z M141.76,1.04 C141.44,1.04 141.12,0.96 140.72,0.88 C139.92,2.32 139.12,3.68 138.4,4.88 C137.68,6.08 136.8,7.36 135.92,8.64 C135.04,7.2 134.24,5.84 133.52,4.64 C132.8,3.36 132.08,2.16 131.44,0.88 C131.2,0.96 130.88,0.96 130.64,0.96 C130.4,0.96 130.16,1.04 129.84,1.04 C129.6,1.04 129.28,1.04 129.04,0.96 C128.8,0.96 128.56,0.88 128.24,0.88 C129.28,2.56 130.32,4.24 131.36,5.84 C132.4,7.44 133.36,9.12 134.4,10.8 C133.28,12.48 132.24,14.08 131.12,15.76 C130,17.36 128.88,18.96 127.76,20.56 C127.92,20.48 128.16,20.48 128.32,20.48 L128.8,20.48 L129.28,20.48 C129.44,20.48 129.68,20.48 129.84,20.56 C130.64,19.2 131.44,17.76 132.32,16.32 C133.2,14.88 134.08,13.44 135.04,12 C136,13.44 136.88,14.88 137.6,16.32 C138.32,17.76 139.12,19.2 139.92,20.56 C140.16,20.48 140.48,20.48 140.72,20.48 L141.52,20.48 L142.32,20.48 C142.56,20.48 142.88,20.48 143.12,20.56 C142,18.8 140.88,17.04 139.76,15.28 C138.64,13.52 137.6,11.68 136.48,9.84 C137.44,8.32 138.48,6.8 139.52,5.36 C140.56,3.92 141.68,2.48 142.72,0.96 C142.4,0.96 142.08,1.04 141.76,1.04 L141.76,1.04 Z M88.96,0.88 C88.64,0.88 88.32,0.88 88,0.88 C87.68,0.88 87.36,0.88 87.04,0.96 C86.72,0.96 86.4,0.96 86.24,0.96 C85.76,0.96 85.28,0.96 84.88,0.88 C84.4,0.88 83.92,0.8 83.52,0.8 C83.6,2.08 83.6,3.28 83.68,4.48 C83.76,5.68 83.76,6.88 83.76,8.16 L83.76,13.04 C83.76,14.32 83.76,15.52 83.68,16.72 C83.6,17.92 83.6,19.12 83.52,20.32 C84,20.24 84.4,20.24 84.96,20.24 C85.44,20.24 85.92,20.24 86.4,20.32 C86.32,19.12 86.32,17.92 86.24,16.72 C86.16,15.52 86.16,14.24 86.16,13.04 L86.16,11.44 C86.56,11.44 86.96,11.52 87.28,11.52 C87.68,11.52 88.08,11.52 88.48,11.52 C89.2,11.52 89.92,11.44 90.88,11.28 C91.76,11.12 92.64,10.8 93.44,10.4 C94.24,10 94.88,9.36 95.44,8.56 C96,7.76 96.24,6.8 96.24,5.52 C96.24,4.72 96.16,4.08 95.92,3.52 C95.68,2.96 95.36,2.56 95.04,2.16 C94.64,1.76 94.24,1.52 93.76,1.36 C93.28,1.2 92.8,1.04 92.4,0.96 C91.92,0.88 91.52,0.8 91.04,0.8 C90.64,0.8 90.24,0.8 90,0.8 C89.52,0.88 89.28,0.88 88.96,0.88 L88.96,0.88 Z M86,10.4 L86,1.92 L88.56,1.92 C89.28,1.92 90,2 90.56,2.08 C91.12,2.16 91.68,2.4 92.08,2.64 C92.48,2.88 92.8,3.36 93.04,3.84 C93.28,4.32 93.36,5.04 93.36,5.84 C93.36,6.8 93.2,7.6 92.88,8.24 C92.56,8.88 92.08,9.36 91.6,9.68 C91.04,10 90.48,10.24 89.84,10.4 C89.2,10.56 88.56,10.64 88,10.64 C87.36,10.64 86.64,10.56 86,10.4 L86,10.4 Z M38.64,0.96 C38.08,1.04 37.6,1.04 37.04,1.04 C36.48,1.04 35.92,1.04 35.44,0.96 C34.88,0.96 34.32,0.88 33.84,0.88 C33.92,2.16 33.92,3.36 34,4.56 C34.08,5.76 34.08,6.96 34.08,8.24 L34.08,13.12 C34.08,14.4 34.08,15.6 34,16.8 C33.92,18 33.92,19.2 33.84,20.4 C34.24,20.32 34.72,20.32 35.28,20.32 C35.76,20.32 36.24,20.32 36.72,20.4 C36.64,19.2 36.64,18 36.56,16.8 C36.48,15.6 36.48,14.32 36.48,13.12 L36.48,11.04 L37.6,11.04 C38.24,11.68 38.88,12.4 39.6,13.36 C40.32,14.24 41.04,15.2 41.76,16.08 C42.48,16.96 43.12,17.84 43.68,18.64 C44.24,19.44 44.72,20 44.96,20.48 C45.2,20.4 45.52,20.4 45.76,20.4 L46.56,20.4 L47.44,20.4 C47.76,20.4 48,20.4 48.32,20.48 C48.08,20.24 47.68,19.84 47.28,19.28 C46.88,18.8 46.4,18.24 45.84,17.6 C45.36,16.96 44.8,16.32 44.32,15.68 C43.76,15.04 43.28,14.4 42.8,13.76 C42.32,13.12 41.84,12.56 41.44,12.08 C41.04,11.6 40.72,11.2 40.48,10.88 C41.04,10.8 41.68,10.64 42.32,10.4 C43.04,10.16 43.6,9.84 44.24,9.44 C44.8,9.04 45.36,8.48 45.76,7.84 C46.16,7.2 46.4,6.4 46.4,5.52 C46.4,4.64 46.24,3.92 45.92,3.36 C45.6,2.8 45.2,2.32 44.64,2 C44.08,1.68 43.44,1.36 42.72,1.2 C42,1.04 41.2,0.96 40.4,0.96 C39.76,0.88 39.2,0.88 38.64,0.96 L38.64,0.96 Z M37.2,10 C36.88,10 36.56,9.92 36.32,9.92 L36.32,8.32 C36.32,7.28 36.32,6.24 36.4,5.2 C36.4,4.16 36.48,3.12 36.48,2.08 C36.8,2.08 37.12,2 37.6,2 C38,2 38.56,1.92 39.28,1.92 C39.76,1.92 40.32,2 40.8,2.08 C41.28,2.16 41.76,2.4 42.24,2.64 C42.64,2.88 43.04,3.28 43.28,3.76 C43.52,4.24 43.68,4.88 43.68,5.6 C43.68,6.48 43.52,7.2 43.12,7.76 C42.8,8.32 42.32,8.8 41.76,9.12 C41.2,9.44 40.64,9.68 40,9.84 C39.36,10 38.72,10 38.16,10 C37.84,10 37.52,10 37.2,10 L37.2,10 Z M147.28,1.6 C147.04,1.6 146.72,1.6 146.48,1.52 C146.56,1.84 146.56,2.4 146.56,2.8 L146.56,4.4 C146.56,4.88 146.56,5.28 146.48,5.76 C146.56,5.76 146.72,5.68 146.8,5.68 C146.88,5.68 146.96,5.68 147.12,5.76 C147.12,5.28 147.04,4.88 147.04,4.4 L147.04,3.76 L147.36,3.76 C147.92,4.48 148.4,5.12 148.88,5.84 C149.04,5.84 149.12,5.76 149.28,5.76 C149.36,5.76 149.52,5.76 149.68,5.84 L149.68,5.76 C149.28,5.44 148.48,4.32 148,3.68 C148.48,3.68 149.28,3.28 149.28,2.48 C149.28,1.84 148.72,1.52 148.08,1.52 C147.76,1.6 147.52,1.6 147.28,1.6 L147.28,1.6 Z M147.04,3.52 L147.04,2.72 C147.04,2.4 147.04,2.08 147.12,1.84 C147.28,1.84 147.52,1.76 147.76,1.76 C148.24,1.76 148.64,2.08 148.64,2.56 C148.64,3.28 148.08,3.52 147.44,3.52 C147.28,3.6 147.12,3.6 147.04,3.52 L147.04,3.52 Z" id="Shape" fill="#E5A812"></path>
                <path d="M5.04,26.72 C4.16,27.04 3.44,27.44 2.8,28.08 C2.16,28.64 1.68,29.36 1.36,30.24 C1.04,31.04 0.8,32 0.8,33.12 C0.8,34.24 0.96,35.2 1.36,36 C1.68,36.88 2.16,37.52 2.8,38.16 C3.44,38.72 4.16,39.2 5.04,39.44 C5.92,39.76 6.8,39.84 7.84,39.84 C8.32,39.84 8.8,39.84 9.2,39.76 C9.6,39.68 10,39.6 10.4,39.52 C10.72,39.44 11.04,39.28 11.28,39.2 C11.52,39.04 11.68,38.96 11.84,38.88 L12,37.76 L11.92,37.68 C11.76,37.84 11.52,38 11.28,38.16 C11.04,38.32 10.72,38.48 10.4,38.64 C10.08,38.8 9.68,38.96 9.36,39.04 C8.96,39.12 8.56,39.2 8.08,39.2 C7.36,39.2 6.64,39.12 6,38.88 C5.36,38.64 4.8,38.24 4.32,37.76 C3.84,37.28 3.44,36.64 3.2,35.84 C2.96,35.04 2.8,34.16 2.8,33.12 C2.8,32.08 2.96,31.2 3.2,30.4 C3.44,29.6 3.84,29.04 4.32,28.48 C4.8,28 5.36,27.6 6,27.36 C6.64,27.12 7.36,26.96 8.08,26.96 C8.56,26.96 8.96,27.04 9.36,27.12 C9.76,27.2 10.08,27.36 10.4,27.6 C10.72,27.76 10.96,27.92 11.2,28.16 C11.44,28.32 11.6,28.56 11.76,28.64 L11.84,28.64 C11.84,28.4 11.92,28.16 12,27.92 C12.08,27.6 12.16,27.36 12.24,27.2 C11.68,26.96 11.12,26.72 10.4,26.56 C9.68,26.4 8.96,26.32 8.08,26.32 C6.88,26.24 5.92,26.4 5.04,26.72 M69.44,26.48 C68.96,26.64 68.48,26.88 68.16,27.2 C67.76,27.52 67.52,27.92 67.36,28.32 C67.2,28.72 67.04,29.28 67.04,29.76 C67.04,30.48 67.2,31.12 67.52,31.52 C67.84,32 68.16,32.32 68.64,32.64 C69.12,32.96 69.6,33.2 70.08,33.36 C70.56,33.52 71.04,33.76 71.52,34 C72,34.24 72.32,34.48 72.64,34.88 C72.96,35.2 73.12,35.68 73.12,36.24 C73.12,36.64 73.04,36.96 72.96,37.28 C72.8,37.6 72.64,37.92 72.4,38.16 C72.16,38.4 71.84,38.64 71.52,38.72 C71.2,38.88 70.8,38.96 70.4,38.96 C70,38.96 69.6,38.88 69.28,38.8 C68.96,38.64 68.64,38.56 68.4,38.32 C68.16,38.16 67.92,37.92 67.76,37.68 C67.6,37.44 67.44,37.2 67.36,36.96 L67.12,36.96 C67.12,37.36 67.04,37.6 66.96,37.84 C66.88,38.08 66.8,38.32 66.72,38.64 C67.04,38.88 67.44,39.12 67.92,39.36 C68.4,39.6 69.04,39.68 69.84,39.68 C70.56,39.68 71.28,39.6 71.84,39.36 C72.4,39.12 72.88,38.88 73.28,38.48 C73.68,38.08 74,37.68 74.16,37.12 C74.4,36.56 74.48,36.08 74.48,35.44 C74.48,34.72 74.32,34.16 74,33.76 C73.68,33.36 73.36,33.04 72.88,32.72 C72.4,32.48 71.92,32.24 71.44,32.08 C70.96,31.92 70.48,31.68 70,31.44 C69.52,31.2 69.2,30.88 68.88,30.56 C68.56,30.24 68.4,29.76 68.4,29.12 C68.4,28.8 68.48,28.48 68.56,28.16 C68.72,27.84 68.88,27.6 69.04,27.44 C69.28,27.2 69.52,27.04 69.84,26.96 C70.16,26.88 70.48,26.8 70.8,26.8 C71.12,26.8 71.44,26.88 71.68,26.96 C71.92,27.04 72.16,27.2 72.32,27.44 C72.48,27.6 72.64,27.84 72.72,28 C72.8,28.24 72.88,28.4 72.96,28.56 L73.2,28.56 C73.28,28.16 73.36,27.92 73.44,27.68 C73.52,27.44 73.6,27.2 73.76,26.96 C73.36,26.64 72.96,26.4 72.48,26.32 C72,26.16 71.52,26.08 70.88,26.08 C70.56,26.24 70,26.32 69.44,26.48 M43.28,26.72 C42.4,27.04 41.68,27.44 41.04,28.08 C40.4,28.64 39.92,29.36 39.6,30.24 C39.28,31.04 39.04,32 39.04,33.12 C39.04,34.24 39.2,35.2 39.6,36 C39.92,36.88 40.48,37.52 41.04,38.16 C41.68,38.72 42.4,39.2 43.28,39.44 C44.16,39.76 45.12,39.84 46.16,39.84 C47.2,39.84 48.16,39.68 49.04,39.44 C49.92,39.12 50.64,38.72 51.28,38.16 C51.92,37.6 52.4,36.88 52.72,36 C53.04,35.2 53.28,34.24 53.28,33.12 C53.28,32.08 53.12,31.12 52.72,30.24 C52.4,29.36 51.92,28.72 51.28,28.08 C50.64,27.52 49.92,27.04 49.04,26.72 C48.16,26.4 47.2,26.24 46.16,26.24 C45.12,26.24 44.16,26.4 43.28,26.72 M44.08,38.8 C43.44,38.56 42.88,38.16 42.4,37.68 C41.92,37.2 41.52,36.56 41.28,35.76 C41.04,34.96 40.88,34.08 40.88,33.04 C40.88,32 41.04,31.12 41.28,30.32 C41.52,29.52 41.92,28.96 42.4,28.4 C42.88,27.92 43.44,27.52 44.08,27.28 C44.72,27.04 45.44,26.88 46.16,26.88 C46.88,26.88 47.6,27.04 48.24,27.28 C48.88,27.52 49.44,27.92 49.92,28.4 C50.4,28.88 50.8,29.52 51.04,30.32 C51.28,31.12 51.44,32 51.44,33.04 C51.44,34.08 51.28,35.04 51.04,35.76 C50.8,36.56 50.4,37.12 49.92,37.68 C49.44,38.16 48.88,38.56 48.24,38.8 C47.6,39.04 46.88,39.12 46.16,39.12 C45.44,39.12 44.72,39.04 44.08,38.8 M17.84,26.72 C16.96,27.04 16.24,27.44 15.6,28.08 C14.96,28.64 14.48,29.36 14.16,30.24 C13.84,31.04 13.6,32 13.6,33.12 C13.6,34.24 13.76,35.2 14.16,36 C14.48,36.88 14.96,37.52 15.6,38.16 C16.24,38.72 16.96,39.2 17.84,39.44 C18.72,39.76 19.68,39.84 20.72,39.84 C21.76,39.84 22.72,39.68 23.6,39.44 C24.48,39.12 25.2,38.72 25.84,38.16 C26.48,37.6 26.96,36.88 27.28,36 C27.6,35.2 27.84,34.24 27.84,33.12 C27.84,32.08 27.68,31.12 27.28,30.24 C26.96,29.36 26.4,28.72 25.84,28.08 C25.2,27.52 24.48,27.04 23.6,26.72 C22.72,26.4 21.76,26.24 20.72,26.24 C19.68,26.24 18.72,26.4 17.84,26.72 M18.64,38.8 C18,38.56 17.44,38.16 16.96,37.68 C16.48,37.2 16.08,36.56 15.84,35.76 C15.6,34.96 15.44,34.08 15.44,33.04 C15.44,32 15.6,31.12 15.84,30.32 C16.08,29.52 16.48,28.96 16.96,28.4 C17.44,27.92 18,27.52 18.64,27.28 C19.28,27.04 20,26.88 20.72,26.88 C21.44,26.88 22.16,27.04 22.8,27.28 C23.44,27.52 24,27.92 24.48,28.4 C24.96,28.88 25.36,29.52 25.6,30.32 C25.84,31.12 26,32 26,33.04 C26,34.08 25.84,35.04 25.6,35.76 C25.36,36.56 24.96,37.12 24.48,37.68 C24,38.16 23.44,38.56 22.8,38.8 C22.16,39.04 21.44,39.12 20.72,39.12 C19.92,39.12 19.28,39.04 18.64,38.8 M31.76,26.56 C31.6,26.56 31.44,26.56 31.28,26.56 C31.12,26.56 30.96,26.56 30.8,26.56 C30.64,26.56 30.48,26.48 30.32,26.48 C30.32,27.28 30.4,28.16 30.4,28.96 C30.4,29.76 30.48,30.56 30.48,31.44 L30.48,34.72 C30.48,35.52 30.48,36.4 30.4,37.2 C30.4,38 30.32,38.8 30.32,39.6 C30.96,39.6 31.52,39.6 32.08,39.6 L33.84,39.6 L35.6,39.6 C36.16,39.6 36.8,39.6 37.36,39.6 C37.28,39.36 37.28,39.2 37.28,39.12 C37.28,38.96 37.28,38.8 37.36,38.56 C36.4,38.72 35.52,38.72 34.72,38.8 C33.92,38.8 33.04,38.8 32.08,38.8 C32.08,37.84 32.08,36.8 32.08,35.68 C32.08,34.48 32.08,33.12 32.08,31.52 C32.08,30.72 32.08,29.84 32.16,29.04 C32.16,28.24 32.24,27.44 32.24,26.56 C32.08,26.48 31.92,26.56 31.76,26.56 M59.2,26.56 C58.8,26.56 58.48,26.64 58.08,26.64 C57.68,26.64 57.36,26.64 56.96,26.64 C56.64,26.64 56.24,26.56 55.84,26.56 C55.84,27.36 55.92,28.24 55.92,29.04 C55.92,29.84 56,30.64 56,31.52 L56,34.8 C56,35.6 56,36.48 55.92,37.28 C55.92,38.08 55.84,38.88 55.84,39.68 C56.16,39.68 56.48,39.6 56.8,39.6 C57.12,39.6 57.44,39.6 57.76,39.68 C57.76,38.88 57.68,38.08 57.68,37.28 C57.68,36.48 57.6,35.68 57.6,34.8 L57.6,33.44 L58.32,33.44 C58.72,33.84 59.2,34.4 59.68,34.96 C60.16,35.6 60.64,36.16 61.12,36.8 C61.6,37.44 62,38 62.4,38.48 C62.8,39.04 63.12,39.44 63.28,39.68 C63.44,39.68 63.68,39.6 63.84,39.6 L64.4,39.6 L64.96,39.6 C65.12,39.6 65.36,39.6 65.52,39.68 C65.36,39.52 65.12,39.28 64.8,38.88 C64.48,38.56 64.16,38.16 63.84,37.76 C63.52,37.36 63.2,36.88 62.8,36.48 C62.48,36 62.08,35.6 61.76,35.2 C61.44,34.8 61.12,34.4 60.88,34.08 C60.64,33.76 60.4,33.44 60.24,33.28 C60.64,33.2 61.04,33.12 61.44,32.96 C61.92,32.8 62.32,32.56 62.72,32.32 C63.12,32 63.44,31.68 63.76,31.2 C64,30.8 64.16,30.24 64.16,29.6 C64.16,29.04 64.08,28.56 63.84,28.16 C63.6,27.76 63.36,27.44 62.96,27.2 C62.56,26.96 62.16,26.8 61.68,26.72 C61.2,26.64 60.72,26.56 60.16,26.56 C59.84,26.48 59.52,26.48 59.2,26.56 M58.16,32.56 C57.92,32.56 57.76,32.56 57.6,32.48 L57.6,31.36 C57.6,30.72 57.6,30 57.68,29.28 C57.68,28.56 57.76,27.92 57.76,27.2 C58,27.2 58.24,27.12 58.48,27.12 C58.8,27.12 59.12,27.12 59.6,27.12 C59.92,27.12 60.24,27.12 60.64,27.2 C60.96,27.28 61.28,27.44 61.6,27.6 C61.92,27.76 62.16,28.08 62.32,28.4 C62.48,28.72 62.56,29.12 62.56,29.6 C62.56,30.16 62.48,30.64 62.24,31.04 C62,31.44 61.68,31.68 61.36,31.92 C61.04,32.16 60.64,32.32 60.16,32.4 C59.76,32.48 59.36,32.56 58.96,32.56 C58.64,32.56 58.4,32.56 58.16,32.56" id="Shape" fill="#E5A812"></path>
                <path d="M140.48,26 C140.64,26.64 141.12,26.88 141.92,26.88 C142.32,26.88 142.64,26.8 142.88,26.64 C143.12,26.48 143.28,26.24 143.28,25.92 C143.28,25.44 142.96,25.12 142.32,24.96 L141.68,24.88 C141.36,24.8 141.2,24.64 141.2,24.4 C141.2,24.24 141.28,24.16 141.36,24.08 C141.52,24 141.68,23.92 141.84,23.92 C142.24,23.92 142.56,24.08 142.64,24.4 L143.12,24.32 C142.96,23.76 142.56,23.52 141.84,23.52 C141.44,23.52 141.2,23.6 140.96,23.76 C140.72,23.92 140.64,24.16 140.64,24.4 C140.64,24.64 140.72,24.8 140.88,24.96 C141.04,25.12 141.28,25.2 141.52,25.28 L142.24,25.44 C142.64,25.52 142.8,25.68 142.8,25.92 C142.8,26.08 142.72,26.24 142.56,26.32 C142.4,26.4 142.24,26.48 142,26.48 C141.44,26.48 141.12,26.24 140.96,25.84 L140.48,26 Z M138.16,24.96 C138.16,24.8 138.16,24.64 138.08,24.48 C138,24.32 137.92,24.24 137.76,24.16 C137.6,24.08 137.44,24 137.28,24 C137.04,24 136.8,24.08 136.64,24.24 C136.48,24.4 136.4,24.64 136.32,24.96 L138.16,24.96 L138.16,24.96 Z M138.16,25.92 L138.64,26 C138.56,26.24 138.4,26.48 138.16,26.64 C137.92,26.8 137.6,26.88 137.28,26.88 C136.8,26.88 136.48,26.72 136.24,26.4 C136,26.08 135.84,25.68 135.84,25.2 C135.84,24.72 136,24.24 136.24,23.92 C136.56,23.6 136.96,23.44 137.44,23.44 C137.76,23.44 138.08,23.6 138.32,23.84 C138.56,24.16 138.72,24.56 138.72,25.12 L136.4,25.12 C136.4,25.6 136.48,25.92 136.72,26.08 C136.96,26.24 137.12,26.32 137.36,26.32 C137.68,26.56 138,26.32 138.16,25.92 L138.16,25.92 Z M131.04,26 C131.2,26.64 131.68,26.88 132.48,26.88 C132.88,26.88 133.2,26.8 133.44,26.64 C133.68,26.48 133.84,26.24 133.84,25.92 C133.84,25.44 133.52,25.12 132.88,24.96 L132.24,24.88 C131.92,24.8 131.76,24.64 131.76,24.4 C131.76,24.24 131.84,24.16 131.92,24.08 C132.08,24 132.24,23.92 132.4,23.92 C132.8,23.92 133.12,24.08 133.2,24.4 L133.68,24.32 C133.52,23.76 133.12,23.52 132.4,23.52 C132,23.52 131.76,23.6 131.52,23.76 C131.28,23.92 131.2,24.16 131.2,24.4 C131.2,24.64 131.28,24.8 131.44,24.96 C131.6,25.12 131.84,25.2 132.08,25.28 L132.8,25.44 C133.2,25.52 133.36,25.68 133.36,25.92 C133.36,26.08 133.28,26.24 133.12,26.32 C132.96,26.4 132.8,26.48 132.56,26.48 C132,26.48 131.68,26.24 131.52,25.84 L131.04,26 Z M128.96,25.04 C128.96,24.64 128.96,24.32 128.88,24.24 C128.8,24.08 128.72,23.92 128.56,23.84 C128.4,23.68 128.16,23.68 127.92,23.68 C127.52,23.68 127.2,23.92 126.88,24.32 L126.88,23.76 L126.4,23.76 L126.4,26.96 L126.88,26.96 L126.88,25.2 C126.88,24.88 126.96,24.56 127.12,24.4 C127.28,24.16 127.52,24.08 127.76,24.08 C127.92,24.08 128.08,24.16 128.24,24.24 C128.4,24.4 128.4,24.56 128.4,24.88 L128.4,26.96 L128.88,26.96 L128.88,25.04 L128.96,25.04 Z M123.52,24.96 C123.52,24.8 123.52,24.64 123.44,24.48 C123.36,24.32 123.28,24.24 123.12,24.16 C122.96,24.08 122.8,24 122.64,24 C122.4,24 122.16,24.08 122,24.24 C121.84,24.4 121.76,24.64 121.68,24.96 L123.52,24.96 L123.52,24.96 Z M123.6,25.92 L124.08,26 C124,26.24 123.84,26.48 123.6,26.64 C123.36,26.8 123.04,26.88 122.72,26.88 C122.24,26.88 121.92,26.72 121.68,26.4 C121.44,26.08 121.28,25.68 121.28,25.2 C121.28,24.72 121.44,24.24 121.68,23.92 C122,23.6 122.4,23.44 122.88,23.44 C123.2,23.44 123.52,23.6 123.76,23.84 C124,24.16 124.16,24.56 124.16,25.12 L121.84,25.12 C121.84,25.6 121.92,25.92 122.16,26.08 C122.4,26.24 122.56,26.32 122.8,26.32 C123.12,26.56 123.44,26.32 123.6,25.92 L123.6,25.92 Z M118.4,26.88 L118.88,26.88 L118.88,22.56 L118.4,22.56 L118.4,26.88 Z M113.2,26.56 C113.04,26.56 112.96,26.56 112.8,26.56 C112.48,26.56 112.32,26.4 112.32,26.08 L112.32,24.08 L113.04,24.08 L113.04,23.68 L112.32,23.68 L112.32,22.8 L111.84,22.88 L111.84,23.68 L111.2,23.68 L111.2,24.08 L111.76,24.08 L111.76,26 C111.76,26.64 112.08,26.96 112.72,26.96 C112.88,26.96 113.04,26.96 113.2,26.96 L113.2,26.56 Z M109.04,25.76 C108.88,26.4 108.56,26.64 107.92,26.56 C107.52,26.4 107.36,25.92 107.36,25.28 C107.36,24.72 107.52,24.32 107.84,24.08 C108.48,23.92 108.88,24.16 108.96,24.8 L109.44,24.72 C109.36,24.4 109.28,24.16 109.04,23.92 C108.8,23.68 108.56,23.6 108.16,23.6 C107.76,23.6 107.44,23.76 107.12,24.08 C106.88,24.4 106.72,24.8 106.72,25.28 C106.72,25.76 106.8,26.16 107.04,26.48 C107.28,26.8 107.6,26.96 108.08,26.96 C108.4,26.96 108.72,26.88 108.88,26.64 C109.12,26.48 109.28,26.16 109.28,25.84 L109.04,25.76 Z M104.16,25.28 C103.92,25.28 103.76,25.28 103.68,25.28 C103.28,25.28 102.96,25.36 102.72,25.44 C102.48,25.6 102.4,25.76 102.4,26 C102.4,26.16 102.48,26.32 102.56,26.4 C102.64,26.48 102.88,26.56 103.04,26.56 C103.36,26.56 103.6,26.48 103.76,26.24 C103.92,26 104.08,25.76 104.08,25.44 C104.16,25.44 104.16,25.36 104.16,25.28 L104.16,25.28 Z M104.64,26.88 L104.16,26.88 C104.16,26.8 104.16,26.56 104.08,26.32 C103.84,26.8 103.52,26.96 102.96,26.96 C102.56,26.96 102.32,26.88 102.16,26.64 C102,26.48 101.84,26.24 101.84,25.92 C101.84,25.6 102,25.36 102.24,25.12 C102.48,24.88 102.96,24.8 103.68,24.8 C103.76,24.8 103.92,24.8 104.08,24.8 C104.08,24.56 104.08,24.4 104,24.24 C104,24.16 103.84,24 103.76,24 C103.6,23.92 103.44,23.92 103.28,23.92 C102.8,23.92 102.48,24.08 102.4,24.48 L101.92,24.4 C102,23.84 102.48,23.52 103.36,23.52 C103.84,23.52 104.16,23.6 104.32,23.84 C104.48,24 104.56,24.4 104.56,24.88 L104.56,26.24 C104.64,26.48 104.64,26.64 104.64,26.88 L104.64,26.88 Z M100.08,26.56 C99.92,26.56 99.84,26.56 99.68,26.56 C99.36,26.56 99.2,26.4 99.2,26.08 L99.2,24.08 L99.92,24.08 L99.92,23.68 L99.2,23.68 L99.2,22.8 L98.72,22.88 L98.72,23.68 L98.16,23.68 L98.16,24.08 L98.72,24.08 L98.72,26 C98.72,26.64 99.04,26.96 99.68,26.96 C99.84,26.96 100,26.96 100.16,26.96 L100.16,26.56 L100.08,26.56 Z M96.08,25.04 C96.08,24.64 96.08,24.32 96,24.24 C95.92,24.08 95.84,23.92 95.68,23.84 C95.52,23.68 95.28,23.68 95.04,23.68 C94.64,23.68 94.32,23.92 94,24.32 L94,23.76 L93.52,23.76 L93.52,26.96 L94,26.96 L94,25.2 C94,24.88 94.08,24.56 94.24,24.4 C94.4,24.16 94.64,24.08 94.88,24.08 C95.04,24.08 95.2,24.16 95.36,24.24 C95.52,24.4 95.52,24.56 95.52,24.88 L95.52,26.96 L96,26.96 L96,25.04 L96.08,25.04 Z M89.84,26.56 C90.08,26.56 90.32,26.48 90.48,26.24 C90.64,26 90.72,25.68 90.72,25.28 C90.72,24.8 90.64,24.48 90.48,24.32 C90.32,24.16 90.08,24 89.84,24 C89.6,24 89.36,24.08 89.2,24.32 C89.04,24.56 88.96,24.88 88.96,25.28 C88.96,25.76 89.04,26.08 89.2,26.24 C89.36,26.4 89.52,26.56 89.84,26.56 L89.84,26.56 Z M89.76,26.96 C89.28,26.96 88.96,26.8 88.72,26.48 C88.48,26.16 88.32,25.76 88.32,25.28 C88.32,24.72 88.48,24.24 88.88,23.92 C89.12,23.68 89.44,23.6 89.76,23.6 C90.24,23.6 90.56,23.76 90.8,24.08 C91.04,24.4 91.2,24.8 91.2,25.28 C91.2,25.76 91.04,26.16 90.8,26.48 C90.56,26.8 90.24,26.96 89.76,26.96 L89.76,26.96 Z M85.92,25.76 C85.76,26.4 85.44,26.64 84.8,26.56 C84.4,26.4 84.24,25.92 84.24,25.28 C84.24,24.72 84.4,24.32 84.72,24.08 C85.36,23.92 85.76,24.16 85.84,24.8 L86.32,24.72 C86.24,24.4 86.16,24.16 85.92,23.92 C85.68,23.68 85.44,23.6 85.04,23.6 C84.64,23.6 84.24,23.76 84,24.08 C83.76,24.4 83.6,24.8 83.6,25.28 C83.6,25.76 83.68,26.16 83.92,26.48 C84.16,26.8 84.48,26.96 84.96,26.96 C85.28,26.96 85.6,26.88 85.76,26.64 C86,26.48 86.16,26.16 86.16,25.84 L85.92,25.76 Z" id="Shape" fill="#8A6E4B"></path>
            </g>
        </g>
    </g>
</svg>
