<svg id="b9fbddad-f2c8-4de5-a403-02c3e36d971f" data-name="Layer 1" xmlns="http://www.w3.org/2000/svg" width="305" height="65" viewBox="0 0 305 65"><title>logo</title><path id="e4478d23-2c9a-4583-b6c7-963d9ac58759" data-name="s" d="M22.592,47.744a15.96306,15.96306,0,0,1-5.54112-.784,17.54074,17.54074,0,0,1-4.4387-2.6424L11.62583,46.931H2.45831V33.10922H11.5678a5.93862,5.93862,0,0,0,2.698,3.36834,9.36155,9.36155,0,0,0,4.49673.98725,5.49377,5.49377,0,0,0,2.78506-.66784,1.99858,1.99858,0,0,0,1.16045-1.77129A2.27088,2.27088,0,0,0,21.5186,32.935a14.01061,14.01061,0,0,0-3.33627-1.27765A51.27262,51.27262,0,0,1,9.2179,28.40519a14.25092,14.25092,0,0,1-5.65716-4.99441,15.37278,15.37278,0,0,1-2.14683-8.595A14.51825,14.51825,0,0,1,3.18359,7.55641a12.22963,12.22963,0,0,1,5.077-4.87826,16.45571,16.45571,0,0,1,7.775-1.74223,11.14528,11.14528,0,0,1,8.64531,3.48447L26.13137,1.749h8.12311V15.28034H25.55115a8.58436,8.58436,0,0,0-2.698-3.54255,7.18506,7.18506,0,0,0-4.03254-.98727,5.58769,5.58769,0,0,0-3.04617.6969A2.17256,2.17256,0,0,0,14.701,13.36388a2.2585,2.2585,0,0,0,1.53759,2.06164,21.99277,21.99277,0,0,0,4.38067,1.36475,40.1727,40.1727,0,0,1,8.55828,2.8747,14.05541,14.05541,0,0,1,5.62816,4.87826,14.39922,14.39922,0,0,1,2.11781,8.15948,16.45561,16.45561,0,0,1-1.76967,7.66584,13.31444,13.31444,0,0,1-5.04794,5.40094A14.27591,14.27591,0,0,1,22.592,47.744Z" style="fill:#7a56a2;fill-rule:evenodd"/><path id="b2cb1584-efc3-4a08-8e06-5936cecbc120" data-name="t" d="M39.19386,64.06408v-10.237h4.65158V28.8744h-4.012l-1.221,7.79407H30.64656V18.87005H73.15047V36.66847H65.18463l-1.221-7.79407H59.83529V53.82708h4.65159v10.237Z" style="fill:#3a1549;fill-rule:evenodd"/><path id="aeddf546-383b-4813-984a-e7f683012c5f" data-name="amp" d="M25.9927,60.71511a1.57126,1.57126,0,0,0,1.00936-.38057l-1.83849-1.97893-.05407.038-.12616.1332-.16222.19028a1.33466,1.33466,0,0,0-.12616.2664.804.804,0,0,0-.05407.30445v.019a1.40824,1.40824,0,0,0,.37849,1.0085A1.28106,1.28106,0,0,0,25.9927,60.71511Zm1.87452-6.96434a1.05308,1.05308,0,0,0,.19826-.647,1.3655,1.3655,0,0,0-.25233-.79918.76454.76454,0,0,0-.68493-.32348.754.754,0,0,0-.57678.28542.92011.92011,0,0,0-.23431.62793,1.14652,1.14652,0,0,0,.16222.57085,2.32036,2.32036,0,0,0,.32445.43765,3.96833,3.96833,0,0,0,.45059.39959A4.73754,4.73754,0,0,0,27.86722,53.75077Zm6.12826,2.721a9.18224,9.18224,0,0,0-.90123.85627l-1.496,1.63643q.07209.03806,1.29775,1.38906h2.01872v3.42509H30.17432v.019q-.54072-.57086-1.53206-1.69352a5.28629,5.28629,0,0,1-4.05545,1.95991A4.31422,4.31422,0,0,1,21.757,63.05559a3.68277,3.68277,0,0,1-1.15356-2.7591,4.18555,4.18555,0,0,1,.721-2.39756,4.97178,4.97178,0,0,1,2.05477-1.59838,4.2937,4.2937,0,0,1-1.04541-2.81618,3.60791,3.60791,0,0,1,.34247-1.59837,3.1256,3.1256,0,0,1,.91923-1.19879,4.27,4.27,0,0,1,1.35182-.72307,5.53547,5.53547,0,0,1,1.62218-.24737,4.55245,4.55245,0,0,1,1.3338.20931,4.73188,4.73188,0,0,1,1.20763.60891,2.9254,2.9254,0,0,1,.86516,1.02753,2.96214,2.96214,0,0,1,.34247,1.37,7.171,7.171,0,0,1-.07212.95141,2.276,2.276,0,0,1-.27035.74211,2.91516,2.91516,0,0,1-.43259.6089,6.94687,6.94687,0,0,1-.70295.70405l1.56813,1.6174.23431-.20931q.30641-.32349.46863-.53279a.75472.75472,0,0,0,.23431-.43765q0-.32349-.23431-.32349H30.697V53.31312h4.25372v2.683A3.674,3.674,0,0,0,33.99548,56.47181Z" style="fill:#7a56a2;fill-rule:evenodd"/><path id="f3fcd958-1014-4460-940a-7c9c3a34fabc" data-name="text" d="M86.942,35.19942l3.02638-.29423A3.69161,3.69161,0,0,0,91.077,37.14346a3.35108,3.35108,0,0,0,2.254.71456,3.4636,3.4636,0,0,0,2.26453-.63575,1.89175,1.89175,0,0,0,.76185-1.48692,1.40348,1.40348,0,0,0-.3205-.93,2.56274,2.56274,0,0,0-1.11913-.66727q-.54657-.18915-2.49047-.67253a8.44587,8.44587,0,0,1-3.50976-1.52371,4.00817,4.00817,0,0,1-1.41862-3.09994,3.95956,3.95956,0,0,1,.66727-2.20148,4.17694,4.17694,0,0,1,1.923-1.56049,7.7067,7.7067,0,0,1,3.03164-.53592,6.50334,6.50334,0,0,1,4.36619,1.2715,4.48846,4.48846,0,0,1,1.53947,3.39418l-3.11046.13661a2.64213,2.64213,0,0,0-.85642-1.7076,3.136,3.136,0,0,0-1.97031-.52016,3.55453,3.55453,0,0,0-2.12267.55694,1.12216,1.12216,0,0,0-.49389.95626,1.18276,1.18276,0,0,0,.46237.93523,8.17275,8.17275,0,0,0,2.85825,1.02981,15.08424,15.08424,0,0,1,3.3574,1.10863,4.32822,4.32822,0,0,1,1.70234,1.56573,4.84948,4.84948,0,0,1-.12085,4.93364A4.40708,4.40708,0,0,1,96.6516,39.9229a8.72916,8.72916,0,0,1-3.35214.56219,6.67324,6.67324,0,0,1-4.487-1.35031A5.87253,5.87253,0,0,1,86.942,35.19942Zm14.51194-2.59554a9.79688,9.79688,0,0,1,.704-3.95112,7.24912,7.24912,0,0,1,1.43439-2.11216,5.99833,5.99833,0,0,1,1.99131-1.3871,8.45844,8.45844,0,0,1,3.32062-.60948,7.23308,7.23308,0,0,1,5.44855,2.11217,8.09559,8.09559,0,0,1,2.04386,5.87413,8.06853,8.06853,0,0,1-2.0281,5.83735,7.17736,7.17736,0,0,1-5.42227,2.10691,7.25017,7.25017,0,0,1-5.46431-2.0964A7.95514,7.95514,0,0,1,101.45389,32.60388Zm3.205-.10509a5.77156,5.77156,0,0,0,1.20845,3.96688,4.15449,4.15449,0,0,0,6.12107.01051,5.88756,5.88756,0,0,0,1.19269-4.01942A5.793,5.793,0,0,0,112.02,28.50565a4.30215,4.30215,0,0,0-6.18413.01576A5.8202,5.8202,0,0,0,104.65892,32.49879Zm14.16516,7.71308V24.80673h4.99144a18.10781,18.10781,0,0,1,3.69891.23118,4.03985,4.03985,0,0,1,2.21725,1.50794,4.783,4.783,0,0,1,.89321,3.00012,5.02725,5.02725,0,0,1-.51491,2.38538,4.22419,4.22419,0,0,1-1.30828,1.51844,4.50884,4.50884,0,0,1-1.613.73033,17.75576,17.75576,0,0,1-3.22605.22067h-2.02809v5.81108Zm3.11046-12.79909v4.37145h1.70234a8.03835,8.03835,0,0,0,2.45894-.24169,2.04318,2.04318,0,0,0,.972-.7566,2.07066,2.07066,0,0,0,.352-1.19794,1.99038,1.99038,0,0,0-.49389-1.38709,2.15213,2.15213,0,0,0-1.25048-.683,14.964,14.964,0,0,0-2.23827-.10509Zm30.465,10.91811-1.78641,2.2803a10.41636,10.41636,0,0,1-2.522-1.76539,6.34263,6.34263,0,0,1-1.98606,1.24,7.04188,7.04188,0,0,1-2.501.39931,5.51593,5.51593,0,0,1-4.32942-1.61828,4.17821,4.17821,0,0,1-1.12438-2.87927,4.34105,4.34105,0,0,1,.88269-2.66385,7.21977,7.21977,0,0,1,2.63758-2.05437,8.353,8.353,0,0,1-1.18743-1.78115,3.75874,3.75874,0,0,1-.39932-1.60251A3.02526,3.02526,0,0,1,141.203,25.516a4.71778,4.71778,0,0,1,3.18927-.972,4.47884,4.47884,0,0,1,3.121,1.01931,3.23548,3.23548,0,0,1,1.12439,2.49046,3.16412,3.16412,0,0,1-.55694,1.7759,7.536,7.536,0,0,1-2.24878,1.902l2.14369,2.82673a7.23794,7.23794,0,0,0,.65152-1.75489l2.6691.60948a16.445,16.445,0,0,1-.69355,2.07539,5.58979,5.58979,0,0,1-.63049,1.09812,11.974,11.974,0,0,0,1.27675,1.014A9.611,9.611,0,0,0,152.39954,38.33089Zm-9.19475-5.17007a3.996,3.996,0,0,0-1.5237,1.24,2.56851,2.56851,0,0,0-.5044,1.48167,2.0733,2.0733,0,0,0,.62525,1.56048,2.30842,2.30842,0,0,0,1.67607.60423,3.36745,3.36745,0,0,0,1.33455-.27322,5.82634,5.82634,0,0,0,1.3976-.90371Zm1.15591-3.205.79863-.60948a1.83747,1.83747,0,0,0,.8827-1.35557,1.27723,1.27723,0,0,0-.42559-.96676,1.88033,1.88033,0,0,0-2.254-.04729,1.05934,1.05934,0,0,0-.39932.81439,2.22644,2.22644,0,0,0,.67253,1.324ZM163.759,40.21187V27.41278h-4.57111v-2.606h12.24216v2.606h-4.5606V40.21187Zm11.30026,0h-2.95283V29.05208h2.74266v1.58675a4.7649,4.7649,0,0,1,1.26625-1.48167,2.33,2.33,0,0,1,1.27676-.35728,3.74818,3.74818,0,0,1,1.944.55694l-.91422,2.57453a2.59342,2.59342,0,0,0-1.3871-.48338,1.63928,1.63928,0,0,0-1.05082.34151,2.33291,2.33291,0,0,0-.67779,1.23473,17.53012,17.53012,0,0,0-.24694,3.741Zm7.75511-7.75511-2.67961-.48338A4.17389,4.17389,0,0,1,181.69,29.57749a5.69118,5.69118,0,0,1,3.27859-.77761,7.06973,7.06973,0,0,1,2.94232.46762,2.93645,2.93645,0,0,1,1.36082,1.18743,6.08913,6.08913,0,0,1,.39406,2.64284l-.03152,3.44671a11.96428,11.96428,0,0,0,.14186,2.17,6.3202,6.3202,0,0,0,.53067,1.49743h-2.92131q-.11584-.294-.28372-.87218-.07382-.26245-.10508-.34678a5.32548,5.32548,0,0,1-1.61828,1.10337,4.63545,4.63545,0,0,1-1.83895.36779,3.8017,3.8017,0,0,1-2.71639-.93523,3.10872,3.10872,0,0,1-.993-2.36437,3.17221,3.17221,0,0,1,.45185-1.68658,2.9504,2.9504,0,0,1,1.26625-1.13489,9.89085,9.89085,0,0,1,2.3486-.68829,16.06487,16.06487,0,0,0,2.86877-.72508V32.6354a1.5295,1.5295,0,0,0-.42034-1.21371,2.51912,2.51912,0,0,0-1.58675-.36253,2.1145,2.1145,0,0,0-1.22947.31A2.15319,2.15319,0,0,0,182.81437,32.45676Zm3.95112,2.39589a18.40773,18.40773,0,0,1-1.79692.45186,5.41242,5.41242,0,0,0-1.60777.5149,1.23113,1.23113,0,0,0-.578,1.04032,1.44721,1.44721,0,0,0,.46236,1.07185,1.61368,1.61368,0,0,0,1.17693.45185,2.55646,2.55646,0,0,0,1.5237-.52541,1.85052,1.85052,0,0,0,.704-.97727,5.83849,5.83849,0,0,0,.1156-1.43964Zm5.81108-7.31377V24.80673h2.95282v2.73215Zm0,12.673V29.05208h2.95282V40.21187Zm16.13021,0H205.754V34.51638a8.80363,8.80363,0,0,0-.18915-2.33809,1.64067,1.64067,0,0,0-.61474-.8249,1.75818,1.75818,0,0,0-1.02456-.29423,2.36816,2.36816,0,0,0-1.37658.42033,2.116,2.116,0,0,0-.83541,1.11388,9.62147,9.62147,0,0,0-.22593,2.564v5.05448h-2.95283V29.05208h2.74267v1.63929a4.5734,4.5734,0,0,1,5.4643-1.53946,2.99873,2.99873,0,0,1,1.22422.89845,3.26016,3.26016,0,0,1,.578,1.24,9.23456,9.23456,0,0,1,.16287,1.98607Zm2.99486-12.673V24.80673h2.95283v2.73215Zm0,12.673V29.05208h2.95283V40.21187Zm16.13022,0H224.879V34.51638a8.80363,8.80363,0,0,0-.18915-2.33809,1.64065,1.64065,0,0,0-.61473-.8249,1.75818,1.75818,0,0,0-1.02456-.29423,2.36814,2.36814,0,0,0-1.37658.42033,2.116,2.116,0,0,0-.83541,1.11388,9.621,9.621,0,0,0-.22593,2.564v5.05448h-2.95283V29.05208h2.74266v1.63929a4.57342,4.57342,0,0,1,5.46431-1.53946,2.9988,2.9988,0,0,1,1.22422.89845,3.26,3.26,0,0,1,.578,1.24,9.23444,9.23444,0,0,1,.16288,1.98607Zm2.72165.73558,3.37316.40983a1.15044,1.15044,0,0,0,.3888.80914,2.2193,2.2193,0,0,0,1.324.31524,3.43923,3.43923,0,0,0,1.73386-.34677,1.4305,1.4305,0,0,0,.58847-.74609,4.49645,4.49645,0,0,0,.13661-1.35557V38.40445a3.9956,3.9956,0,0,1-3.34164,1.80742,4.11334,4.11334,0,0,1-3.56231-1.902,6.464,6.464,0,0,1-1.02981-3.74095,6.15213,6.15213,0,0,1,1.35032-4.28738,4.35687,4.35687,0,0,1,3.35739-1.48167,4.08808,4.08808,0,0,1,3.41519,1.81793V29.05208h2.76368V39.06647a9.98977,9.98977,0,0,1-.32575,2.95283,3.65972,3.65972,0,0,1-.91422,1.53421,4.0474,4.0474,0,0,1-1.571.87219,8.27165,8.27165,0,0,1-2.48521.31525,6.4332,6.4332,0,0,1-4.02467-.972,3.04922,3.04922,0,0,1-1.18744-2.46419Q230.543,41.15735,230.55351,40.94745Zm2.63758-6.54666a4.02341,4.02341,0,0,0,.68829,2.6008,2.12727,2.12727,0,0,0,1.69709.8249,2.34655,2.34655,0,0,0,1.82844-.84591,3.68664,3.68664,0,0,0,.74609-2.50623,3.90816,3.90816,0,0,0-.71457-2.57453,2.271,2.271,0,0,0-1.80742-.84066,2.17939,2.17939,0,0,0-1.74963.8249A3.86767,3.86767,0,0,0,233.19109,34.40079Zm16.81325,5.81108V24.80673h3.02639l6.305,10.28761V24.80673h2.88978V40.21187h-3.121L252.89412,30.166V40.21187Zm21.95181-3.5518,2.94232.49389a4.82751,4.82751,0,0,1-1.79166,2.4642,5.26417,5.26417,0,0,1-3.06317.84591,4.99257,4.99257,0,0,1-4.3084-1.902,6.38911,6.38911,0,0,1-1.10337-3.846,6.162,6.162,0,0,1,1.45015-4.34517,4.77638,4.77638,0,0,1,3.66739-1.571,4.95421,4.95421,0,0,1,3.9301,1.64454,7.277,7.277,0,0,1,1.37658,5.03873h-7.39783a2.98552,2.98552,0,0,0,.71456,2.04386,2.2344,2.2344,0,0,0,1.70235.73032,1.80806,1.80806,0,0,0,1.16642-.37829A2.33792,2.33792,0,0,0,271.95615,36.66007Zm.16813-2.98435a2.84335,2.84335,0,0,0-.662-1.94929,2.13089,2.13089,0,0,0-3.13147.03678,2.72471,2.72471,0,0,0-.62,1.91251Zm7.41885,6.53615-3.53078-11.15979h2.86876l2.09115,7.31376,1.923-7.31376H285.743l1.86,7.31376,2.13319-7.31376H292.647l-3.58332,11.15979H286.2264l-1.923-7.17715-1.89149,7.17715Zm13.61874-3.184,2.96333-.45185a2.17135,2.17135,0,0,0,.76711,1.30828,2.59034,2.59034,0,0,0,1.61827.4466,2.9222,2.9222,0,0,0,1.72336-.42033.93867.93867,0,0,0,.38881-.78812.77531.77531,0,0,0-.21017-.55694,2.35733,2.35733,0,0,0-.98778-.38881,15.9194,15.9194,0,0,1-4.52907-1.43963,2.87508,2.87508,0,0,1-1.324-2.51148,3.0952,3.0952,0,0,1,1.1454-2.43792,5.349,5.349,0,0,1,3.5518-.98778,6.19623,6.19623,0,0,1,3.40469.74609,3.81593,3.81593,0,0,1,1.53421,2.20674l-2.7847.5149a1.72476,1.72476,0,0,0-.67778-.99829,2.47927,2.47927,0,0,0-1.42388-.34677,3.20974,3.20974,0,0,0-1.67081.32576.69877.69877,0,0,0-.33627.599.6526.6526,0,0,0,.29423.53592,11.07816,11.07816,0,0,0,2.75843.83016,8.2162,8.2162,0,0,1,3.29435,1.31353,2.7311,2.7311,0,0,1,.92473,2.19623,3.37071,3.37071,0,0,1-1.282,2.63758,5.67536,5.67536,0,0,1-3.79349,1.10337,6.22467,6.22467,0,0,1-3.60959-.92473A4.25844,4.25844,0,0,1,293.16187,37.02786Z" style="fill:#3a1448"/></svg>