<svg width="49px" height="52px" viewBox="0 0 49 52" version="1.1" xmlns="http://www.w3.org/2000/svg" xmlns:xlink="http://www.w3.org/1999/xlink">
    <g id="Campaign" stroke="none" stroke-width="1" fill="none" fill-rule="evenodd">
        <g id="D-pfizer-mbc-homepage" transform="translate(-910.000000, -2670.000000)" fill="#FFFFFF" fill-rule="nonzero">
            <g id="Group-33" transform="translate(0.000000, 1676.000000)">
                <g id="Group-8" transform="translate(0.000000, 689.000000)">
                    <g id="Group-11" transform="translate(755.000000, 142.000000)">
                        <g id="Group-13" transform="translate(135.000000, 145.000000)">
                            <path d="M31.523854,65.5470828 L56.9418653,65.5470828 C58.5966299,65.5470828 59.9511562,64.1925565 59.9511562,62.5377919 L59.9511562,25.4753103 C59.9511562,23.8205457 58.5966299,22.4660194 56.9418653,22.4660194 L31.523854,22.4660194 C29.8690894,22.4660194 28.5145631,23.8205457 28.5145631,25.4753103 L28.5145631,62.535962 C28.5145631,64.1907266 29.8690894,65.5470371 31.523854,65.5470371 L31.523854,65.5470828 Z M33.5931789,58.1401676 L41.0037539,58.1401676 C40.6928153,59.937892 39.1273903,61.2549056 37.2992899,61.2549056 C35.4694053,61.256693 33.9039848,59.937892 33.5930417,58.1401676 L33.5931789,58.1401676 Z M47.4618739,58.1401676 L54.8724489,58.1401676 C54.5615103,59.937892 52.9960853,61.2549056 51.1679848,61.2549056 C49.3398844,61.256693 47.7726798,59.937892 47.4617367,58.1401676 L47.4618739,58.1401676 Z M47.4618739,31.1635522 L54.8724489,31.1635522 C54.5615103,32.9612765 52.9960853,34.2782901 51.1679848,34.2782901 C49.3398844,34.2782901 47.7726798,32.9612765 47.4617367,31.1635522 L47.4618739,31.1635522 Z M54.8724489,29.8733463 L47.4618739,29.8733463 C47.7728125,28.075622 49.3382375,26.7586083 51.1681221,26.7586083 C52.9962225,26.7568215 54.561643,28.0738379 54.8725861,29.8733463 L54.8724489,29.8733463 Z M56.107255,30.5184721 C56.107255,33.247196 53.8949703,35.4596179 51.1661092,35.4596179 C48.4372481,35.4596179 46.2249635,33.2473332 46.2249635,30.5184721 C46.2249635,27.7897483 48.4372481,25.5773264 51.1661092,25.5773264 C53.8966629,25.5773264 56.107255,27.789611 56.107255,30.5184721 Z M47.4619654,44.6520429 L54.8725404,44.6520429 C54.5616018,46.4497672 52.9961767,47.7667809 51.1680763,47.7667809 C49.3399759,47.7667809 47.7727713,46.4497672 47.4618282,44.6520429 L47.4619654,44.6520429 Z M54.8725404,43.361837 L47.4619654,43.361837 C47.772904,41.5641127 49.338329,40.2470991 51.1682136,40.2470991 C52.996314,40.2453122 54.5617345,41.5641127 54.8726776,43.361837 L54.8725404,43.361837 Z M56.1073465,44.0069628 C56.1073465,46.7356867 53.8950618,48.9481086 51.1662007,48.9481086 C48.4373396,48.9481086 46.225055,46.7358239 46.225055,44.0069628 C46.225055,41.2781018 48.4373396,39.0658171 51.1662007,39.0658171 C53.8967544,39.0658171 56.1073465,41.2781018 56.1073465,44.0069628 Z M54.8725404,56.8500075 L47.4619654,56.8500075 C47.772904,55.0522832 49.338329,53.7352696 51.1682136,53.7352696 C52.996314,53.7352696 54.5617345,55.0522832 54.8726776,56.8500075 L54.8725404,56.8500075 Z M56.1073465,57.4951333 C56.1073465,60.2238572 53.8950618,62.4362791 51.1662007,62.4362791 C48.4373396,62.4362791 46.225055,60.2239944 46.225055,57.4951333 C46.225055,54.7664095 48.4373396,52.5539876 51.1662007,52.5539876 C53.8967544,52.5539876 56.1073465,54.7662723 56.1073465,57.4951333 Z M33.5929045,31.1635522 L41.0034794,31.1635522 C40.6925408,32.9612765 39.1271158,34.2782901 37.2990154,34.2782901 C35.4691308,34.2782901 33.9037103,32.9612765 33.5927672,31.1635522 L33.5929045,31.1635522 Z M41.0034794,29.8733463 L33.5929045,29.8733463 C33.903843,28.075622 35.4692681,26.7586083 37.2991526,26.7586083 C39.127253,26.7568215 40.6926735,28.0738379 41.0036166,29.8733463 L41.0034794,29.8733463 Z M42.2382855,30.5184721 C42.2382855,33.247196 40.0260008,35.4596179 37.2971397,35.4596179 C34.5684159,35.4596179 32.355994,33.2473332 32.355994,30.5184721 C32.355994,27.7897483 34.5682787,25.5773264 37.2971397,25.5773264 C40.0258636,25.5773264 42.2382855,27.789611 42.2382855,30.5184721 Z M33.5929959,44.6520429 L41.0035709,44.6520429 C40.6926323,46.4497672 39.1272073,47.7667809 37.2991069,47.7667809 C35.4692223,47.7667809 33.9038018,46.4497672 33.5928587,44.6520429 L33.5929959,44.6520429 Z M41.0035709,43.361837 L33.5929959,43.361837 C33.9039345,41.5641127 35.4693596,40.2470991 37.2992441,40.2470991 C39.1273445,40.2453122 40.692765,41.5641127 41.0037081,43.361837 L41.0035709,43.361837 Z M42.238377,44.0069628 C42.238377,46.7356867 40.0260923,48.9481086 37.2972312,48.9481086 C34.5685074,48.9481086 32.3560855,46.7358239 32.3560855,44.0069628 C32.3560855,41.2781018 34.5683702,39.0658171 37.2972312,39.0658171 C40.0259551,39.0658171 42.238377,41.2781018 42.238377,44.0069628 Z M41.0035709,56.8500075 L33.5929959,56.8500075 C33.9039345,55.0522832 35.4693596,53.7352696 37.2992441,53.7352696 C39.1273445,53.7352696 40.692765,55.0522832 41.0037081,56.8500075 L41.0035709,56.8500075 Z M42.238377,57.4951333 C42.238377,60.2238572 40.0260923,62.4362791 37.2972312,62.4362791 C34.5685074,62.4362791 32.3560855,60.2239944 32.3560855,57.4951333 C32.3560855,54.7664095 34.5683702,52.5539876 37.2972312,52.5539876 C40.0259551,52.5539876 42.238377,54.7662723 42.238377,57.4951333 Z" id="Shape" transform="translate(44.232860, 44.006551) rotate(35.000000) translate(-44.232860, -44.006551) "></path>
                        </g>
                    </g>
                </g>
            </g>
        </g>
    </g>
</svg>
