<svg width="53px" height="33px" viewBox="0 0 53 33" version="1.1" xmlns="http://www.w3.org/2000/svg" xmlns:xlink="http://www.w3.org/1999/xlink">
    <g id="Campaign" stroke="none" stroke-width="1" fill="none" fill-rule="evenodd">
        <g id="D-pfizer-mbc-homepage" transform="translate(-1033.000000, -2534.000000)" fill="#FFFFFF" fill-rule="nonzero">
            <g id="Group-33" transform="translate(0.000000, 1676.000000)">
                <g id="Group-8" transform="translate(0.000000, 689.000000)">
                    <g id="Group-11" transform="translate(755.000000, 142.000000)">
                        <g id="np_users_305971_000000" transform="translate(278.145631, 27.650485)">
                            <path d="M29.7583042,18.0745409 C36.5190589,16.758058 34.7827098,5.30686001 28.7895421,3.1031835 C28.2995189,2.97672646 27.4459469,2.86833471 26.5923402,3.25222071 C25.7387335,2.86833471 24.8851846,2.97672646 24.3928838,3.1031835 C18.3975194,5.3094036 16.6632514,16.7674809 23.4331399,18.0745409 C23.0018332,22.9725183 12.1401649,19.8833245 14.5022379,29.1056414 C15.2632347,31.7544467 25.084163,32.2377293 26.5947104,32.1338467 C28.1009221,32.2377236 37.9194803,31.7544756 38.6802458,29.1056414 C41.0400065,19.9013031 30.2326265,22.9385844 29.7580152,18.0745409 L29.7583042,18.0745409 Z" id="Shape"></path>
                            <path d="M43.975255,14.2672446 C44.7927311,13.4113833 45.3572353,12.3613419 45.524361,11.7403583 C45.6350131,11.3406616 45.7117891,10.9183731 45.7637246,10.602216 C46.1114801,10.4328532 46.3801991,10.1483234 46.5224669,9.79156138 C46.7279603,9.27444314 46.8386124,8.16117606 46.8408669,8.11377273 C46.9311934,7.23311145 46.6195685,6.7227742 46.5902132,6.69566181 C46.951519,3.1187341 45.8088676,2.41647119 45.0456163,2.28998525 C44.7746369,2.24482144 44.3636443,2.14320259 44.1829914,1.9399695 C43.7561996,1.47027192 43.5665169,0.946349569 42.8280656,0.989301606 C42.5570863,1.00285029 42.1889879,0.919300769 41.978968,0.745417281 C41.6944383,0.508308163 41.3082688,0.232813914 41.0215365,0.232813914 C40.7370067,0.232813914 40.3802042,0.499278408 40.1205265,0.729612319 C39.9150331,0.912525562 39.5559876,1.00510657 39.285014,0.989301606 C38.5466205,0.946396394 38.3591461,1.47028927 37.9300882,1.9399695 C37.7494353,2.14546291 37.3384716,2.24481913 37.0674633,2.28998525 C36.3064665,2.41644229 35.1615606,3.12098865 35.525121,6.69791635 C35.493507,6.73178834 35.1863953,7.2398751 35.2744673,8.11377273 C35.2767258,8.16345257 35.3873739,9.27446048 35.5928673,9.79381593 C35.7419045,10.1506069 36.0061087,10.4351482 36.3538641,10.6044706 C36.4058014,10.9206161 36.484836,11.3451186 36.5909732,11.7426129 C36.7648509,12.3794361 37.3361881,13.452023 38.164937,14.3101388 L38.1468717,14.3101388 C38.0813858,17.1802367 34.5812168,17.4783573 32.059013,18.9303443 C32.054497,18.9326023 32.0522384,18.9348603 32.0499804,18.9348603 C32.5445185,19.2577752 33.3145508,19.5535893 34.4029774,19.939753 C37.0743859,20.8859118 41.4394806,22.4350178 40.4596192,28.3671392 C40.7193085,28.3693978 40.9248019,28.3648812 41.0580573,28.3558485 C42.4581318,28.4552105 51.5787049,27.9922824 52.2903329,25.4631474 C54.5214108,16.5386043 44.1132594,19.2261416 43.9756741,14.2672914 L43.975255,14.2672446 Z" id="Shape"></path>
                            <path d="M18.7855907,19.9556435 C19.8830355,19.5694972 20.6576174,19.271417 21.1521728,18.9484963 C20.9963604,18.8649451 20.8450629,18.7723583 20.6982802,18.6775169 C18.2301278,17.4039283 15.1138217,16.9703613 15.039306,14.2695858 C15.8567821,13.4137246 16.4190318,12.3636831 16.5884119,11.7426996 C16.6968037,11.3430028 16.7758401,10.9207144 16.8255211,10.6045573 C17.1732765,10.4351945 17.4419955,10.1506647 17.5865178,9.79390264 C17.7920113,9.2767844 17.9026633,8.16351732 17.9049179,8.11611399 C17.9952443,7.23545271 17.6836195,6.72511546 17.6542641,6.69800307 C18.01557,3.12107537 16.8729186,2.41881245 16.1119218,2.29232651 C15.8409424,2.24716328 15.4299498,2.14554385 15.2492969,1.94231076 C14.8202448,1.47261319 14.6305679,0.948690831 13.8943712,0.991642868 C13.6256521,1.00519155 13.2552934,0.921642031 13.0475859,0.747758543 C12.7630561,0.510649425 12.3746321,0.235155176 12.087842,0.235155176 C11.8033122,0.235155176 11.4465097,0.50161967 11.186832,0.731953581 C10.9813386,0.914866824 10.6222931,1.00744783 10.3513195,0.991642868 C9.61518055,0.948737656 9.42545163,1.47263053 8.99639373,1.94231076 C8.81574082,2.14780418 8.40477712,2.24716039 8.13376884,2.29232651 C7.3705175,2.41878355 6.22786614,3.12332991 6.58917197,6.70025762 C6.55755742,6.73413018 6.25044631,7.24221636 6.33851822,8.11611399 C6.34077624,8.16579383 6.45142485,9.27680174 6.65691826,9.79615719 C6.80595547,10.1529481 7.07015963,10.4374895 7.41791505,10.6068119 C7.46985291,10.9229573 7.54888697,11.3474599 7.65727871,11.7449541 C7.83115642,12.3817773 8.40023912,13.4543643 9.23124252,14.31248 L9.21317723,14.31248 C9.09801027,19.2872277 -1.33695296,16.5345398 0.887534761,25.4678698 C1.59661913,27.994756 10.719678,28.4599445 12.1244351,28.3605709 C12.2576673,28.3696036 12.4609004,28.3741196 12.7183062,28.3718616 C11.740526,22.4348842 16.1123265,20.8948543 18.7859318,19.9554591 L18.7855907,19.9556435 Z" id="Shape"></path>
                        </g>
                    </g>
                </g>
            </g>
        </g>
    </g>
</svg>
