<?xml version="1.0" encoding="utf-8"?><!DOCTYPE svg PUBLIC "-//W3C//DTD SVG 1.1//EN" "http://www.w3.org/Graphics/SVG/1.1/DTD/svg11.dtd"><svg version="1.1" xmlns="http://www.w3.org/2000/svg" xmlns:xlink="http://www.w3.org/1999/xlink" width="24" height="24" viewBox="0 0 24 24" data-code="59670" data-tags="date_range"><g fill="#444" transform="scale(0.0234375 0.0234375)"><path d="M810 854v-470h-596v470h596zM810 170c46 0 86 40 86 86v598c0 46-40 84-86 84h-596c-48 0-86-38-86-84v-598c0-46 38-86 86-86h42v-84h86v84h340v-84h86v84h42zM726 470v84h-86v-84h86zM554 470v84h-84v-84h84zM384 470v84h-86v-84h86z" /></g></svg>