<svg width="46px" height="53px" viewBox="0 0 46 53" version="1.1" xmlns="http://www.w3.org/2000/svg" xmlns:xlink="http://www.w3.org/1999/xlink">
    <g id="Campaign" stroke="none" stroke-width="1" fill="none" fill-rule="evenodd">
        <g id="D-pfizer-mbc-homepage" transform="translate(-796.000000, -2525.000000)" fill="#FFFFFF" fill-rule="nonzero">
            <g id="Group-33" transform="translate(0.000000, 1676.000000)">
                <g id="Group-8" transform="translate(0.000000, 689.000000)">
                    <g id="Group-11" transform="translate(755.000000, 142.000000)">
                        <g id="Group-10" transform="translate(20.000000, 0.000000)">
                            <g id="np_stethoscope_17432_000000" transform="translate(21.601942, 18.145631)">
                                <path d="M15.390253,41.3464925 L14.8605192,41.3189262 C6.55189785,40.6648781 0.000382825975,28.5407693 0.000382825975,13.7327856 C0.000382825975,7.93636009 3.4449082,1.47619918 8.67106672,1.47619918 L8.67106672,4.43080315 C5.68275312,4.43080315 3.0772006,8.95165837 3.0772006,13.7331064 C3.0772006,26.6389294 8.79019698,37.9890225 15.395113,38.3822853 C21.9978878,37.9888428 27.7084834,26.6389294 27.7084834,13.7331064 C27.7084834,9.1345609 25.1004003,4.94724136 22.1120867,4.94724136 L22.1120867,1.99513939 C26.5932269,1.99513939 30.516739,7.37052343 30.516739,13.7359292 C30.516739,28.5439128 24.3500614,40.6657762 15.390571,41.3220698 L15.390253,41.3464925 Z" id="Shape"></path>
                                <path d="M10.9111891,4.43046249 C10.9111891,5.24489518 10.2420872,5.90651348 9.41829761,5.90651348 L8.67061901,5.90651348 C7.84689431,5.90651348 7.17772748,5.24495933 7.17772748,4.43046249 L7.17772748,1.47585852 C7.17772748,0.661425837 7.84682942,-0.000192461446 8.67061901,-0.000192461446 L9.41829761,-0.000192461446 C10.2420223,-0.000192461446 10.9111891,0.661361683 10.9111891,1.47585852 L10.9111891,4.43046249 Z" id="Shape"></path>
                                <path d="M23.6047901,4.43046249 C23.6047901,5.24489518 22.9356881,5.90651348 22.1118985,5.90651348 L21.3667505,5.90651348 C20.5430258,5.90651348 19.8713284,5.24495933 19.8713284,4.43046249 L19.8713284,1.47585852 C19.8713284,0.661425837 20.5404303,-0.000192461446 21.3642199,-0.000192461446 L22.109368,-0.000192461446 C22.9330927,-0.000192461446 23.6022595,0.661361683 23.6022595,1.47585852 L23.6047901,4.43046249 Z" id="Shape"></path>
                                <path d="M27.1910259,52.6061286 C19.0699244,52.6061286 13.3976114,47.2532626 13.3976114,39.8703132 L16.385925,39.8703132 C16.385925,45.776955 20.7276906,49.6512039 27.1907015,49.6512039 C32.1255879,49.6512039 37.790439,48.0623705 37.790439,35.1941416 L37.790439,25.1027464 L40.7787526,25.1027464 L40.7787526,35.1941416 C40.7787526,46.9522529 36.33304,52.6061286 27.1910259,52.6061286 Z" id="Shape"></path>
                                <path d="M38.8957679,26.9497348 C35.6616021,26.9497348 33.0306793,24.355996 33.0306793,21.1658834 C33.0306793,17.9782086 35.6641327,15.382032 38.8957679,15.382032 C42.1299336,15.382032 44.7608565,17.9757708 44.7608565,21.1658834 C44.7633909,24.3560602 42.1324642,26.9497348 38.8957679,26.9497348 Z M38.8957679,18.3364435 C37.3091164,18.3364435 36.0164624,19.6045078 36.0164624,21.1657551 C36.0164624,22.7270023 37.3091164,23.9950667 38.8957679,23.9950667 C40.4824193,23.9950667 41.7750734,22.7245003 41.7750734,21.1657551 C41.7776085,19.6070098 40.4849499,18.3364435 38.8957679,18.3364435 Z" id="Shape"></path>
                            </g>
                        </g>
                    </g>
                </g>
            </g>
        </g>
    </g>
</svg>
