<svg width="22px" height="16px" viewBox="0 0 22 16" version="1.1" xmlns="http://www.w3.org/2000/svg" xmlns:xlink="http://www.w3.org/1999/xlink">
    <defs>
        <linearGradient x1="15.0845865%" y1="1.01652893%" x2="92.5305451%" y2="101.280165%">
            <stop stop-color="#01C1B5" offset="0%"></stop>
            <stop stop-color="#2C5697" offset="49.6169131%"></stop>
            <stop stop-color="#84329B" offset="100%"></stop>
        </linearGradient>
    </defs>
    <g stroke="none" stroke-width="1" fill="none" fill-rule="evenodd">
        <g fill="url(#linearGradient-1)" fill-rule="nonzero">
            <path d="M1,0 L21,0 C21.5522847,-1.01453063e-16 22,0.44771525 22,1 C22,1.55228475 21.5522847,2 21,2 L1,2 C0.44771525,2 6.76353751e-17,1.55228475 0,1 C-6.76353751e-17,0.44771525 0.44771525,1.01453063e-16 1,0 Z M1,7 L21,7 C21.5522847,7 22,7.44771525 22,8 C22,8.55228475 21.5522847,9 21,9 L1,9 C0.44771525,9 6.76353751e-17,8.55228475 0,8 C-6.76353751e-17,7.44771525 0.44771525,7 1,7 Z M1,14 L21,14 C21.5522847,14 22,14.4477153 22,15 C22,15.5522847 21.5522847,16 21,16 L1,16 C0.44771525,16 6.76353751e-17,15.5522847 0,15 C-6.76353751e-17,14.4477153 0.44771525,14 1,14 Z"></path>
        </g>
    </g>
</svg>
