<svg width="76px" height="20px" viewBox="0 0 76 20" version="1.1" xmlns="http://www.w3.org/2000/svg" xmlns:xlink="http://www.w3.org/1999/xlink">
    <g id="Symbols" stroke="none" stroke-width="1" fill="none" fill-rule="evenodd">
        <g id="Nav/Footer/Global" transform="translate(-1114.000000, -30.000000)" fill="#143489">
            <path d="M1122.32123,30.0000233 L1127.17589,30.0000233 L1135.41295,49.5679282 L1129.70261,49.5679282 L1128.19827,45.8175371 L1121.02769,45.8175371 L1119.60565,49.5679282 L1114,49.5679282 L1122.32123,30.0000233 Z M1124.66332,36.0082316 L1122.54311,41.6561475 L1126.73662,41.6561475 L1124.66332,36.0082316 Z M1189.73262,38.9705846 C1189.90993,39.6525585 1190,40.3438362 1190,41.0251123 L1190,49.5679282 L1185.01542,49.5679282 L1185.01542,41.9964366 C1185.01542,41.6363767 1184.98453,41.2872489 1184.92346,40.9588222 C1184.86428,40.6431883 1184.76666,40.362444 1184.63438,40.1254278 C1184.508,39.9002741 1184.33493,39.7260591 1184.10598,39.5932463 C1183.87915,39.4622943 1183.58324,39.3957716 1183.2272,39.3957716 C1182.86644,39.3957716 1182.54812,39.4643877 1182.28168,39.5995264 C1182.015,39.7355956 1181.78935,39.9256272 1181.61228,40.1642715 C1181.42883,40.4101263 1181.28948,40.6980812 1181.19776,41.020693 C1181.10368,41.3488871 1181.05605,41.6952237 1181.05605,42.0503991 L1181.05605,49.5679282 L1176.07147,49.5679282 L1176.07147,35.6660817 L1180.89194,35.6660817 L1180.89194,37.0825963 C1180.98154,36.9711824 1181.07798,36.8606989 1181.18125,36.7513784 C1181.45972,36.4578412 1181.79148,36.2024499 1182.16732,35.9928802 C1182.53751,35.7872646 1182.94448,35.6172364 1183.37739,35.4872147 C1183.81785,35.3553323 1184.29178,35.2883445 1184.786,35.2883445 C1185.73151,35.2883445 1186.54993,35.4604661 1187.21887,35.7998249 C1187.88544,36.137788 1188.43224,36.5822805 1188.8444,37.1209748 C1189.25326,37.6557148 1189.552,38.2779113 1189.73262,38.9705846 Z M1136.60597,49.5679049 L1136.60597,30 L1141.64525,30 L1141.64525,49.5679049 L1136.60597,49.5679049 Z M1165.61305,35.234289 C1169.74643,35.234289 1173.09723,38.5397223 1173.09723,42.6171445 C1173.09723,46.6945667 1169.74643,50 1165.61305,50 C1161.47966,50 1158.12886,46.6945667 1158.12886,42.6171445 C1158.12886,38.5397223 1161.47966,35.234289 1165.61305,35.234289 Z M1168.60144,42.6171445 C1168.60144,40.9891994 1167.26333,39.6692124 1165.61305,39.6692124 C1163.96252,39.6692124 1162.62465,40.9891994 1162.62465,42.6171445 C1162.62465,44.2453222 1163.96252,45.5650765 1165.61305,45.5650765 C1167.26333,45.5650765 1168.60144,44.2453222 1168.60144,42.6171445 Z M1151.80257,45.5649602 C1152.87306,45.5649602 1153.80914,45.0078908 1154.33707,44.1737987 L1157.2493,47.6778697 C1155.88455,49.1067119 1153.94967,49.9998837 1151.80257,49.9998837 C1147.66919,49.9998837 1144.31839,46.6944504 1144.31839,42.6170282 C1144.31839,38.539606 1147.66919,35.2341727 1151.80257,35.2341727 C1153.96641,35.2341727 1155.9145,36.1413002 1157.28113,37.589448 L1154.29793,40.997224 C1153.7634,40.1977887 1152.84594,39.6690961 1151.80257,39.6690961 C1150.15205,39.6690961 1148.81418,40.9890831 1148.81418,42.6170282 C1148.81418,44.2452059 1150.15205,45.5649602 1151.80257,45.5649602 Z" id="Logo/Alcon"></path>
        </g>
    </g>
</svg>
