<svg width="335px" height="60px" viewBox="0 0 335 60" version="1.1" xmlns="http://www.w3.org/2000/svg" xmlns:xlink="http://www.w3.org/1999/xlink">
    <g id="Page-1" stroke="none" stroke-width="1" fill="none" fill-rule="evenodd">
        <g id="Group" fill="#FFFFFF">
            <path d="M65.3383049,17.0852287 L70.8779462,17.0852287 L80.2772287,39.720565 L73.7611749,39.720565 L72.044583,35.3822691 L63.8622511,35.3822691 L62.2395605,39.720565 L55.8429686,39.720565 L65.3383049,17.0852287 Z M68.010861,24.0352735 L65.5914888,30.5685471 L70.3766906,30.5685471 L68.010861,24.0352735 Z M142.261265,27.462 C142.463596,28.2508789 142.566377,29.0505202 142.566377,29.8385919 L142.566377,39.720565 L136.878484,39.720565 L136.878484,30.9621794 C136.878484,30.5456771 136.843238,30.1418206 136.773552,29.7619103 C136.706018,29.3967982 136.594628,29.0720448 136.443686,28.7978744 C136.299471,28.537426 136.101982,28.3359013 135.840726,28.1822691 C135.581892,28.0307892 135.244224,27.9538386 134.837946,27.9538386 C134.426287,27.9538386 134.063058,28.0332108 133.759022,28.1895336 C133.454717,28.3469327 133.197229,28.5667534 132.995166,28.8428072 C132.785839,29.1272018 132.626825,29.460296 132.522161,29.8334798 C132.414807,30.2131211 132.360457,30.6137489 132.360457,31.0246009 L132.360457,39.720565 L126.672565,39.720565 L126.672565,23.6394888 L132.173193,23.6394888 L132.173193,25.2780538 C132.275435,25.1491749 132.38548,25.0213722 132.503327,24.8949148 C132.821085,24.5553632 133.19965,24.2599372 133.628529,24.0175157 C134.050951,23.7796682 134.515345,23.5829865 135.009336,23.432583 C135.511937,23.2800269 136.052744,23.2025381 136.616691,23.2025381 C137.695614,23.2025381 138.629516,23.4016413 139.392834,23.7941973 C140.153462,24.185139 140.777408,24.6993094 141.247722,25.3224484 C141.714269,25.9410135 142.055166,26.6607444 142.261265,27.462 Z M81.638583,39.7205381 L81.638583,17.0852018 L87.3888969,17.0852018 L87.3888969,39.7205381 L81.638583,39.7205381 Z M114.738484,23.140009 C119.455076,23.140009 123.278664,26.9635964 123.278664,31.6801883 C123.278664,36.3967803 119.455076,40.2203677 114.738484,40.2203677 C110.021892,40.2203677 106.198305,36.3967803 106.198305,31.6801883 C106.198305,26.9635964 110.021892,23.140009 114.738484,23.140009 Z M118.148529,31.6801883 C118.148529,29.7970493 116.621623,28.2701435 114.738484,28.2701435 C112.855076,28.2701435 111.328439,29.7970493 111.328439,31.6801883 C111.328439,33.5635964 112.855076,35.0902332 114.738484,35.0902332 C116.621623,35.0902332 118.148529,33.5635964 118.148529,31.6801883 Z M98.9793901,35.0900987 C100.200915,35.0900987 101.269076,34.445704 101.871498,33.480861 L105.194637,37.5342242 C103.637327,39.1870493 101.429435,40.2202332 98.9793901,40.2202332 C94.2627982,40.2202332 90.4392108,36.3966457 90.4392108,31.6800538 C90.4392108,26.9634619 94.2627982,23.1398744 98.9793901,23.1398744 C101.448538,23.1398744 103.671498,24.1892018 105.23096,25.8643587 L101.826834,29.8063318 C101.216879,28.8815785 100.169973,28.270009 98.9793901,28.270009 C97.0959821,28.270009 95.5693453,29.7969148 95.5693453,31.6800538 C95.5693453,33.5634619 97.0959821,35.0900987 98.9793901,35.0900987 Z" id="alcon"></path>
            <path d="M163.181754,23.8946889 C163.181754,26.189053 162.398892,27.9537232 160.833144,29.1887525 C159.267395,30.4237817 157.027323,31.0412871 154.112861,31.0412871 L151.446451,31.0412871 L151.446451,39.955157 L148.811046,39.955157 L148.811046,17.290674 L154.686449,17.290674 C160.350014,17.290674 163.181754,19.4919903 163.181754,23.8946889 Z M151.446451,28.7779393 L153.818316,28.7779393 C156.15402,28.7779393 157.843762,28.4007185 158.887595,27.6462654 C159.931427,26.8918124 160.453335,25.6826386 160.453335,24.018708 C160.453335,22.5201368 159.962431,21.4039765 158.980609,20.6701934 C157.998786,19.9364103 156.469233,19.5695242 154.391904,19.5695242 L151.446451,19.5695242 L151.446451,28.7779393 Z M174.750998,22.6544983 C175.505452,22.6544983 176.182382,22.7165072 176.781811,22.8405269 L176.425256,25.2278938 C175.722478,25.0728692 175.102388,24.995358 174.56497,24.995358 C173.190418,24.995358 172.014833,25.5534382 171.038178,26.6696153 C170.061523,27.7857924 169.573203,29.1758255 169.573203,30.8397562 L169.573203,39.955157 L166.999807,39.955157 L166.999807,22.964546 L169.123634,22.964546 L169.418179,26.1115296 L169.542198,26.1115296 C170.172631,25.0056874 170.932241,24.1530649 171.821048,23.5536365 C172.709856,22.954208 173.686496,22.6544983 174.750998,22.6544983 Z M193.451338,31.4443491 C193.451338,34.2141219 192.753738,36.3766826 191.358517,37.9320961 C189.963295,39.4875095 188.035852,40.2652046 185.576128,40.2652046 C184.056887,40.2652046 182.708193,39.9086534 181.530006,39.1955402 C180.351819,38.4824271 179.442355,37.4592801 178.801587,36.1260685 C178.160819,34.792857 177.840439,33.2322994 177.840439,31.4443491 C177.840439,28.6745763 178.532872,26.517183 179.917759,24.9721045 C181.302645,23.427026 183.224921,22.6544983 185.684645,22.6544983 C188.061689,22.6544983 189.950377,23.4451119 191.350765,25.0263628 C192.751154,26.6076137 193.451338,28.7469211 193.451338,31.4443491 Z M180.506849,31.4443491 C180.506849,33.6146934 180.940911,35.2682644 181.809049,36.4051114 C182.677187,37.5419585 183.953537,38.1103735 185.638138,38.1103735 C187.322738,38.1103735 188.601672,37.5445422 189.474977,36.4128626 C190.348282,35.281183 190.784929,33.6250284 190.784929,31.4443491 C190.784929,29.2843397 190.348282,27.6436873 189.474977,26.5223427 C188.601672,25.4009981 187.312403,24.8403342 185.607133,24.8403342 C183.922532,24.8403342 182.65135,25.393247 181.793547,26.4990891 C180.935744,27.6049313 180.506849,29.2533348 180.506849,31.4443491 Z M205.082592,24.9643533 L200.757427,24.9643533 L200.757427,39.955157 L198.184032,39.955157 L198.184032,24.9643533 L195.145565,24.9643533 L195.145565,23.8016746 L198.184032,22.8715317 L198.184032,21.9258864 C198.184032,17.7505572 200.008127,15.6629239 203.656373,15.6629239 C204.555515,15.6629239 205.609667,15.8437832 206.818859,16.2055073 L206.152256,18.2673241 C205.160099,17.94694 204.312644,17.7867503 203.609865,17.7867503 C202.638378,17.7867503 201.920108,18.1097133 201.455034,18.7556492 C200.989961,19.401585 200.757427,20.4376505 200.757427,21.8638768 L200.757427,22.964546 L205.082592,22.964546 L205.082592,24.9643533 Z M214.822555,40.2652046 C212.311156,40.2652046 210.329455,39.5004281 208.877391,37.970852 C207.425327,36.441276 206.699306,34.3174708 206.699306,31.5993729 C206.699306,28.860605 207.373653,26.6851258 208.722367,25.07287 C210.071081,23.4606141 211.882258,22.6544983 214.155952,22.6544983 C216.284957,22.6544983 217.969532,23.3546822 219.209729,24.7550711 C220.449926,26.15546 221.070015,28.0028087 221.070015,30.2971728 L221.070015,31.9249229 L209.365716,31.9249229 C209.417391,33.9195728 209.921213,35.4336236 210.877198,36.4671209 C211.833183,37.5006183 213.179293,38.0173592 214.915569,38.0173592 C216.744859,38.0173592 218.553452,37.6349709 220.341403,36.8701829 L220.341403,39.1645355 C219.431925,39.5572644 218.571551,39.8388882 217.760256,40.0094153 C216.948961,40.1799423 215.969737,40.2652046 214.822555,40.2652046 Z M214.124947,24.8093295 C212.760731,24.8093295 211.672991,25.2537266 210.861696,26.1425343 C210.050401,27.031342 209.572415,28.2611854 209.427726,29.8321013 L218.310591,29.8321013 C218.310591,28.2095105 217.948872,26.9667486 217.225424,26.1037784 C216.501976,25.2408081 215.468494,24.8093295 214.124947,24.8093295 Z M235.879257,35.3199446 C235.879257,36.9011955 235.290172,38.1207041 234.111985,38.9785069 C232.933798,39.8363096 231.280227,40.2652046 229.151223,40.2652046 C226.898199,40.2652046 225.141279,39.9086534 223.880413,39.1955402 L223.880413,36.8081733 C224.696876,37.2215723 225.572751,37.547119 226.508066,37.7848234 C227.443382,38.0225278 228.345094,38.1413782 229.213232,38.1413782 C230.556779,38.1413782 231.590261,37.9269307 232.313709,37.4980294 C233.037157,37.069128 233.398875,36.4154507 233.398875,35.536978 C233.398875,34.8755397 233.112084,34.3097084 232.538493,33.8394671 C231.964902,33.3692259 230.846158,32.8137294 229.182227,32.172961 C227.600977,31.5838676 226.477065,31.0697104 225.810459,30.630474 C225.143854,30.1912376 224.647782,29.6925827 224.322231,29.1344941 C223.996679,28.5764056 223.833906,27.9098098 223.833906,27.1346868 C223.833906,25.7498004 224.397153,24.6568934 225.523665,23.8559329 C226.650177,23.0549725 228.195233,22.6544983 230.158878,22.6544983 C231.988168,22.6544983 233.776091,23.0265518 235.522702,23.7706698 L234.608061,25.8634915 C232.902791,25.1607133 231.357735,24.8093295 229.972849,24.8093295 C228.753322,24.8093295 227.833523,25.0005236 227.213425,25.3829176 C226.593326,25.7653116 226.283282,26.2923873 226.283282,26.9641606 C226.283282,27.4188994 226.399549,27.8064551 226.632086,28.1268393 C226.864622,28.4472234 227.23926,28.7521006 227.756008,29.0414798 C228.272757,29.3308591 229.264899,29.7494192 230.732466,30.2971728 C232.747785,31.0309559 234.109398,31.7698954 234.817343,32.5140135 C235.525289,33.2581315 235.879257,34.1934326 235.879257,35.3199446 Z M250.486967,35.3199446 C250.486967,36.9011955 249.897883,38.1207041 248.719696,38.9785069 C247.541509,39.8363096 245.887938,40.2652046 243.758934,40.2652046 C241.505909,40.2652046 239.74899,39.9086534 238.488124,39.1955402 L238.488124,36.8081733 C239.304586,37.2215723 240.180462,37.547119 241.115777,37.7848234 C242.051092,38.0225278 242.952805,38.1413782 243.820943,38.1413782 C245.16449,38.1413782 246.197971,37.9269307 246.92142,37.4980294 C247.644868,37.069128 248.006586,36.4154507 248.006586,35.536978 C248.006586,34.8755397 247.719795,34.3097084 247.146204,33.8394671 C246.572613,33.3692259 245.453869,32.8137294 243.789938,32.172961 C242.208687,31.5838676 241.084776,31.0697104 240.41817,30.630474 C239.751564,30.1912376 239.255493,29.6925827 238.929941,29.1344941 C238.60439,28.5764056 238.441616,27.9098098 238.441616,27.1346868 C238.441616,25.7498004 239.004864,24.6568934 240.131376,23.8559329 C241.257888,23.0549725 242.802944,22.6544983 244.766588,22.6544983 C246.595879,22.6544983 248.383802,23.0265518 250.130413,23.7706698 L249.215772,25.8634915 C247.510502,25.1607133 245.965446,24.8093295 244.58056,24.8093295 C243.361033,24.8093295 242.441234,25.0005236 241.821136,25.3829176 C241.201037,25.7653116 240.890993,26.2923873 240.890993,26.9641606 C240.890993,27.4188994 241.00726,27.8064551 241.239796,28.1268393 C241.472333,28.4472234 241.846971,28.7521006 242.363719,29.0414798 C242.880468,29.3308591 243.87261,29.7494192 245.340177,30.2971728 C247.355496,31.0309559 248.717109,31.7698954 249.425054,32.5140135 C250.133,33.2581315 250.486967,34.1934326 250.486967,35.3199446 Z M256.70789,39.955157 L254.134494,39.955157 L254.134494,22.964546 L256.70789,22.964546 L256.70789,39.955157 Z M253.917461,18.3603384 C253.917461,17.771245 254.062148,17.3397663 254.351527,17.0658895 C254.640907,16.7920127 255.002625,16.6550764 255.436694,16.6550764 C255.850093,16.6550764 256.206644,16.7945964 256.506359,17.0736407 C256.806073,17.352685 256.955928,17.7815799 256.955928,18.3603384 C256.955928,18.9390969 256.806073,19.3705756 256.506359,19.6547873 C256.206644,19.9389991 255.850093,20.0811029 255.436694,20.0811029 C255.002625,20.0811029 254.640907,19.9389991 254.351527,19.6547873 C254.062148,19.3705756 253.917461,18.9390969 253.917461,18.3603384 Z M276.291865,31.4443491 C276.291865,34.2141219 275.594265,36.3766826 274.199044,37.9320961 C272.803822,39.4875095 270.876379,40.2652046 268.416655,40.2652046 C266.897414,40.2652046 265.54872,39.9086534 264.370533,39.1955402 C263.192346,38.4824271 262.282882,37.4592801 261.642114,36.1260685 C261.001346,34.792857 260.680966,33.2322994 260.680966,31.4443491 C260.680966,28.6745763 261.373399,26.517183 262.758285,24.9721045 C264.143172,23.427026 266.065448,22.6544983 268.525172,22.6544983 C270.902216,22.6544983 272.790904,23.4451119 274.191292,25.0263628 C275.591681,26.6076137 276.291865,28.7469211 276.291865,31.4443491 Z M263.347376,31.4443491 C263.347376,33.6146934 263.781438,35.2682644 264.649576,36.4051114 C265.517714,37.5419585 266.794064,38.1103735 268.478665,38.1103735 C270.163265,38.1103735 271.442199,37.5445422 272.315504,36.4128626 C273.188809,35.281183 273.625455,33.6250284 273.625455,31.4443491 C273.625455,29.2843397 273.188809,27.6436873 272.315504,26.5223427 C271.442199,25.4009981 270.15293,24.8403342 268.44766,24.8403342 C266.763059,24.8403342 265.491876,25.393247 264.634074,26.4990891 C263.776271,27.6049313 263.347376,29.2533348 263.347376,31.4443491 Z M291.891729,39.955157 L291.891729,28.9639679 C291.891729,27.5790815 291.576517,26.5455997 290.946083,25.8634915 C290.31565,25.1813832 289.328675,24.8403342 287.985128,24.8403342 C286.207513,24.8403342 284.905326,25.3209033 284.078528,26.2820558 C283.25173,27.2432083 282.838337,28.8296029 282.838337,31.0412871 L282.838337,39.955157 L280.264942,39.955157 L280.264942,22.964546 L282.357763,22.964546 L282.776328,25.2899033 L282.900347,25.2899033 C283.42743,24.4527705 284.16637,23.8042606 285.117188,23.3443543 C286.068005,22.884448 287.127324,22.6544983 288.295176,22.6544983 C290.341501,22.6544983 291.881388,23.1479859 292.914886,24.1349758 C293.948383,25.1219658 294.465124,26.7006092 294.465124,28.8709536 L294.465124,39.955157 L291.891729,39.955157 Z M309.661925,39.955157 L309.150347,37.5367853 L309.026328,37.5367853 C308.17886,38.6012876 307.333989,39.3221411 306.491688,39.6993676 C305.649388,40.0765942 304.59782,40.2652046 303.336953,40.2652046 C301.652353,40.2652046 300.33208,39.8311422 299.376095,38.9630045 C298.42011,38.0948667 297.942124,36.859856 297.942124,35.2579351 C297.942124,31.826724 300.686019,30.0284657 306.173889,29.8631061 L309.057333,29.7700918 L309.057333,28.7159298 C309.057333,27.3827182 308.770541,26.3983268 308.19695,25.762726 C307.623359,25.1271251 306.706144,24.8093295 305.445277,24.8093295 C304.029386,24.8093295 302.427489,25.2433918 300.639539,26.1115296 L299.848917,24.142727 C300.68605,23.6879882 301.603265,23.331437 302.60059,23.0730626 C303.597915,22.8146883 304.597809,22.6855031 305.600301,22.6855031 C307.625956,22.6855031 309.127088,23.1350677 310.103743,24.0342103 C311.080398,24.933353 311.568718,26.3750601 311.568718,28.359375 L311.568718,39.955157 L309.661925,39.955157 Z M303.848532,38.1413782 C305.450453,38.1413782 306.708717,37.7021485 307.623362,36.8236757 C308.538007,35.945203 308.995323,34.7153596 308.995323,33.1341087 L308.995323,31.5993729 L306.421928,31.7078896 C304.375603,31.7802344 302.900308,32.09803 301.995997,32.6612861 C301.091687,33.2245421 300.639539,34.100418 300.639539,35.2889399 C300.639539,36.2190875 300.921163,36.9270225 301.484419,37.4127663 C302.047675,37.89851 302.835705,38.1413782 303.848532,38.1413782 Z M318.905812,39.955157 L316.332417,39.955157 L316.332417,15.8334501 L318.905812,15.8334501 L318.905812,39.955157 Z M334.784718,35.3199446 C334.784718,36.9011955 334.195634,38.1207041 333.017447,38.9785069 C331.83926,39.8363096 330.185689,40.2652046 328.056684,40.2652046 C325.80366,40.2652046 324.046741,39.9086534 322.785874,39.1955402 L322.785874,36.8081733 C323.602337,37.2215723 324.478213,37.547119 325.413528,37.7848234 C326.348843,38.0225278 327.250556,38.1413782 328.118694,38.1413782 C329.46224,38.1413782 330.495722,37.9269307 331.21917,37.4980294 C331.942619,37.069128 332.304337,36.4154507 332.304337,35.536978 C332.304337,34.8755397 332.017546,34.3097084 331.443955,33.8394671 C330.870364,33.3692259 329.75162,32.8137294 328.087689,32.172961 C326.506438,31.5838676 325.382527,31.0697104 324.715921,30.630474 C324.049315,30.1912376 323.553244,29.6925827 323.227692,29.1344941 C322.902141,28.5764056 322.739367,27.9098098 322.739367,27.1346868 C322.739367,25.7498004 323.302615,24.6568934 324.429127,23.8559329 C325.555639,23.0549725 327.100694,22.6544983 329.064339,22.6544983 C330.89363,22.6544983 332.681553,23.0265518 334.428164,23.7706698 L333.513523,25.8634915 C331.808252,25.1607133 330.263197,24.8093295 328.878311,24.8093295 C327.658784,24.8093295 326.738985,25.0005236 326.118887,25.3829176 C325.498788,25.7653116 325.188744,26.2923873 325.188744,26.9641606 C325.188744,27.4188994 325.30501,27.8064551 325.537547,28.1268393 C325.770084,28.4472234 326.144721,28.7521006 326.66147,29.0414798 C327.178219,29.3308591 328.170361,29.7494192 329.637927,30.2971728 C331.653247,31.0309559 333.014859,31.7698954 333.722805,32.5140135 C334.430751,33.2581315 334.784718,34.1934326 334.784718,35.3199446 Z" id="professionals"></path>
            <path d="M51.8734648,9.57088219 L50.0996294,11.2193026 C44.919472,5.64502904 37.693454,2.42152466 29.9493607,2.42152466 C14.7466979,2.42152466 2.42152466,14.7684157 2.42152466,30 C2.42152466,45.2315843 14.7466979,57.5784753 29.9493607,57.5784753 C37.634106,57.5784753 44.8099233,54.4044479 49.9823655,48.905087 L51.7462682,50.5641316 C46.1211525,56.5447767 38.3096098,60 29.9493607,60 C13.4083715,60 -2.84217094e-13,46.5680021 -2.84217094e-13,30 C-2.84217094e-13,13.4319979 13.4083715,0 29.9493607,0 C38.3741585,0 46.2401823,3.50900899 51.8734648,9.57088219 Z M26.1953475,39.955157 L18.5061659,19.8640695 L18.3821469,19.8640695 C18.5268365,21.4556554 18.5991802,23.3469271 18.5991802,25.5379414 L18.5991802,39.955157 L16.1653062,39.955157 L16.1653062,17.290674 L20.1339161,17.290674 L27.3115191,35.9865471 L27.4355381,35.9865471 L34.6751506,17.290674 L38.6127557,17.290674 L38.6127557,39.955157 L35.9773508,39.955157 L35.9773508,25.3519128 C35.9773508,23.6776472 36.0496945,21.8587192 36.1943841,19.8950743 L36.0703651,19.8950743 L28.3191739,39.955157 L26.1953475,39.955157 Z M41.744237,22.964546 L44.503661,22.964546 L48.2242328,32.6535349 C49.0406956,34.8652192 49.5471017,36.4619486 49.7434662,37.443771 L49.8674853,37.443771 C50.0018399,36.9166874 50.2834637,36.0149745 50.7123651,34.7386053 C51.1412665,33.4622361 52.5442181,29.5375889 54.9212619,22.964546 L57.680686,22.964546 L50.3790639,42.3115191 C49.6556158,44.2234891 48.8107444,45.579934 47.8444244,46.3808944 C46.8781044,47.1818548 45.692184,47.582329 44.2866277,47.582329 C43.5011697,47.582329 42.7260583,47.4944831 41.9612703,47.3187885 L41.9612703,45.2569717 C42.5296938,45.3809914 43.1652852,45.4430003 43.8680633,45.4430003 C45.6353438,45.4430003 46.8961916,44.4508577 47.6506446,42.4665429 L48.5962899,40.0481712 L41.744237,22.964546 Z" id="my-logo" transform="translate(28.840343, 30.000000) rotate(-360.000000) translate(-28.840343, -30.000000) "></path>
        </g>
    </g>
</svg>
