<svg id="e943f9e5-dc86-4d4f-b3f4-67a4ad65f286" data-name="Layer 1" xmlns="http://www.w3.org/2000/svg" width="75" height="65" viewBox="0 0 75 65"><title>logo-short-white</title><path id="aa4066b3-5097-4fd2-af8d-11d7ead6dde6" data-name="s" d="M22.80982,47.744a15.963,15.963,0,0,1-5.54111-.784,17.54074,17.54074,0,0,1-4.4387-2.6424L11.84363,46.931H2.67612V33.10922h9.10949a5.93858,5.93858,0,0,0,2.698,3.36834,9.36154,9.36154,0,0,0,4.49672.98725,5.49383,5.49383,0,0,0,2.78507-.66784,1.99858,1.99858,0,0,0,1.16045-1.77129A2.27088,2.27088,0,0,0,21.73641,32.935a14.01078,14.01078,0,0,0-3.33627-1.27765,51.27231,51.27231,0,0,1-8.96443-3.25217,14.251,14.251,0,0,1-5.65717-4.99441,15.37287,15.37287,0,0,1-2.14682-8.595A14.51825,14.51825,0,0,1,3.4014,7.55641,12.22966,12.22966,0,0,1,8.47834,2.67815a16.45575,16.45575,0,0,1,7.775-1.74223,11.14529,11.14529,0,0,1,8.64531,3.48447L26.34918,1.749h8.12311V15.28034H25.769a8.58444,8.58444,0,0,0-2.698-3.54255,7.18506,7.18506,0,0,0-4.03254-.98727,5.58769,5.58769,0,0,0-3.04617.6969,2.17256,2.17256,0,0,0-1.07341,1.91646,2.25848,2.25848,0,0,0,1.53759,2.06164,21.99277,21.99277,0,0,0,4.38067,1.36475,40.17309,40.17309,0,0,1,8.55828,2.8747,14.05541,14.05541,0,0,1,5.62816,4.87826,14.3993,14.3993,0,0,1,2.11781,8.15948,16.45561,16.45561,0,0,1-1.76967,7.66584,13.31444,13.31444,0,0,1-5.04794,5.40094A14.27592,14.27592,0,0,1,22.80982,47.744Z" style="fill:#fff;fill-rule:evenodd"/><path id="b59d94ff-c967-4675-b8d6-043eab966bd3" data-name="t" d="M39.41167,64.06408v-10.237h4.65158V28.8744h-4.012l-1.221,7.79407H30.86437V18.87005H73.36828V36.66847H65.40243l-1.221-7.79407h-4.1283V53.82708h4.6516v10.237Z" style="fill:#fff;fill-rule:evenodd"/><path id="ed817bb7-bf4f-4b1a-a644-6df860a53d49" data-name="amp" d="M26.21051,60.71511a1.57128,1.57128,0,0,0,1.00936-.38057l-1.83849-1.97893-.05407.038-.12617.1332-.16221.19028a1.33522,1.33522,0,0,0-.12617.2664.80423.80423,0,0,0-.05407.30445v.019a1.40824,1.40824,0,0,0,.3785,1.0085A1.281,1.281,0,0,0,26.21051,60.71511ZM28.085,53.75077a1.05308,1.05308,0,0,0,.19826-.647,1.36544,1.36544,0,0,0-.25234-.79918.76453.76453,0,0,0-.68492-.32348.754.754,0,0,0-.57678.28542.92006.92006,0,0,0-.23431.62793,1.14642,1.14642,0,0,0,.16222.57085,2.3209,2.3209,0,0,0,.32444.43765,3.9685,3.9685,0,0,0,.4506.39959A4.73754,4.73754,0,0,0,28.085,53.75077Zm6.12825,2.721a9.1845,9.1845,0,0,0-.90123.85627l-1.496,1.63643q.07211.03806,1.29775,1.38906h2.01872v3.42509H30.39213v.019q-.54072-.57086-1.53206-1.69352a5.28631,5.28631,0,0,1-4.05545,1.95991,4.3142,4.3142,0,0,1-2.82981-1.00849,3.68277,3.68277,0,0,1-1.15356-2.7591,4.18548,4.18548,0,0,1,.721-2.39756A4.97178,4.97178,0,0,1,23.597,56.30055a4.29365,4.29365,0,0,1-1.04542-2.81618A3.608,3.608,0,0,1,22.894,51.886a3.12562,3.12562,0,0,1,.91924-1.19879,4.26984,4.26984,0,0,1,1.35182-.72307,5.5354,5.5354,0,0,1,1.62217-.24737,4.55235,4.55235,0,0,1,1.3338.20931,4.73156,4.73156,0,0,1,1.20763.60891,2.92532,2.92532,0,0,1,.86517,1.02753,2.96212,2.96212,0,0,1,.34246,1.37,7.1725,7.1725,0,0,1-.07211.95141,2.276,2.276,0,0,1-.27035.74211,2.91516,2.91516,0,0,1-.43259.6089,6.94687,6.94687,0,0,1-.70295.70405l1.56812,1.6174.23431-.20931q.30641-.32349.46864-.53279a.75472.75472,0,0,0,.23431-.43765q0-.32349-.23431-.32349h-.41456V53.31312h4.25372v2.683A3.67423,3.67423,0,0,0,34.21328,56.47181Z" style="fill:#fff;fill-rule:evenodd"/></svg>