<svg xmlns="http://www.w3.org/2000/svg" xmlns:xlink="http://www.w3.org/1999/xlink" width="40" height="24" viewBox="0 0 40 24">
    <defs>
        <path id="a" d="M0 .02h39.886v23.79H0z"/>
    </defs>
    <g fill="none" fill-rule="evenodd">
        <mask id="b" fill="#fff">
            <use xlink:href="#a"/>
        </mask>
        <path fill="#FFF" d="M8.405 7.347h-.902L6.33 11.683c1.07.015 1.273-.067 1.442-.101a2.28 2.28 0 0 0 1.464-.989c.192-.247.753-1.702.608-2.247-.18-.677-.771-.92-1.439-1" mask="url(#b)"/>
        <path fill="#FFF" d="M38.738 9.914c.395.528.078 1.855-.8 1.803-.563-.034-.85-.45-.906-.624 0 0 .095-.912-1.008-.331-.191.1-.511.522-.846 1.045-.43.674-1.326 4.305-1.326 4.305h-2.18l1.75-6.698 2.151.022-.333 1.315s1-1.161 1.764-1.337c.512-.118 1.229-.177 1.734.5zM27.78 16.323c-2.379-.135-2.732-2.38-2.334-3.62.766-2.39 2.59-3.007 2.938-3.12 3.094-1.012 3.65.8 3.652 1.078.004 1.567-1.462 2.266-2.56 2.52-.601.137-1.09.237-2.036.211 0 0-.122.403-.017.732.052.163.168.472.794.842 0 0 .814.265 1.487-.151.592-.367 1.107-.818 1.107-.818l.659.868s-1.287 1.594-3.69 1.458zm-3.212-.186l-5.601-.043c.05-1.364 1.511-2.94 1.714-3.074.203-.135 2.5-2.46 2.5-2.46l-3.066.008.296-1.138h5.483c-.49 1.374-.924 1.624-1.546 2.275-.845.885-1.842 1.576-2.89 3.06l3.429-.018-.32 1.39zm-13.581-4.54s-.829.905-3.013 1.204c-.861.118-2.027.084-2.027.084l-.811 3.168h-2.23l2.678-9.705 3.354.04s2.551.153 3.041 1.753c.49 1.601-.642 3.059-.992 3.457zM32.23 1.272C28.673-.03 15.31-2.236 4.563 6.348.496 9.597-2.158 14.91 2.365 19.491c2.717 2.752 6.59 3.572 6.759 3.572.168 0 3.514-12.807 3.514-12.807s.693-2.966 1.487-4.415c.793-1.447 2.4-2.039 2.906-2.09.878-.087 1.711-.011 2.214.161.862.295 1.236.926 1.3 1.188.313 1.272-.608 1.815-1.216 1.845-.676.034-1.088-.346-1.183-.598-.101-.27-.165-.81.148-1.124.224-.224.123-.68-.046-.797 0 0-.606-.2-1.293.261-.451.303-1.054 1.694-1.174 2.098-.068.226-.66 2.645-.66 2.645l4.293.017-1.808 6.606h-2.13l1.42-5.493h-2.163l-3.415 12.922c3.798.349 12.149 1.566 22.34-4.74 5.248-3.248 11.528-12.73-1.428-17.47z" mask="url(#b)"/>
        <path fill="#FFF" d="M29.558 11.987c.38-.266.687-.64.766-1.124.079-.5-.468-.61-1.037-.427-1.034.335-1.678 1.303-1.712 2.118 0 0 .997.118 1.983-.567"/>
    </g>
</svg>
