<svg width="40px" height="45px" viewBox="0 0 40 45" version="1.1" xmlns="http://www.w3.org/2000/svg" xmlns:xlink="http://www.w3.org/1999/xlink">
    <g id="Campaign" stroke="none" stroke-width="1" fill="none" fill-rule="evenodd">
        <g id="D-pfizer-mbc-homepage" transform="translate(-799.000000, -2673.000000)" fill="#FFFFFF" fill-rule="nonzero">
            <g id="Group-33" transform="translate(0.000000, 1676.000000)">
                <g id="Group-8" transform="translate(0.000000, 689.000000)">
                    <g id="Group-11" transform="translate(755.000000, 142.000000)">
                        <g id="Group-12" transform="translate(20.000000, 145.000000)">
                            <g id="np_apple_1051045_000000" transform="translate(24.194175, 21.601942)">
                                <path d="M37.5983804,16.6958951 C35.6549574,13.2986168 31.6953456,11.0669244 27.6711946,11.0999202 C25.1711577,11.1210813 22.7210677,12.0252284 20.7643255,13.5219042 C20.9976851,12.2464967 21.0474214,11.0499341 20.9613414,9.94186903 C20.9709057,9.97072502 20.9766438,9.98996201 20.9766438,9.98996201 C31.4586317,10.5574391 30.5483254,0.000139686061 30.5483254,0.000139686061 C21.715074,0.563775459 20.5613992,5.23660904 20.6627619,7.98559539 C20.1329333,5.66944388 19.0865953,3.85921027 18.2430808,2.70135612 C17.6386257,1.87222796 16.4297644,1.81451008 15.7334952,2.56861978 L14.8172639,3.5612491 C14.1515994,4.28070345 14.275928,5.40226231 15.0487138,6.00436025 C17.9255558,8.25319065 18.9125452,11.5890083 19.212863,14.1764634 C17.154709,12.2893054 14.3715909,11.1235224 11.5254516,11.1004254 C7.50090884,11.0677223 3.54129702,13.2992205 1.59826573,16.6964004 C-0.865388275,21.0017011 -0.0314223962,26.3267171 1.33047214,31.0648034 C2.15297962,33.9253842 3.1648445,36.7838967 4.9207709,39.2211474 C6.67669729,41.6604172 9.26854827,43.6591697 12.2962592,44.1961134 C14.9282635,44.6616534 17.8643562,43.8325301 19.5992755,41.918424 C21.3341948,43.8325203 24.2684267,44.6616485 26.9022918,44.1961134 C29.9302476,43.6594159 32.5222944,41.6606635 34.2777801,39.2211474 C36.0337065,36.7818775 37.0455714,33.9231189 37.8680788,31.0648034 C39.2280539,26.3266679 40.0620687,21.0016026 37.5983755,16.6964004 L37.5983804,16.6958951 Z" id="Shape"></path>
                            </g>
                        </g>
                    </g>
                </g>
            </g>
        </g>
    </g>
</svg>
