<svg width="38px" height="36px" viewBox="0 0 38 36" version="1.1" xmlns="http://www.w3.org/2000/svg" xmlns:xlink="http://www.w3.org/1999/xlink">
    <g id="Campaign" stroke="none" stroke-width="1" fill="none" fill-rule="evenodd">
        <g id="D-pfizer-mbc-homepage" transform="translate(-1040.000000, -2678.000000)" fill="#FFFFFF" fill-rule="nonzero">
            <g id="Group-33" transform="translate(0.000000, 1676.000000)">
                <g id="Group-8" transform="translate(0.000000, 689.000000)">
                    <g id="Group-11" transform="translate(755.000000, 142.000000)">
                        <g id="Group-14" transform="translate(260.000000, 145.000000)">
                            <g id="np_check-box_192276_000000" transform="translate(25.922330, 26.786408)">
                                <path d="M36.0346049,0.920770277 C34.8327373,-0.306433133 32.8849428,-0.306433133 31.6816716,0.920770277 L16.9289768,15.9833259 L11.4103365,10.349482 C10.2099094,9.12227864 8.25775638,9.12227864 7.05740317,10.349482 C5.85553557,11.5766855 5.85553557,13.5655402 7.05740317,14.7941768 L14.7519561,22.6509337 C15.3536102,23.2652709 16.1413858,23.571704 16.9291615,23.571704 C17.7169371,23.571704 18.5047128,23.2652709 19.1049263,22.6509337 L36.0335338,5.36546501 C37.2368419,4.1382616 37.2368419,2.14793597 36.0349765,0.920770277 L36.0346049,0.920770277 Z" id="Shape"></path>
                                <path d="M32.3191907,15.7150225 C31.4679217,15.7150225 30.7796892,16.4192341 30.7796892,17.2869773 L30.7796892,28.2876439 C30.7796892,30.0216594 29.3989025,31.430045 27.7021635,31.430045 L6.15652881,31.4285714 C4.45831232,31.4285714 3.07900313,30.0186773 3.07900313,28.2861704 L3.07756003,6.28634579 C3.07756003,4.55233026 4.45834667,3.14394473 6.15508572,3.14394473 L23.0836931,3.14394473 C23.9349622,3.14394473 24.6231947,2.4397331 24.6231947,1.5719899 C24.6231947,0.7042467 23.9349622,3.50748078e-05 23.0836931,3.50748078e-05 L6.15656316,3.50748078e-05 C2.7702507,3.50748078e-05 3.43506827e-05,2.82864861 3.43506827e-05,6.28634579 L3.43506827e-05,28.2861704 C3.43506827e-05,31.7438676 2.7702507,34.5724811 6.15656316,34.5724811 L27.7021978,34.5724811 C31.0885103,34.5724811 33.8587267,31.7438676 33.8587267,28.2861704 L33.8587267,17.2855038 C33.8587267,16.4192315 33.1704941,15.7150198 32.3192251,15.7150198 L32.3191907,15.7150225 Z" id="Shape"></path>
                            </g>
                        </g>
                    </g>
                </g>
            </g>
        </g>
    </g>
</svg>
