<svg width="46px" height="42px" viewBox="0 0 46 42" version="1.1" xmlns="http://www.w3.org/2000/svg" xmlns:xlink="http://www.w3.org/1999/xlink">
    <g id="Campaign" stroke="none" stroke-width="1" fill="none" fill-rule="evenodd">
        <g id="D-pfizer-mbc-homepage" transform="translate(-912.000000, -2530.000000)" fill="#FFFFFF" fill-rule="nonzero">
            <g id="Group-33" transform="translate(0.000000, 1676.000000)">
                <g id="Group-8" transform="translate(0.000000, 689.000000)">
                    <g id="Group-11" transform="translate(755.000000, 142.000000)">
                        <g id="Group-7" transform="translate(135.000000, 0.000000)">
                            <path d="M29.0128175,52.8402596 L29.2324015,52.9079253 L29.1838215,53.1302544 C28.3113257,57.1147753 30.1184999,61.1613595 33.6764861,63.2029142 C35.1047447,64.0226046 36.7253713,64.4556617 38.3635084,64.4556617 C40.7225652,64.4556617 42.9727777,63.5895475 44.7021491,62.0158429 L44.8712061,61.8611797 L45.040263,62.0158429 C48.0444762,64.7417763 52.4479461,65.2231873 55.9958339,63.2183558 L56.0696769,63.17969 C59.6218428,61.1323446 61.4193662,57.0822465 60.5410004,53.0996063 L60.4924204,52.8772773 L60.7120044,52.8076813 C64.6139844,51.576166 67.2371927,47.9918393 67.2371927,43.8876957 L67.2371927,43.8142294 C67.2138743,39.7156783 64.5749835,36.1528313 60.6732025,34.9328477 L60.4536185,34.8651819 L60.502199,34.6428529 C61.3669344,30.6621923 59.5519501,26.6176868 55.9862035,24.5820712 C52.4145869,22.5443769 47.9840552,23.027718 44.9664603,25.7865142 L44.7974033,25.9411775 L44.6264013,25.7884494 C42.8541986,24.1915329 40.6117465,23.3679821 38.3459635,23.3679821 C36.7214567,23.3679821 35.0852597,23.7894382 33.6006388,24.6517117 C30.0445927,26.7067778 28.2549291,30.7610333 29.1448858,34.7416938 L29.1954079,34.9640228 L28.9758239,35.0336188 C25.0699636,36.2767153 22.4546152,39.861042 22.4660568,43.9521197 C22.4718865,48.0429499 25.102995,51.6135178 29.0126359,52.8414202 L29.0128175,52.8402596 Z M38.6919049,41.7450902 C37.9204433,42.2129452 36.9294027,42.269015 36.0918783,41.789556 C34.8734982,41.0896863 34.4556812,39.5391935 35.15914,38.3270297 C35.8625988,37.1148658 37.4210428,36.6991805 38.6394229,37.3990502 C39.4769472,37.8804414 39.9238657,38.7620169 39.9005845,39.6609939 L43.6392981,41.8088579 L43.6392981,37.5130803 C42.8464456,37.0838886 42.3004331,36.256423 42.3004331,35.2955807 C42.3004331,33.8958908 43.4411098,32.7610338 44.8479776,32.7610338 C46.2548455,32.7610338 47.3955222,33.8958908 47.3955222,35.2955807 C47.3955222,36.2583532 46.8514,37.0838837 46.0566572,37.5130803 L46.0566572,41.8088579 L49.7953708,39.6609939 C49.7720523,38.7620169 50.2189882,37.8804117 51.0565324,37.3990502 C52.2749125,36.6991805 53.8333565,37.1148559 54.5368153,38.3270297 C55.2402741,39.5391935 54.822467,41.0896863 53.604077,41.789556 C52.7665526,42.2709471 51.775512,42.2148823 51.0040503,41.7450902 L47.2730972,43.8929542 L51.0118107,46.0408182 C51.7832723,45.5729632 52.774313,45.5168934 53.6118374,45.9963524 C54.8302174,46.6962221 55.2480344,48.2467149 54.5445757,49.4588787 C53.8411169,50.6710426 52.2826729,51.0867279 51.0642928,50.3868582 C50.2267684,49.905467 49.77985,49.0219613 49.8031311,48.1249145 L46.0644176,45.9770505 L46.0644176,50.2728281 C46.85727,50.7020198 47.4032826,51.5294854 47.4032826,52.4903277 C47.4032826,53.8900176 46.2626058,55.0248746 44.855738,55.0248746 C43.4488702,55.0248746 42.3081935,53.8900176 42.3081935,52.4903277 C42.3081935,51.5275552 42.8523157,50.7020247 43.6470584,50.2728281 L43.6470584,45.9770505 L39.9083449,48.1249145 C39.9316634,49.0238915 39.4827824,49.9054967 38.6471832,50.3868582 C37.4288032,51.0867279 35.8703592,50.6710525 35.1669004,49.4588787 C34.4634416,48.2467149 34.8812487,46.6962221 36.0996387,45.9963524 C36.937163,45.5149613 37.9301438,45.5710261 38.6996653,46.0408182 L42.4306185,43.8929542 L38.6919049,41.7450902 Z" id="Shape"></path>
                        </g>
                    </g>
                </g>
            </g>
        </g>
    </g>
</svg>
