<svg width="92px" height="78px" viewBox="0 0 92 78" version="1.1" xmlns="http://www.w3.org/2000/svg" xmlns:xlink="http://www.w3.org/1999/xlink">
    <g id="Campaign" stroke="none" stroke-width="1" fill="none" fill-rule="evenodd">
        <g id="D-pfizer-mbc-kampagne" transform="translate(-814.000000, -3338.000000)" fill="#FFFFFF" fill-rule="nonzero">
            <g id="Group-7-Copy-4" transform="translate(550.000000, 3284.000000)">
                <g id="anton-darius-thesollers-408264-unsplash">
                    <g id="Group-10" transform="translate(80.000000, 54.000000)">
                        <g id="Group-11">
                            <g id="Group-35">
                                <g id="Group-36">
                                    <path d="M208.179438,0.0012 C201.995838,0.0012 195.812438,2.345 191.085438,7.0012 C181.632338,16.3176 181.644038,31.4892 191.085438,40.8132 L227.835438,77.1252 C229.007338,78.2814 230.886238,78.2814 232.054238,77.1252 C244.320238,65.0352 256.570238,52.9652 268.835238,40.8752 C278.288338,31.5588 278.288338,16.3482 268.835238,7.0312 C259.382138,-2.2858 244.101238,-2.2852 234.647238,7.0312 L229.991038,11.625 L225.272238,7 C220.545638,2.3438 214.362238,0 208.178238,0 L208.179438,0.0012 Z" id="Shape"></path>
                                </g>
                            </g>
                        </g>
                    </g>
                </g>
            </g>
        </g>
    </g>
</svg>
