<svg width="38px" height="38px" viewBox="0 0 38 38" version="1.1" xmlns="http://www.w3.org/2000/svg" xmlns:xlink="http://www.w3.org/1999/xlink">
    <defs>
        <polygon id="path-1" points="3.76984127e-05 0.0119956349 37.9880119 0.0119956349 37.9880119 38 3.76984127e-05 38"></polygon>
    </defs>
    <g id="Campaign" stroke="none" stroke-width="1" fill="none" fill-rule="evenodd">
        <g id="D-pfizer-mbc-kampagne" transform="translate(-1033.000000, -1517.000000)">
            <g id="Steckbrief" transform="translate(368.000000, 1332.000000)">
                <g id="Group-8" transform="translate(665.000000, 185.000000)">
                    <g id="Group-3">
                        <mask id="mask-2" fill="white">
                            <use xlink:href="#path-1"></use>
                        </mask>
                        <g id="Clip-2"></g>
                        <path d="M18.994006,0.0119956349 C13.8355813,0.0119956349 13.1886766,0.0338607143 11.1628393,0.126297222 C9.14107341,0.21850754 7.76040675,0.539622619 6.55217262,1.00919405 C5.30322421,1.49452341 4.24389881,2.14399167 3.18796627,3.19992421 C2.13195833,4.25593214 1.48256548,5.31518214 0.997160714,6.56413056 C0.527589286,7.77236468 0.206549603,9.15303135 0.114263889,11.1747972 C0.021827381,13.2007099 3.76984127e-05,13.8474639 3.76984127e-05,19.0059639 C3.76984127e-05,24.1644639 0.021827381,24.8112933 0.114263889,26.837206 C0.206549603,28.8588964 0.527589286,30.2396385 0.997160714,31.4477972 C1.48256548,32.6967456 2.13195833,33.756071 3.18796627,34.8120036 C4.24389881,35.8680115 5.30322421,36.5174044 6.55217262,37.0028845 C7.76040675,37.4723806 9.14107341,37.7934956 11.1628393,37.8857813 C13.1886766,37.9781425 13.8355813,38.0000075 18.994006,38.0000075 C24.152506,38.0000075 24.7992599,37.9781425 26.8251726,37.8857813 C28.8469385,37.7934956 30.2276052,37.4723806 31.4358393,37.0028845 C32.6848631,36.5174044 33.7441131,35.8680115 34.8000456,34.8120036 C35.8560536,33.756071 36.5054464,32.696821 36.9908512,31.4477972 C37.4604226,30.2396385 37.7815377,28.8588964 37.873748,26.837206 C37.9661845,24.8112933 37.9880496,24.1644639 37.9880496,19.0059639 C37.9880496,13.8475393 37.9661845,13.2007099 37.873748,11.1747972 C37.7815377,9.15303135 37.4604226,7.77236468 36.9908512,6.56413056 C36.5054464,5.31518214 35.8560536,4.25593214 34.8000456,3.19992421 C33.7441131,2.14399167 32.6848631,1.49452341 31.4358393,1.00919405 C30.2276052,0.539622619 28.8469385,0.21850754 26.8251726,0.126297222 C24.7992599,0.0338607143 24.152506,0.0119956349 18.994006,0.0119956349 M18.994006,3.43433294 C24.0656488,3.43433294 24.6663353,3.45363452 26.6691766,3.54501548 C28.5210734,3.62953532 29.5267917,3.93896389 30.1960893,4.19908294 C31.0826806,4.54364643 31.7154861,4.9552377 32.3801091,5.61986071 C33.0447321,6.28455913 33.4563234,6.91728929 33.8009623,7.80388056 C34.061006,8.47317817 34.3704345,9.47889643 34.4549544,11.3307933 C34.5462599,13.3336345 34.5656369,13.9343964 34.5656369,19.0059639 C34.5656369,24.0776067 34.5462599,24.6783687 34.4549544,26.6811345 C34.3704345,28.5331067 34.061006,29.538825 33.8009623,30.2081226 C33.4563234,31.0946385 33.0447321,31.727444 32.3801091,32.3920671 C31.7154861,33.0567655 31.0826806,33.4683567 30.1960893,33.8129202 C29.5267917,34.0729639 28.5210734,34.3824679 26.6691766,34.4669123 C24.6666369,34.5582933 24.0660258,34.5776702 18.994006,34.5776702 C13.9219861,34.5776702 13.321375,34.5582933 11.3188353,34.4669123 C9.46693849,34.3824679 8.46114484,34.0729639 7.79184722,33.8129202 C6.90533135,33.4683567 6.27252579,33.0567655 5.60790278,32.3920671 C4.94327976,31.727444 4.5316131,31.0946385 4.1870496,30.2081226 C3.92700595,29.538825 3.61757738,28.5331067 3.53305754,26.6812099 C3.44167659,24.6783687 3.422375,24.0776067 3.422375,19.0059639 C3.422375,13.9343964 3.44167659,13.3336345 3.53305754,11.3307933 C3.61757738,9.47889643 3.92700595,8.47317817 4.1870496,7.80388056 C4.5316131,6.91728929 4.94327976,6.28455913 5.60790278,5.61993611 C6.27252579,4.9552377 6.90533135,4.54364643 7.79184722,4.19908294 C8.46114484,3.93896389 9.46693849,3.62953532 11.3187599,3.54501548 C13.3216766,3.45363452 13.9223631,3.43433294 18.994006,3.43433294" id="Fill-1" fill="#FFFFFF" mask="url(#mask-2)"></path>
                    </g>
                    <path d="M18.5000367,24.6666705 C15.0942994,24.6666705 12.3333295,21.9057006 12.3333295,18.4999633 C12.3333295,15.094226 15.0942994,12.3333295 18.5000367,12.3333295 C21.905774,12.3333295 24.666744,15.094226 24.666744,18.4999633 C24.666744,21.9057006 21.905774,24.6666705 18.5000367,24.6666705 M18.5000367,9 C13.2533346,9 9,13.2532611 9,18.4999633 C9,23.7467389 13.2533346,28 18.5000367,28 C23.7467389,28 28,23.7467389 28,18.4999633 C28,13.2532611 23.7467389,9 18.5000367,9" id="Fill-4" fill="#FFFFFF"></path>
                    <path d="M32,9.5 C32,10.8807476 30.8807661,12 29.5000413,12 C28.1193166,12 27,10.8807476 27,9.5 C27,8.1192524 28.1193166,7 29.5000413,7 C30.8807661,7 32,8.1192524 32,9.5" id="Fill-6" fill="#FFFFFF"></path>
                </g>
            </g>
        </g>
    </g>
</svg>
