<svg width="44px" height="220px" viewBox="0 0 44 220" version="1.1" xmlns="http://www.w3.org/2000/svg" xmlns:xlink="http://www.w3.org/1999/xlink">
    <g id="Page-1" stroke="none" stroke-width="1" fill="none" fill-rule="evenodd">
        <g id="Arrows" transform="translate(21.500000, 44.500000) scale(-1, 1) rotate(-90.000000) translate(-21.500000, -44.500000) translate(-23.000000, 22.000000)" fill="#7C65A4">
            <path d="M44.3074,44.0092 C45.1994,43.9542 46.0454,43.6022 46.7134,43.0092 L86.7134,7.0092 C88.3674,5.5302 88.5084,2.9912 87.0304,1.3392 C85.5504,-0.3148 83.0114,-0.4558 81.3594,1.0232 C81.3524,1.0292 81.3454,1.0342 81.3384,1.0412 L44.0264,34.6342 L6.7134,1.0412 C5.0704,-0.4488 2.5304,-0.3248 1.0404,1.3192 C-0.4486,2.9622 -0.3246,5.5012 1.3184,6.9912 C1.3254,6.9972 1.3314,7.0032 1.3384,7.0092 L41.3384,43.0092 C42.1514,43.7332 43.2234,44.0932 44.3074,44.0092" id="Fill-1"></path>
        </g>
        <g id="Arrows" transform="translate(22.500000, 175.500000) scale(-1, 1) rotate(90.000000) translate(-22.500000, -175.500000) translate(-22.000000, 153.000000)" fill="#7C65A4">
            <path d="M44.3074,44.0092 C45.1994,43.9542 46.0454,43.6022 46.7134,43.0092 L86.7134,7.0092 C88.3674,5.5302 88.5084,2.9912 87.0304,1.3392 C85.5504,-0.3148 83.0114,-0.4558 81.3594,1.0232 C81.3524,1.0292 81.3454,1.0342 81.3384,1.0412 L44.0264,34.6342 L6.7134,1.0412 C5.0704,-0.4488 2.5304,-0.3248 1.0404,1.3192 C-0.4486,2.9622 -0.3246,5.5012 1.3184,6.9912 C1.3254,6.9972 1.3314,7.0032 1.3384,7.0092 L41.3384,43.0092 C42.1514,43.7332 43.2234,44.0932 44.3074,44.0092" id="Fill-1"></path>
        </g>
    </g>
</svg>
