<svg width="127px" height="30px" viewBox="0 0 127 30" version="1.1" xmlns="http://www.w3.org/2000/svg" xmlns:xlink="http://www.w3.org/1999/xlink">
    <defs>
        <polygon points="0.0575454545 0.156353425 24.6032231 0.156353425 24.6032231 18.7557769 0.0575454545 18.7557769"></polygon>
        <polygon points="9.91735537e-05 0.156942149 39.5795207 0.156942149 39.5795207 29.4446529 9.91735537e-05 29.4446529"></polygon>
        <polygon points="0 29.8430579 126.256116 29.8430579 126.256116 0.247933884 0 0.247933884"></polygon>
    </defs>
    <g stroke="none" stroke-width="1" fill="none" fill-rule="evenodd">
        <g transform="translate(-163.000000, -40.000000)">
            <g transform="translate(163.000000, 40.000000)">
                <path d="M82.0815124,20.806438 C82.0815124,23.6237107 83.4528347,23.9465207 86.8138264,23.9465207 L88.3763058,23.9465207 C92.6035785,23.9465207 93.1505207,23.2056942 93.1505207,20.9142893 L93.1505207,19.0200744 C93.0158926,17.4573471 92.7379587,16.2206529 88.2449008,16.3550331 L86.5448182,16.3550331 C83.1419256,16.3550331 82.1501901,17.191562 82.0815124,18.9900744 L82.0815124,20.806438 Z M74.8485372,17.8158595 C75.4520083,12.3367686 78.445562,11.2523058 82.4251488,10.902719 C86.4015124,10.5533802 88.7139917,10.5682562 92.8277107,10.902719 C96.9354793,11.240405 100.404074,12.3218926 100.472752,17.8158595 L100.472752,22.1928843 C100.266719,27.6211488 97.6795289,29.1119752 92.8277107,29.4377603 C89.0363058,29.697595 86.5537438,29.6137934 82.4251488,29.4377603 C79.2012645,29.300157 75.4011818,28.3860248 74.8485372,22.5243719 C74.7290331,21.2576777 74.6603554,19.4861901 74.8485372,17.8158595 L74.8485372,17.8158595 Z" fill="#FEFEFE"></path>
                <g transform="translate(101.652893, 10.752149)">
                    <mask fill="white">
                        <use xlink:href="#path-1"></use>
                    </mask>
                    <g></g>
                    <path d="M0.0575454545,0.456768595 L7.28432231,0.456768595 L7.28432231,2.43453719 L7.35622314,2.43453719 C9.39671901,0.689826446 10.8394463,0.176107438 13.937876,0.158008264 C19.4677934,0.116107438 24.5375455,0.818256198 24.6032479,8.24238843 L24.6032479,18.7557769 L17.3405207,18.7557769 L17.3405207,8.24238843 C17.3405207,6.44387603 16.1303554,5.81957851 13.0864711,5.81957851 L11.7597769,5.81957851 C8.78729752,5.81957851 7.27242149,6.91296694 7.27242149,9.5328843 L7.27242149,18.7557769 L0.0575454545,18.7557769 L0.0575454545,0.456768595 Z" fill="#FEFEFE" mask="url(#mask-2)"></path>
                </g>
                <g transform="translate(0.000000, 0.090992)">
                    <mask fill="white">
                        <use xlink:href="#path-3"></use>
                    </mask>
                    <g></g>
                    <path d="M15.3174545,18.734157 L24.7101818,18.734157 L19.9629917,9.873 L15.3174545,18.734157 Z M14.5793554,3.43787603 C14.5793554,3.43787603 16.5481983,0.103661157 20.0135702,0.15746281 C23.9125785,0.223165289 25.226876,3.43787603 25.226876,3.43787603 L39.5795207,29.417876 L30.2581983,29.417876 L27.6888595,24.685562 L12.2966281,24.685562 L9.8081157,29.4446529 L9.91735537e-05,29.4446529 L14.5793554,3.43787603 Z" fill="#FEFEFE" mask="url(#mask-4)"></path>
                </g>
                <path d="M72,13.429314 L66.8610744,19.4372479 C65.9977686,17.588157 65.414876,16.999562 62.7473554,16.7248512 C62.7473554,16.7248512 62.3531405,16.6737769 60.3632231,16.7573306 C57.9701653,16.8562562 56.3152066,17.8209669 56.1208264,19.7270826 C56.0461983,20.4470826 56.1208264,21.349314 56.1208264,21.349314 C56.4557851,23.333281 57.3069421,24.1936116 59.9422314,24.1127851 C59.9422314,24.1127851 63.4879339,24.2979917 65.1882645,23.9573306 C67.6884298,23.4557603 71.1245455,22.9417934 73.2753719,19.924438 L73.4938017,19.9960909 C73.5084298,20.3278264 73.4819008,23.3660083 73.4819008,23.3660083 C73.4789256,29.3531157 69.3590083,29.4488182 65.4570248,29.7443554 C63.697438,29.8757603 60.1033884,29.8757603 58.3557025,29.7443554 C53.441157,29.3739421 48.8940496,28.887 48.8940496,21.0654298 L48.8940496,19.6854298 C49.0971074,13.9103058 51.0480992,12.6763388 53.1870248,11.9325372 C55.7266116,11.0511322 63.0461157,10.4955124 67.2195868,11.2633636 C67.9100826,11.3888182 70.47,11.6129504 72,13.429314" fill="#FEFEFE"></path>
                <mask fill="white">
                    <use xlink:href="#path-5"></use>
                </mask>
                <g></g>
                <polygon fill="#FEFEFE" mask="url(#mask-6)" points="40.2252893 29.5061157 47.4909917 29.5061157 47.4909917 3.6307438 40.2252893 3.6307438"></polygon>
            </g>
        </g>
    </g>
</svg>
