<svg width="107px" height="40px" viewBox="0 0 107 40" version="1.1" xmlns="http://www.w3.org/2000/svg" xmlns:xlink="http://www.w3.org/1999/xlink">
    <g id="Symbols" stroke="none" stroke-width="1" fill="none" fill-rule="evenodd">
        <g id="Brands/Dalies/Gold" fill-rule="nonzero">
            <g id="Dailies-Color-Contact_Logo_Gold">
                <path d="M80.0716667,1.49253731 L79.8338889,1.49253731 L79.8338889,1.91044776 L80.0716667,1.91044776 C80.1905556,1.91044776 80.3688889,1.85074627 80.3688889,1.67164179 C80.3688889,1.49253731 80.1905556,1.49253731 80.0716667,1.49253731 L80.0716667,1.49253731 Z M80.3688889,2.86567164 C80.3094444,2.74626866 80.1905556,2.32835821 80.1311111,2.20895522 L79.8338889,2.20895522 L79.8338889,2.86567164 L79.4772222,2.86567164 L79.4772222,1.19402985 L80.0716667,1.19402985 C80.5472222,1.19402985 80.7255556,1.37313433 80.7255556,1.67164179 C80.7255556,1.97014925 80.6066667,2.08955224 80.4877778,2.14925373 C80.4877778,2.20895522 80.7255556,2.80597015 80.785,2.86567164 L80.3688889,2.86567164 Z M80.0716667,0.71641791 C79.3583333,0.71641791 78.7044444,1.31343284 78.7044444,2.02985075 C78.7044444,2.74626866 79.2988889,3.40298507 80.0716667,3.40298507 C80.785,3.40298507 81.4388889,2.80597015 81.4388889,2.02985075 C81.4388889,1.31343284 80.785,0.71641791 80.0716667,0.71641791 L80.0716667,0.71641791 Z M80.0716667,3.82089552 C79.1205556,3.82089552 78.3477778,3.04477612 78.3477778,2.08955224 C78.3477778,1.13432836 79.1205556,0.358208955 80.0716667,0.358208955 C81.0227778,0.358208955 81.7955556,1.13432836 81.7955556,2.08955224 C81.7955556,2.98507463 81.0227778,3.82089552 80.0716667,3.82089552 L80.0716667,3.82089552 Z M51.1222222,22.4477612 C51.0627778,22.3283582 50.9438889,22.1492537 50.825,21.9701493 C50.7061111,21.7910448 50.5277778,21.6119403 50.3494444,21.3731343 C50.1711111,21.1940299 49.9333333,21.0149254 49.6361111,20.8955224 C49.3388889,20.7761194 49.0416667,20.7164179 48.6255556,20.7164179 C48.3283333,20.7164179 48.0905556,20.7761194 47.8527778,20.8358209 C47.615,20.8955224 47.4366667,21.0149254 47.2583333,21.1940299 C47.08,21.3731343 46.9611111,21.5522388 46.8422222,21.7313433 C46.7233333,21.9104478 46.7233333,22.1492537 46.7233333,22.3880597 C46.7233333,22.6268657 46.7827778,22.8059701 46.8422222,22.9850746 C46.9016667,23.1641791 47.0205556,23.2835821 47.1394444,23.4029851 C47.2583333,23.5223881 47.3772222,23.641791 47.5555556,23.7014925 C47.7338889,23.761194 47.8527778,23.8208955 48.0311111,23.880597 C48.0905556,23.880597 48.2094444,23.9402985 48.3283333,23.9402985 C48.4472222,24 48.6255556,24 48.8038889,24.0597015 C48.9822222,24.119403 49.1011111,24.119403 49.2794444,24.1791045 C49.4577778,24.238806 49.5172222,24.238806 49.5766667,24.238806 C49.6955556,24.2985075 49.8738889,24.358209 50.1116667,24.4179104 C50.3494444,24.5373134 50.5872222,24.6567164 50.825,24.8358209 C51.0627778,25.0149254 51.2411111,25.2537313 51.4194444,25.5522388 C51.5977778,25.8507463 51.6572222,26.2686567 51.6572222,26.7462687 C51.6572222,27.1044776 51.5977778,27.4626866 51.4788889,27.8208955 C51.36,28.1791045 51.1222222,28.4776119 50.8844444,28.7761194 C50.5872222,29.0746269 50.2305556,29.3134328 49.8144444,29.4925373 C49.3983333,29.6716418 48.8633333,29.7313433 48.2688889,29.7313433 C47.6744444,29.7313433 47.1988889,29.6716418 46.7827778,29.4925373 C46.3666667,29.3134328 46.0694444,29.1343284 45.7722222,28.8358209 C45.5344444,28.5970149 45.3561111,28.2985075 45.2372222,27.9402985 C45.1183333,27.641791 45.0588889,27.2835821 45.0588889,26.9850746 C45.1183333,26.9850746 45.1777778,26.9253731 45.2372222,26.9253731 C45.2966667,26.9253731 45.3561111,26.8656716 45.4155556,26.8656716 C45.475,27.0447761 45.5938889,27.2238806 45.7127778,27.4626866 C45.8316667,27.7014925 46.0694444,27.9402985 46.3666667,28.1791045 C46.6638889,28.4179104 47.0205556,28.5970149 47.3177778,28.6567164 C47.6744444,28.7164179 47.9122222,28.7761194 48.2094444,28.7761194 C48.5066667,28.7761194 48.8038889,28.7164179 49.0416667,28.6567164 C49.2794444,28.5970149 49.5172222,28.4179104 49.755,28.2985075 C49.9333333,28.119403 50.1116667,27.9402985 50.2305556,27.7014925 C50.3494444,27.4626866 50.4088889,27.2238806 50.4088889,26.9253731 C50.4088889,26.7462687 50.4088889,26.6268657 50.3494444,26.4477612 C50.29,26.2686567 50.2305556,26.0895522 50.1116667,25.9701493 C50.0522222,25.9104478 49.9927778,25.7910448 49.9333333,25.7313433 C49.8738889,25.6716418 49.755,25.6119403 49.6361111,25.5522388 C49.5172222,25.4925373 49.3983333,25.4328358 49.22,25.3731343 C49.0416667,25.3134328 48.8633333,25.2537313 48.6255556,25.1940299 C48.5661111,25.1940299 48.5066667,25.1940299 48.4472222,25.1343284 C48.3283333,25.1343284 48.2688889,25.0746269 48.15,25.0746269 C48.0311111,25.0746269 47.9716667,25.0149254 47.8527778,25.0149254 C47.7338889,25.0149254 47.6744444,24.9552239 47.6744444,24.9552239 C47.5555556,24.8955224 47.3772222,24.8358209 47.08,24.7761194 C46.8422222,24.7164179 46.6044444,24.5373134 46.3666667,24.358209 C46.1288889,24.1791045 45.8911111,23.9402985 45.7127778,23.641791 C45.5344444,23.3432836 45.475,22.9253731 45.475,22.5074627 C45.475,22.1492537 45.5344444,21.7910448 45.7127778,21.4925373 C45.8316667,21.1940299 46.0694444,20.8955224 46.3072222,20.6567164 C46.6044444,20.4179104 46.9016667,20.238806 47.2583333,20.0597015 C47.615,19.9402985 48.0311111,19.8208955 48.5066667,19.8208955 C49.2794444,19.8208955 49.9333333,20 50.4683333,20.4179104 C51.0033333,20.8358209 51.3005556,21.4328358 51.4194444,22.2686567 C51.36,22.2686567 51.3005556,22.3283582 51.2411111,22.3283582 C51.2411111,22.4477612 51.1816667,22.4477612 51.1222222,22.4477612 L51.1222222,22.4477612 Z M38.7577778,24.7761194 C39.2927778,24.7761194 39.7683333,24.7164179 40.2438889,24.6567164 C40.66,24.5373134 41.0166667,24.4179104 41.3138889,24.238806 C41.6111111,24.0597015 41.8488889,23.8208955 42.0272222,23.5223881 C42.2055556,23.2238806 42.265,22.9253731 42.265,22.6268657 C42.265,22.4477612 42.265,22.2686567 42.2055556,22.0895522 C42.1461111,21.9104478 42.0272222,21.7313433 41.9083333,21.5522388 C41.6705556,21.3134328 41.4327778,21.1343284 41.1355556,21.0746269 C40.8383333,21.0149254 40.4816667,20.9552239 40.125,20.9552239 L38.8172222,20.9552239 L38.8172222,24.7761194 L38.7577778,24.7761194 Z M44.5238889,29.5522388 L43.0972222,29.5522388 L40.6005556,25.1940299 C40.4816667,25.1940299 40.3033333,25.2537313 40.1844444,25.2537313 C40.0061111,25.2537313 39.7683333,25.2537313 39.4116667,25.2537313 C39.2927778,25.2537313 39.1738889,25.2537313 39.055,25.2537313 C38.9361111,25.2537313 38.8766667,25.2537313 38.7577778,25.2537313 L38.7577778,29.5522388 L37.45,29.5522388 L37.45,20.119403 L40.0061111,20.119403 C40.3627778,20.119403 40.66,20.119403 40.8977778,20.119403 C41.1355556,20.119403 41.3733333,20.1791045 41.6111111,20.1791045 C41.8488889,20.1791045 42.0272222,20.2985075 42.1461111,20.358209 C42.3244444,20.4179104 42.4433333,20.5373134 42.6216667,20.5970149 C42.9188889,20.7761194 43.1566667,21.0746269 43.335,21.4328358 C43.5133333,21.7910448 43.5727778,22.1492537 43.5727778,22.5074627 C43.5727778,23.0447761 43.3944444,23.5820896 43.0972222,24 C42.8594444,24.2985075 42.6216667,24.4776119 42.3838889,24.5970149 C42.1461111,24.7164179 41.9677778,24.8358209 41.7894444,24.8955224 L44.5238889,29.5522388 Z M34.24,24.7761194 C34.24,24.238806 34.1805556,23.761194 34.0616667,23.2835821 C33.9427778,22.8059701 33.7644444,22.3283582 33.4672222,21.9701493 C33.2294444,21.6119403 32.8727778,21.2537313 32.4566667,21.0149254 C32.0405556,20.7761194 31.565,20.6567164 31.03,20.6567164 C30.5544444,20.6567164 30.0788889,20.7761194 29.6627778,20.9552239 C29.2466667,21.1940299 28.9494444,21.4328358 28.6522222,21.8507463 C28.355,22.2089552 28.1766667,22.6865672 27.9983333,23.1641791 C27.82,23.7014925 27.7605556,24.238806 27.7605556,24.8358209 C27.7605556,25.4925373 27.82,26.0895522 27.9983333,26.6268657 C28.1766667,27.1641791 28.4144444,27.5820896 28.7116667,27.9402985 C29.0088889,28.2985075 29.3655556,28.5373134 29.7222222,28.7164179 C30.1383333,28.8955224 30.5544444,29.0149254 30.9705556,29.0149254 C31.5055556,29.0149254 31.9216667,28.8955224 32.3377778,28.7164179 C32.7538889,28.4776119 33.0511111,28.1791045 33.3483333,27.8208955 C33.6455556,27.4626866 33.8238889,26.9850746 33.9427778,26.5074627 C34.1805556,25.9701493 34.24,25.3731343 34.24,24.7761194 L34.24,24.7761194 Z M35.6072222,24.7761194 C35.6072222,25.4925373 35.4883333,26.1492537 35.31,26.8059701 C35.0722222,27.4029851 34.775,27.9402985 34.4183333,28.4179104 C34.0022222,28.8955224 33.5266667,29.1940299 32.9916667,29.4925373 C32.4566667,29.7313433 31.8027778,29.8507463 31.0894444,29.8507463 C30.4355556,29.8507463 29.7816667,29.7313433 29.2466667,29.4925373 C28.7116667,29.2537313 28.1766667,28.8955224 27.82,28.4776119 C27.4038889,28.0597015 27.1066667,27.5223881 26.8688889,26.9253731 C26.6311111,26.3283582 26.5122222,25.6119403 26.5122222,24.8955224 C26.5122222,24.238806 26.6311111,23.5820896 26.8094444,22.9850746 C26.9877778,22.3880597 27.285,21.8507463 27.7011111,21.3731343 C28.0577778,20.8955224 28.5927778,20.5373134 29.1277778,20.2985075 C29.7222222,20 30.3761111,19.880597 31.1488889,19.880597 C31.9216667,19.880597 32.5755556,20 33.17,20.2985075 C33.7644444,20.5970149 34.24,20.9552239 34.5966667,21.4328358 C34.9533333,21.9104478 35.2505556,22.4477612 35.4288889,23.0447761 C35.4883333,23.5820896 35.6072222,24.1791045 35.6072222,24.7761194 L35.6072222,24.7761194 Z M26.4527778,28.7164179 L26.4527778,29.5522388 L20.5677778,29.5522388 L20.5677778,20.119403 L21.8755556,20.119403 L21.8755556,28.7164179 L26.4527778,28.7164179 Z M17.2983333,24.7761194 C17.2983333,24.238806 17.2388889,23.761194 17.12,23.2835821 C17.0011111,22.8059701 16.8227778,22.3283582 16.5255556,21.9701493 C16.2877778,21.6119403 15.9311111,21.2537313 15.515,21.0149254 C15.0988889,20.7761194 14.6233333,20.6567164 14.0883333,20.6567164 C13.6127778,20.6567164 13.1372222,20.7761194 12.7211111,20.9552239 C12.305,21.1343284 12.0077778,21.4328358 11.7105556,21.8507463 C11.4133333,22.2089552 11.235,22.6865672 11.0566667,23.1641791 C10.8783333,23.7014925 10.8188889,24.238806 10.8188889,24.8358209 C10.8188889,25.4925373 10.8783333,26.0895522 11.0566667,26.6268657 C11.235,27.1641791 11.4727778,27.5820896 11.77,27.9402985 C12.0672222,28.2985075 12.4238889,28.5373134 12.7805556,28.7164179 C13.1966667,28.8955224 13.6127778,29.0149254 14.0288889,29.0149254 C14.5638889,29.0149254 14.98,28.8955224 15.3961111,28.7164179 C15.8122222,28.4776119 16.1094444,28.1791045 16.4066667,27.8208955 C16.7038889,27.4626866 16.8822222,26.9850746 17.0011111,26.5074627 C17.2388889,25.9701493 17.2983333,25.3731343 17.2983333,24.7761194 L17.2983333,24.7761194 Z M18.6655556,24.7761194 C18.6655556,25.4925373 18.5466667,26.1492537 18.3683333,26.8059701 C18.1305556,27.4029851 17.8333333,27.9402985 17.4766667,28.4179104 C17.0605556,28.8955224 16.585,29.1940299 16.05,29.4925373 C15.515,29.7313433 14.8611111,29.8507463 14.1477778,29.8507463 C13.4938889,29.8507463 12.84,29.7313433 12.305,29.4925373 C11.77,29.2537313 11.235,28.8955224 10.8783333,28.4776119 C10.4622222,28.0597015 10.165,27.5223881 9.92722222,26.9253731 C9.68944444,26.3283582 9.57055556,25.6119403 9.57055556,24.8955224 C9.57055556,24.238806 9.68944444,23.5820896 9.86777778,22.9850746 C10.0461111,22.3880597 10.3433333,21.8507463 10.7594444,21.3731343 C11.1161111,20.8955224 11.6511111,20.5373134 12.1861111,20.2985075 C12.7805556,20 13.4344444,19.880597 14.2072222,19.880597 C14.98,19.880597 15.6338889,20 16.2283333,20.2985075 C16.8227778,20.5970149 17.2983333,20.9552239 17.655,21.4328358 C18.0116667,21.9104478 18.3088889,22.4477612 18.4872222,23.0447761 C18.5466667,23.5820896 18.6655556,24.1791045 18.6655556,24.7761194 L18.6655556,24.7761194 Z M8.56,27.3432836 C8.56,27.4626866 8.50055556,27.5820896 8.44111111,27.7014925 C8.38166667,27.8208955 8.32222222,28 8.26277778,28.119403 C8.20333333,28.2985075 8.08444444,28.4179104 7.96555556,28.5970149 C7.84666667,28.7761194 7.66833333,28.8955224 7.49,29.0746269 C7.25222222,29.2537313 7.01444444,29.4328358 6.77666667,29.4925373 C6.53888889,29.6119403 6.30111111,29.6716418 6.06333333,29.7313433 C5.82555556,29.7910448 5.64722222,29.7910448 5.40944444,29.8507463 C5.23111111,29.8507463 5.05277778,29.8507463 4.87444444,29.8507463 C4.10166667,29.8507463 3.44777778,29.7313433 2.85333333,29.4328358 C2.25888889,29.1343284 1.78333333,28.7761194 1.42666667,28.2985075 C1.07,27.8208955 0.772777778,27.2835821 0.594444444,26.6865672 C0.416111111,26.0895522 0.297222222,25.4925373 0.297222222,24.8358209 C0.297222222,24.1791045 0.416111111,23.5223881 0.594444444,22.9253731 C0.772777778,22.3283582 1.07,21.7910448 1.48611111,21.3134328 C1.90222222,20.8358209 2.37777778,20.4776119 2.97222222,20.1791045 C3.56666667,19.880597 4.22055556,19.761194 4.99333333,19.761194 C5.52833333,19.761194 6.06333333,19.8208955 6.42,20 C6.83611111,20.1791045 7.19277778,20.358209 7.43055556,20.5970149 C7.60888889,20.7761194 7.78722222,20.8955224 7.90611111,21.0746269 C8.025,21.2537313 8.14388889,21.3731343 8.20333333,21.5522388 C8.26277778,21.7313433 8.32222222,21.8507463 8.38166667,21.9701493 C8.44111111,22.0895522 8.44111111,22.2089552 8.44111111,22.2686567 C8.38166667,22.2686567 8.32222222,22.3283582 8.26277778,22.3283582 C8.20333333,22.3880597 8.14388889,22.3880597 8.08444444,22.3880597 C8.025,22.2686567 7.90611111,22.0895522 7.78722222,21.9104478 C7.66833333,21.7313433 7.43055556,21.5522388 7.19277778,21.3134328 C6.955,21.1343284 6.65777778,20.9552239 6.30111111,20.8358209 C5.94444444,20.7164179 5.52833333,20.6567164 5.11222222,20.6567164 C4.51777778,20.6567164 4.04222222,20.7761194 3.62611111,20.9552239 C3.21,21.1940299 2.85333333,21.4328358 2.55611111,21.7910448 C2.25888889,22.1492537 2.08055556,22.5671642 1.90222222,23.1044776 C1.78333333,23.5820896 1.66444444,24.119403 1.66444444,24.7164179 C1.66444444,25.3731343 1.78333333,25.9701493 1.96166667,26.4477612 C2.14,26.9253731 2.37777778,27.4029851 2.675,27.7014925 C2.97222222,28.0597015 3.32888889,28.2985075 3.745,28.4776119 C4.16111111,28.6567164 4.57722222,28.7761194 5.05277778,28.7761194 C5.52833333,28.7761194 5.94444444,28.7164179 6.30111111,28.5373134 C6.65777778,28.4179104 6.955,28.238806 7.19277778,28.0597015 C7.43055556,27.880597 7.60888889,27.7014925 7.78722222,27.4626866 C7.90611111,27.2835821 8.025,27.1044776 8.08444444,27.0447761 C8.14388889,27.0447761 8.20333333,27.1044776 8.26277778,27.1044776 C8.32222222,27.1044776 8.50055556,27.2835821 8.56,27.3432836 L8.56,27.3432836 Z M72.4627778,16.9552239 C69.55,16.9552239 67.5883333,15.5223881 66.7561111,12.7761194 L67.41,12.5373134 C68.5988889,14.5074627 70.2633333,15.2238806 72.1655556,15.2238806 C74.2461111,15.2238806 75.435,13.9104478 75.435,12.358209 C75.435,10.8059701 74.5433333,10.1492537 72.4627778,9.67164179 C71.9277778,9.55223881 71.0361111,9.31343284 70.6794444,9.25373134 C68.48,8.65671642 66.9938889,7.34328358 66.9938889,5.01492537 C66.9938889,2.3880597 69.2527778,0.358208955 72.3438889,0.358208955 C75.3161111,0.358208955 76.9805556,1.97014925 77.3372222,4.29850746 L76.6833333,4.53731343 C75.97,3.04477612 74.7811111,1.91044776 72.76,2.02985075 C70.9172222,2.14925373 69.6688889,3.04477612 69.6094444,4.29850746 C69.4905556,5.49253731 69.7283333,6.3880597 71.69,6.98507463 C72.1061111,7.10447761 73.4138889,7.40298507 74.0083333,7.52238806 C77.0994444,8.23880597 77.9911111,9.91044776 78.0505556,12 C78.1694444,14.9253731 75.8511111,16.9552239 72.4627778,16.9552239 L72.4627778,16.9552239 Z M55.2238889,16.5373134 L55.2238889,0.835820896 L65.2105556,0.835820896 L65.2105556,2.50746269 L57.78,2.50746269 L57.78,7.52238806 L64.0811111,7.52238806 L64.0811111,9.19402985 L57.78,9.19402985 L57.78,14.8059701 L65.6266667,14.8059701 L65.6266667,16.5373134 L55.2238889,16.5373134 L55.2238889,16.5373134 Z M48.8633333,0.835820896 L51.4194444,0.835820896 L51.4194444,16.5373134 L48.8633333,16.5373134 L48.8633333,0.835820896 Z M37.45,16.5373134 L37.45,0.835820896 L40.0061111,0.835820896 L40.0061111,14.8059701 L47.4366667,14.8059701 L47.4366667,16.5373134 L37.45,16.5373134 Z M31.0894444,0.835820896 L33.6455556,0.835820896 L33.6455556,16.5373134 L31.0894444,16.5373134 L31.0894444,0.835820896 Z M21.4,4.95522388 L18.9627778,10.8059701 L23.8372222,10.8059701 L21.4,4.95522388 Z M26.215,16.5373134 L24.4911111,12.4776119 L18.2494444,12.4776119 L16.585,16.5373134 L14.3261111,16.5373134 L21.2216667,0.835820896 L22.2916667,0.835820896 L29.0683333,16.5373134 L26.215,16.5373134 Z M10.3433333,4 C8.97611111,2.62686567 7.19277778,2.44776119 5.58777778,2.44776119 L3.68555556,2.44776119 L3.68555556,14.8059701 L5.82555556,14.8059701 C7.54944444,14.8059701 8.85722222,14.5671642 9.92722222,13.6716418 C10.9972222,12.8358209 12.0672222,11.2238806 12.0672222,8.71641791 C12.0672222,6.50746269 11.235,4.95522388 10.3433333,4 L10.3433333,4 Z M12.4833333,14.4477612 C10.7594444,16.119403 8.79777778,16.5373134 6.00388889,16.5373134 L1.12944444,16.5373134 L1.12944444,0.835820896 L6.47944444,0.835820896 C9.095,0.835820896 10.8783333,1.37313433 12.305,2.68656716 C13.7316667,4 14.6827778,6.14925373 14.6827778,8.65671642 C14.7422222,11.0447761 13.8505556,13.0746269 12.4833333,14.4477612 L12.4833333,14.4477612 Z" id="Shape" fill="#E5A812"></path>
                <path d="M80.0716667,1.49253731 L79.8338889,1.49253731 L79.8338889,1.91044776 L80.0716667,1.91044776 C80.1905556,1.91044776 80.3688889,1.85074627 80.3688889,1.67164179 C80.3688889,1.49253731 80.1905556,1.49253731 80.0716667,1.49253731 L80.0716667,1.49253731 Z M80.3688889,2.86567164 C80.3094444,2.74626866 80.1905556,2.32835821 80.1311111,2.20895522 L79.8338889,2.20895522 L79.8338889,2.86567164 L79.4772222,2.86567164 L79.4772222,1.19402985 L80.0716667,1.19402985 C80.5472222,1.19402985 80.7255556,1.37313433 80.7255556,1.67164179 C80.7255556,1.97014925 80.6066667,2.08955224 80.4877778,2.14925373 C80.4877778,2.20895522 80.7255556,2.80597015 80.785,2.86567164 L80.3688889,2.86567164 Z M80.0716667,0.71641791 C79.3583333,0.71641791 78.7044444,1.31343284 78.7044444,2.02985075 C78.7044444,2.74626866 79.2988889,3.40298507 80.0716667,3.40298507 C80.785,3.40298507 81.4388889,2.80597015 81.4388889,2.02985075 C81.4388889,1.31343284 80.785,0.71641791 80.0716667,0.71641791 L80.0716667,0.71641791 Z M80.0716667,3.82089552 C79.1205556,3.82089552 78.3477778,3.04477612 78.3477778,2.08955224 C78.3477778,1.13432836 79.1205556,0.358208955 80.0716667,0.358208955 C81.0227778,0.358208955 81.7955556,1.13432836 81.7955556,2.08955224 C81.7955556,2.98507463 81.0227778,3.82089552 80.0716667,3.82089552 L80.0716667,3.82089552 Z M51.1222222,22.4477612 C51.0627778,22.3283582 50.9438889,22.1492537 50.825,21.9701493 C50.7061111,21.7910448 50.5277778,21.6119403 50.3494444,21.3731343 C50.1711111,21.1940299 49.9333333,21.0149254 49.6361111,20.8955224 C49.3388889,20.7761194 49.0416667,20.7164179 48.6255556,20.7164179 C48.3283333,20.7164179 48.0905556,20.7761194 47.8527778,20.8358209 C47.615,20.8955224 47.4366667,21.0149254 47.2583333,21.1940299 C47.08,21.3731343 46.9611111,21.5522388 46.8422222,21.7313433 C46.7233333,21.9104478 46.7233333,22.1492537 46.7233333,22.3880597 C46.7233333,22.6268657 46.7827778,22.8059701 46.8422222,22.9850746 C46.9016667,23.1641791 47.0205556,23.2835821 47.1394444,23.4029851 C47.2583333,23.5223881 47.3772222,23.641791 47.5555556,23.7014925 C47.7338889,23.761194 47.8527778,23.8208955 48.0311111,23.880597 C48.0905556,23.880597 48.2094444,23.9402985 48.3283333,23.9402985 C48.4472222,24 48.6255556,24 48.8038889,24.0597015 C48.9822222,24.119403 49.1011111,24.119403 49.2794444,24.1791045 C49.4577778,24.238806 49.5172222,24.238806 49.5766667,24.238806 C49.6955556,24.2985075 49.8738889,24.358209 50.1116667,24.4179104 C50.3494444,24.5373134 50.5872222,24.6567164 50.825,24.8358209 C51.0627778,25.0149254 51.2411111,25.2537313 51.4194444,25.5522388 C51.5977778,25.8507463 51.6572222,26.2686567 51.6572222,26.7462687 C51.6572222,27.1044776 51.5977778,27.4626866 51.4788889,27.8208955 C51.36,28.1791045 51.1222222,28.4776119 50.8844444,28.7761194 C50.5872222,29.0746269 50.2305556,29.3134328 49.8144444,29.4925373 C49.3983333,29.6716418 48.8633333,29.7313433 48.2688889,29.7313433 C47.6744444,29.7313433 47.1988889,29.6716418 46.7827778,29.4925373 C46.3666667,29.3134328 46.0694444,29.1343284 45.7722222,28.8358209 C45.5344444,28.5970149 45.3561111,28.2985075 45.2372222,27.9402985 C45.1183333,27.641791 45.0588889,27.2835821 45.0588889,26.9850746 C45.1183333,26.9850746 45.1777778,26.9253731 45.2372222,26.9253731 C45.2966667,26.9253731 45.3561111,26.8656716 45.4155556,26.8656716 C45.475,27.0447761 45.5938889,27.2238806 45.7127778,27.4626866 C45.8316667,27.7014925 46.0694444,27.9402985 46.3666667,28.1791045 C46.6638889,28.4179104 47.0205556,28.5970149 47.3177778,28.6567164 C47.6744444,28.7164179 47.9122222,28.7761194 48.2094444,28.7761194 C48.5066667,28.7761194 48.8038889,28.7164179 49.0416667,28.6567164 C49.2794444,28.5970149 49.5172222,28.4179104 49.755,28.2985075 C49.9333333,28.119403 50.1116667,27.9402985 50.2305556,27.7014925 C50.3494444,27.4626866 50.4088889,27.2238806 50.4088889,26.9253731 C50.4088889,26.7462687 50.4088889,26.6268657 50.3494444,26.4477612 C50.29,26.2686567 50.2305556,26.0895522 50.1116667,25.9701493 C50.0522222,25.9104478 49.9927778,25.7910448 49.9333333,25.7313433 C49.8738889,25.6716418 49.755,25.6119403 49.6361111,25.5522388 C49.5172222,25.4925373 49.3983333,25.4328358 49.22,25.3731343 C49.0416667,25.3134328 48.8633333,25.2537313 48.6255556,25.1940299 C48.5661111,25.1940299 48.5066667,25.1940299 48.4472222,25.1343284 C48.3283333,25.1343284 48.2688889,25.0746269 48.15,25.0746269 C48.0311111,25.0746269 47.9716667,25.0149254 47.8527778,25.0149254 C47.7338889,25.0149254 47.6744444,24.9552239 47.6744444,24.9552239 C47.5555556,24.8955224 47.3772222,24.8358209 47.08,24.7761194 C46.8422222,24.7164179 46.6044444,24.5373134 46.3666667,24.358209 C46.1288889,24.1791045 45.8911111,23.9402985 45.7127778,23.641791 C45.5344444,23.3432836 45.475,22.9253731 45.475,22.5074627 C45.475,22.1492537 45.5344444,21.7910448 45.7127778,21.4925373 C45.8316667,21.1940299 46.0694444,20.8955224 46.3072222,20.6567164 C46.6044444,20.4179104 46.9016667,20.238806 47.2583333,20.0597015 C47.615,19.9402985 48.0311111,19.8208955 48.5066667,19.8208955 C49.2794444,19.8208955 49.9333333,20 50.4683333,20.4179104 C51.0033333,20.8358209 51.3005556,21.4328358 51.4194444,22.2686567 C51.36,22.2686567 51.3005556,22.3283582 51.2411111,22.3283582 C51.2411111,22.4477612 51.1816667,22.4477612 51.1222222,22.4477612 L51.1222222,22.4477612 Z M38.7577778,24.7761194 C39.2927778,24.7761194 39.7683333,24.7164179 40.2438889,24.6567164 C40.66,24.5373134 41.0166667,24.4179104 41.3138889,24.238806 C41.6111111,24.0597015 41.8488889,23.8208955 42.0272222,23.5223881 C42.2055556,23.2238806 42.265,22.9253731 42.265,22.6268657 C42.265,22.4477612 42.265,22.2686567 42.2055556,22.0895522 C42.1461111,21.9104478 42.0272222,21.7313433 41.9083333,21.5522388 C41.6705556,21.3134328 41.4327778,21.1343284 41.1355556,21.0746269 C40.8383333,21.0149254 40.4816667,20.9552239 40.125,20.9552239 L38.8172222,20.9552239 L38.8172222,24.7761194 L38.7577778,24.7761194 Z M44.5238889,29.5522388 L43.0972222,29.5522388 L40.6005556,25.1940299 C40.4816667,25.1940299 40.3033333,25.2537313 40.1844444,25.2537313 C40.0061111,25.2537313 39.7683333,25.2537313 39.4116667,25.2537313 C39.2927778,25.2537313 39.1738889,25.2537313 39.055,25.2537313 C38.9361111,25.2537313 38.8766667,25.2537313 38.7577778,25.2537313 L38.7577778,29.5522388 L37.45,29.5522388 L37.45,20.119403 L40.0061111,20.119403 C40.3627778,20.119403 40.66,20.119403 40.8977778,20.119403 C41.1355556,20.119403 41.3733333,20.1791045 41.6111111,20.1791045 C41.8488889,20.1791045 42.0272222,20.2985075 42.1461111,20.358209 C42.3244444,20.4179104 42.4433333,20.5373134 42.6216667,20.5970149 C42.9188889,20.7761194 43.1566667,21.0746269 43.335,21.4328358 C43.5133333,21.7910448 43.5727778,22.1492537 43.5727778,22.5074627 C43.5727778,23.0447761 43.3944444,23.5820896 43.0972222,24 C42.8594444,24.2985075 42.6216667,24.4776119 42.3838889,24.5970149 C42.1461111,24.7164179 41.9677778,24.8358209 41.7894444,24.8955224 L44.5238889,29.5522388 Z M34.24,24.7761194 C34.24,24.238806 34.1805556,23.761194 34.0616667,23.2835821 C33.9427778,22.8059701 33.7644444,22.3283582 33.4672222,21.9701493 C33.2294444,21.6119403 32.8727778,21.2537313 32.4566667,21.0149254 C32.0405556,20.7761194 31.565,20.6567164 31.03,20.6567164 C30.5544444,20.6567164 30.0788889,20.7761194 29.6627778,20.9552239 C29.2466667,21.1940299 28.9494444,21.4328358 28.6522222,21.8507463 C28.355,22.2089552 28.1766667,22.6865672 27.9983333,23.1641791 C27.82,23.7014925 27.7605556,24.238806 27.7605556,24.8358209 C27.7605556,25.4925373 27.82,26.0895522 27.9983333,26.6268657 C28.1766667,27.1641791 28.4144444,27.5820896 28.7116667,27.9402985 C29.0088889,28.2985075 29.3655556,28.5373134 29.7222222,28.7164179 C30.1383333,28.8955224 30.5544444,29.0149254 30.9705556,29.0149254 C31.5055556,29.0149254 31.9216667,28.8955224 32.3377778,28.7164179 C32.7538889,28.4776119 33.0511111,28.1791045 33.3483333,27.8208955 C33.6455556,27.4626866 33.8238889,26.9850746 33.9427778,26.5074627 C34.1805556,25.9701493 34.24,25.3731343 34.24,24.7761194 L34.24,24.7761194 Z M35.6072222,24.7761194 C35.6072222,25.4925373 35.4883333,26.1492537 35.31,26.8059701 C35.0722222,27.4029851 34.775,27.9402985 34.4183333,28.4179104 C34.0022222,28.8955224 33.5266667,29.1940299 32.9916667,29.4925373 C32.4566667,29.7313433 31.8027778,29.8507463 31.0894444,29.8507463 C30.4355556,29.8507463 29.7816667,29.7313433 29.2466667,29.4925373 C28.7116667,29.2537313 28.1766667,28.8955224 27.82,28.4776119 C27.4038889,28.0597015 27.1066667,27.5223881 26.8688889,26.9253731 C26.6311111,26.3283582 26.5122222,25.6119403 26.5122222,24.8955224 C26.5122222,24.238806 26.6311111,23.5820896 26.8094444,22.9850746 C26.9877778,22.3880597 27.285,21.8507463 27.7011111,21.3731343 C28.0577778,20.8955224 28.5927778,20.5373134 29.1277778,20.2985075 C29.7222222,20 30.3761111,19.880597 31.1488889,19.880597 C31.9216667,19.880597 32.5755556,20 33.17,20.2985075 C33.7644444,20.5970149 34.24,20.9552239 34.5966667,21.4328358 C34.9533333,21.9104478 35.2505556,22.4477612 35.4288889,23.0447761 C35.4883333,23.5820896 35.6072222,24.1791045 35.6072222,24.7761194 L35.6072222,24.7761194 Z M26.4527778,28.7164179 L26.4527778,29.5522388 L20.5677778,29.5522388 L20.5677778,20.119403 L21.8755556,20.119403 L21.8755556,28.7164179 L26.4527778,28.7164179 Z M17.2983333,24.7761194 C17.2983333,24.238806 17.2388889,23.761194 17.12,23.2835821 C17.0011111,22.8059701 16.8227778,22.3283582 16.5255556,21.9701493 C16.2877778,21.6119403 15.9311111,21.2537313 15.515,21.0149254 C15.0988889,20.7761194 14.6233333,20.6567164 14.0883333,20.6567164 C13.6127778,20.6567164 13.1372222,20.7761194 12.7211111,20.9552239 C12.305,21.1343284 12.0077778,21.4328358 11.7105556,21.8507463 C11.4133333,22.2089552 11.235,22.6865672 11.0566667,23.1641791 C10.8783333,23.7014925 10.8188889,24.238806 10.8188889,24.8358209 C10.8188889,25.4925373 10.8783333,26.0895522 11.0566667,26.6268657 C11.235,27.1641791 11.4727778,27.5820896 11.77,27.9402985 C12.0672222,28.2985075 12.4238889,28.5373134 12.7805556,28.7164179 C13.1966667,28.8955224 13.6127778,29.0149254 14.0288889,29.0149254 C14.5638889,29.0149254 14.98,28.8955224 15.3961111,28.7164179 C15.8122222,28.4776119 16.1094444,28.1791045 16.4066667,27.8208955 C16.7038889,27.4626866 16.8822222,26.9850746 17.0011111,26.5074627 C17.2388889,25.9701493 17.2983333,25.3731343 17.2983333,24.7761194 L17.2983333,24.7761194 Z M18.6655556,24.7761194 C18.6655556,25.4925373 18.5466667,26.1492537 18.3683333,26.8059701 C18.1305556,27.4029851 17.8333333,27.9402985 17.4766667,28.4179104 C17.0605556,28.8955224 16.585,29.1940299 16.05,29.4925373 C15.515,29.7313433 14.8611111,29.8507463 14.1477778,29.8507463 C13.4938889,29.8507463 12.84,29.7313433 12.305,29.4925373 C11.77,29.2537313 11.235,28.8955224 10.8783333,28.4776119 C10.4622222,28.0597015 10.165,27.5223881 9.92722222,26.9253731 C9.68944444,26.3283582 9.57055556,25.6119403 9.57055556,24.8955224 C9.57055556,24.238806 9.68944444,23.5820896 9.86777778,22.9850746 C10.0461111,22.3880597 10.3433333,21.8507463 10.7594444,21.3731343 C11.1161111,20.8955224 11.6511111,20.5373134 12.1861111,20.2985075 C12.7805556,20 13.4344444,19.880597 14.2072222,19.880597 C14.98,19.880597 15.6338889,20 16.2283333,20.2985075 C16.8227778,20.5970149 17.2983333,20.9552239 17.655,21.4328358 C18.0116667,21.9104478 18.3088889,22.4477612 18.4872222,23.0447761 C18.5466667,23.5820896 18.6655556,24.1791045 18.6655556,24.7761194 L18.6655556,24.7761194 Z M8.56,27.3432836 C8.56,27.4626866 8.50055556,27.5820896 8.44111111,27.7014925 C8.38166667,27.8208955 8.32222222,28 8.26277778,28.119403 C8.20333333,28.2985075 8.08444444,28.4179104 7.96555556,28.5970149 C7.84666667,28.7761194 7.66833333,28.8955224 7.49,29.0746269 C7.25222222,29.2537313 7.01444444,29.4328358 6.77666667,29.4925373 C6.53888889,29.6119403 6.30111111,29.6716418 6.06333333,29.7313433 C5.82555556,29.7910448 5.64722222,29.7910448 5.40944444,29.8507463 C5.23111111,29.8507463 5.05277778,29.8507463 4.87444444,29.8507463 C4.10166667,29.8507463 3.44777778,29.7313433 2.85333333,29.4328358 C2.25888889,29.1343284 1.78333333,28.7761194 1.42666667,28.2985075 C1.07,27.8208955 0.772777778,27.2835821 0.594444444,26.6865672 C0.416111111,26.0895522 0.297222222,25.4925373 0.297222222,24.8358209 C0.297222222,24.1791045 0.416111111,23.5223881 0.594444444,22.9253731 C0.772777778,22.3283582 1.07,21.7910448 1.48611111,21.3134328 C1.90222222,20.8358209 2.37777778,20.4776119 2.97222222,20.1791045 C3.56666667,19.880597 4.22055556,19.761194 4.99333333,19.761194 C5.52833333,19.761194 6.06333333,19.8208955 6.42,20 C6.83611111,20.1791045 7.19277778,20.358209 7.43055556,20.5970149 C7.60888889,20.7761194 7.78722222,20.8955224 7.90611111,21.0746269 C8.025,21.2537313 8.14388889,21.3731343 8.20333333,21.5522388 C8.26277778,21.7313433 8.32222222,21.8507463 8.38166667,21.9701493 C8.44111111,22.0895522 8.44111111,22.2089552 8.44111111,22.2686567 C8.38166667,22.2686567 8.32222222,22.3283582 8.26277778,22.3283582 C8.20333333,22.3880597 8.14388889,22.3880597 8.08444444,22.3880597 C8.025,22.2686567 7.90611111,22.0895522 7.78722222,21.9104478 C7.66833333,21.7313433 7.43055556,21.5522388 7.19277778,21.3134328 C6.955,21.1343284 6.65777778,20.9552239 6.30111111,20.8358209 C5.94444444,20.7164179 5.52833333,20.6567164 5.11222222,20.6567164 C4.51777778,20.6567164 4.04222222,20.7761194 3.62611111,20.9552239 C3.21,21.1940299 2.85333333,21.4328358 2.55611111,21.7910448 C2.25888889,22.1492537 2.08055556,22.5671642 1.90222222,23.1044776 C1.78333333,23.5820896 1.66444444,24.119403 1.66444444,24.7164179 C1.66444444,25.3731343 1.78333333,25.9701493 1.96166667,26.4477612 C2.14,26.9253731 2.37777778,27.4029851 2.675,27.7014925 C2.97222222,28.0597015 3.32888889,28.2985075 3.745,28.4776119 C4.16111111,28.6567164 4.57722222,28.7761194 5.05277778,28.7761194 C5.52833333,28.7761194 5.94444444,28.7164179 6.30111111,28.5373134 C6.65777778,28.4179104 6.955,28.238806 7.19277778,28.0597015 C7.43055556,27.880597 7.60888889,27.7014925 7.78722222,27.4626866 C7.90611111,27.2835821 8.025,27.1044776 8.08444444,27.0447761 C8.14388889,27.0447761 8.20333333,27.1044776 8.26277778,27.1044776 C8.32222222,27.1044776 8.50055556,27.2835821 8.56,27.3432836 L8.56,27.3432836 Z M72.4627778,16.9552239 C69.55,16.9552239 67.5883333,15.5223881 66.7561111,12.7761194 L67.41,12.5373134 C68.5988889,14.5074627 70.2633333,15.2238806 72.1655556,15.2238806 C74.2461111,15.2238806 75.435,13.9104478 75.435,12.358209 C75.435,10.8059701 74.5433333,10.1492537 72.4627778,9.67164179 C71.9277778,9.55223881 71.0361111,9.31343284 70.6794444,9.25373134 C68.48,8.65671642 66.9938889,7.34328358 66.9938889,5.01492537 C66.9938889,2.3880597 69.2527778,0.358208955 72.3438889,0.358208955 C75.3161111,0.358208955 76.9805556,1.97014925 77.3372222,4.29850746 L76.6833333,4.53731343 C75.97,3.04477612 74.7811111,1.91044776 72.76,2.02985075 C70.9172222,2.14925373 69.6688889,3.04477612 69.6094444,4.29850746 C69.4905556,5.49253731 69.7283333,6.3880597 71.69,6.98507463 C72.1061111,7.10447761 73.4138889,7.40298507 74.0083333,7.52238806 C77.0994444,8.23880597 77.9911111,9.91044776 78.0505556,12 C78.1694444,14.9253731 75.8511111,16.9552239 72.4627778,16.9552239 L72.4627778,16.9552239 Z M55.2238889,16.5373134 L55.2238889,0.835820896 L65.2105556,0.835820896 L65.2105556,2.50746269 L57.78,2.50746269 L57.78,7.52238806 L64.0811111,7.52238806 L64.0811111,9.19402985 L57.78,9.19402985 L57.78,14.8059701 L65.6266667,14.8059701 L65.6266667,16.5373134 L55.2238889,16.5373134 L55.2238889,16.5373134 Z M48.8633333,0.835820896 L51.4194444,0.835820896 L51.4194444,16.5373134 L48.8633333,16.5373134 L48.8633333,0.835820896 Z M37.45,16.5373134 L37.45,0.835820896 L40.0061111,0.835820896 L40.0061111,14.8059701 L47.4366667,14.8059701 L47.4366667,16.5373134 L37.45,16.5373134 Z M31.0894444,0.835820896 L33.6455556,0.835820896 L33.6455556,16.5373134 L31.0894444,16.5373134 L31.0894444,0.835820896 Z M21.4,4.95522388 L18.9627778,10.8059701 L23.8372222,10.8059701 L21.4,4.95522388 Z M26.215,16.5373134 L24.4911111,12.4776119 L18.2494444,12.4776119 L16.585,16.5373134 L14.3261111,16.5373134 L21.2216667,0.835820896 L22.2916667,0.835820896 L29.0683333,16.5373134 L26.215,16.5373134 Z M10.3433333,4 C8.97611111,2.62686567 7.19277778,2.44776119 5.58777778,2.44776119 L3.68555556,2.44776119 L3.68555556,14.8059701 L5.82555556,14.8059701 C7.54944444,14.8059701 8.85722222,14.5671642 9.92722222,13.6716418 C10.9972222,12.8358209 12.0672222,11.2238806 12.0672222,8.71641791 C12.0672222,6.50746269 11.235,4.95522388 10.3433333,4 L10.3433333,4 Z M12.4833333,14.4477612 C10.7594444,16.119403 8.79777778,16.5373134 6.00388889,16.5373134 L1.12944444,16.5373134 L1.12944444,0.835820896 L6.47944444,0.835820896 C9.095,0.835820896 10.8783333,1.37313433 12.305,2.68656716 C13.7316667,4 14.6827778,6.14925373 14.6827778,8.65671642 C14.7422222,11.0447761 13.8505556,13.0746269 12.4833333,14.4477612 L12.4833333,14.4477612 Z" id="Shape" fill="#E5A812"></path>
                <path d="M3.09111111,35.761194 C2.31833333,35.761194 1.84277778,36.4776119 1.84277778,37.4328358 C1.84277778,38.2686567 2.19944444,39.1641791 3.09111111,39.1641791 C3.98277778,39.1641791 4.33944444,38.3283582 4.33944444,37.4328358 C4.33944444,36.9552239 4.22055556,36.4776119 3.98277778,36.1791045 C3.80444444,35.9402985 3.50722222,35.761194 3.09111111,35.761194 M3.09111111,39.5820896 C1.78333333,39.5820896 1.12944444,38.6268657 1.12944444,37.4925373 C1.12944444,36.4179104 1.72388889,35.3432836 3.09111111,35.3432836 C4.51777778,35.3432836 5.05277778,36.4776119 5.05277778,37.4925373 C5.05277778,38.5671642 4.45833333,39.5820896 3.09111111,39.5820896" id="Shape" fill="#8A6E4B"></path>
                <path d="M10.4027778,39.4626866 L8.08444444,36.7164179 C8.025,36.6567164 7.90611111,36.4776119 7.78722222,36.358209 L7.78722222,39.4626866 L7.25222222,39.4626866 L7.25222222,35.4029851 L7.84666667,35.4029851 L9.92722222,37.7910448 C10.1055556,37.9701493 10.1055556,38.0298507 10.2244444,38.1492537 L10.2244444,35.4029851 L10.7594444,35.4029851 L10.7594444,39.4626866 L10.4027778,39.4626866 Z" id="Path" fill="#8A6E4B"></path>
                <polygon id="Path" fill="#8A6E4B" points="12.84 39.4626866 12.84 35.4626866 15.3961111 35.4626866 15.3961111 35.880597 13.4938889 35.880597 13.4938889 37.1343284 15.0988889 37.1343284 15.0988889 37.6119403 13.4938889 37.6119403 13.4938889 39.0447761 15.515 39.0447761 15.515 39.4626866"></polygon>
                <rect id="Rectangle" fill="#8A6E4B" x="17.5361111" y="37.7910448" width="1.54555556" height="1"></rect>
                <path d="M23.4805556,36.238806 C23.1238889,35.880597 22.6483333,35.8208955 22.2322222,35.8208955 L21.7566667,35.8208955 L21.7566667,38.9850746 L22.2916667,38.9850746 C22.7672222,38.9850746 23.0644444,38.9253731 23.3616667,38.6865672 C23.5994444,38.4477612 23.8966667,38.0298507 23.8966667,37.4328358 C23.8966667,36.8955224 23.6588889,36.4776119 23.4805556,36.238806 M24.0155556,38.9253731 C23.5994444,39.3432836 23.0644444,39.4626866 22.3511111,39.4626866 L21.1027778,39.4626866 L21.1027778,35.4029851 L22.47,35.4029851 C23.1238889,35.4029851 23.5994444,35.5223881 23.9561111,35.880597 C24.3127778,36.238806 24.5505556,36.7761194 24.5505556,37.4328358 C24.61,38.0895522 24.3722222,38.5671642 24.0155556,38.9253731" id="Shape" fill="#8A6E4B"></path>
                <path d="M27.5822222,36.4776119 L26.9877778,37.9701493 L28.2361111,37.9701493 L27.5822222,36.4776119 Z M28.8305556,39.4626866 L28.4144444,38.4477612 L26.8094444,38.4477612 L26.3933333,39.4626866 L25.7988889,39.4626866 L27.5822222,35.4029851 L27.8794444,35.4029851 L29.6033333,39.4626866 L28.8305556,39.4626866 Z" id="Shape" fill="#8A6E4B"></path>
                <path d="M32.5755556,37.7910448 L32.5755556,39.5223881 L31.9216667,39.5223881 L31.9216667,37.7910448 L30.495,35.4626866 L31.2677778,35.4626866 L32.2188889,37.0746269 C32.2783333,37.1343284 32.2783333,37.2537313 32.3377778,37.3134328 C32.3972222,37.2537313 32.3972222,37.1940299 32.4566667,37.1343284 L33.4672222,35.5223881 L34.1211111,35.5223881 L32.5755556,37.7910448 Z" id="Path" fill="#8A6E4B"></path>
                <path d="M40.4816667,39.5820896 C39.2927778,39.5820896 38.4605556,38.7462687 38.4605556,37.4328358 C38.4605556,36.238806 39.2333333,35.2835821 40.4816667,35.2835821 C41.3138889,35.2835821 41.8488889,35.761194 42.0272222,36.358209 L41.8488889,36.4179104 C41.5516667,35.9402985 41.1355556,35.7014925 40.66,35.7014925 C39.8277778,35.7014925 39.2333333,36.358209 39.2333333,37.3731343 C39.2333333,38.3880597 39.8277778,39.0447761 40.66,39.0447761 C41.3138889,39.0447761 41.6705556,38.6865672 41.8488889,38.3283582 L42.0272222,38.3880597 C41.73,39.2238806 41.195,39.5820896 40.4816667,39.5820896" id="Path" fill="#8A6E4B"></path>
                <path d="M45.8316667,35.761194 C45.0588889,35.761194 44.5833333,36.4776119 44.5833333,37.4328358 C44.5833333,38.2686567 44.94,39.1641791 45.8316667,39.1641791 C46.7233333,39.1641791 47.08,38.3283582 47.08,37.4328358 C47.08,36.9552239 46.9611111,36.4776119 46.7233333,36.1791045 C46.545,35.9402985 46.2477778,35.761194 45.8316667,35.761194 M45.8316667,39.5820896 C44.5238889,39.5820896 43.87,38.6268657 43.87,37.4925373 C43.87,36.4179104 44.4644444,35.3432836 45.8316667,35.3432836 C47.2583333,35.3432836 47.7933333,36.4776119 47.7933333,37.4925373 C47.7933333,38.5671642 47.1988889,39.5820896 45.8316667,39.5820896" id="Shape" fill="#8A6E4B"></path>
                <path d="M53.1433333,39.4626866 L50.825,36.7164179 C50.7655556,36.6567164 50.6466667,36.4776119 50.5277778,36.358209 L50.5277778,39.4626866 L49.9927778,39.4626866 L49.9927778,35.4029851 L50.5872222,35.4029851 L52.6677778,37.7910448 C52.8461111,37.9701493 52.8461111,38.0298507 52.965,38.1492537 L52.965,35.4029851 L53.5,35.4029851 L53.5,39.4626866 L53.1433333,39.4626866 Z" id="Path" fill="#8A6E4B"></path>
                <polygon id="Path" fill="#8A6E4B" points="57.4827778 35.880597 57.4827778 39.4626866 56.8288889 39.4626866 56.8288889 35.880597 55.5805556 35.880597 55.5805556 35.4626866 58.7311111 35.4626866 58.7311111 35.880597"></polygon>
                <path d="M61.7627778,36.4776119 L61.1683333,37.9701493 L62.4166667,37.9701493 L61.7627778,36.4776119 Z M63.0111111,39.4626866 L62.595,38.4477612 L60.99,38.4477612 L60.5738889,39.4626866 L59.9794444,39.4626866 L61.7627778,35.4029851 L62.06,35.4029851 L63.7838889,39.4626866 L63.0111111,39.4626866 Z" id="Shape" fill="#8A6E4B"></path>
                <path d="M67.1127778,39.5820896 C65.9238889,39.5820896 65.0916667,38.7462687 65.0916667,37.4328358 C65.0916667,36.238806 65.8644444,35.2835821 67.1127778,35.2835821 C67.945,35.2835821 68.48,35.761194 68.6583333,36.358209 L68.48,36.4179104 C68.1827778,35.9402985 67.7666667,35.7014925 67.2911111,35.7014925 C66.4588889,35.7014925 65.8644444,36.358209 65.8644444,37.3731343 C65.8644444,38.3880597 66.4588889,39.0447761 67.2911111,39.0447761 C67.945,39.0447761 68.3016667,38.6865672 68.48,38.3283582 L68.6583333,38.3880597 C68.4205556,39.2238806 67.8261111,39.5820896 67.1127778,39.5820896" id="Path" fill="#8A6E4B"></path>
                <polygon id="Path" fill="#8A6E4B" points="72.4033333 35.880597 72.4033333 39.4626866 71.7494444 39.4626866 71.7494444 35.880597 70.5011111 35.880597 70.5011111 35.4626866 73.6516667 35.4626866 73.6516667 35.880597"></polygon>
                <polygon id="Path" fill="#8A6E4B" points="78.4666667 39.4626866 78.4666667 35.4626866 79.18 35.4626866 79.18 39.0447761 81.0822222 39.0447761 81.0822222 39.4626866"></polygon>
                <polygon id="Path" fill="#8A6E4B" points="83.2222222 39.4626866 83.2222222 35.4626866 85.7783333 35.4626866 85.7783333 35.880597 83.8761111 35.880597 83.8761111 37.1343284 85.4811111 37.1343284 85.4811111 37.6119403 83.8761111 37.6119403 83.8761111 39.0447761 85.8972222 39.0447761 85.8972222 39.4626866"></polygon>
                <path d="M91.2472222,39.4626866 L88.9288889,36.7164179 C88.8694444,36.6567164 88.7505556,36.4776119 88.6316667,36.358209 L88.6316667,39.4626866 L88.0966667,39.4626866 L88.0966667,35.4029851 L88.6911111,35.4029851 L90.7716667,37.7910448 C90.95,37.9701493 90.95,38.0298507 91.0688889,38.1492537 L91.0688889,35.4029851 L91.6038889,35.4029851 L91.6038889,39.4626866 L91.2472222,39.4626866 Z" id="Path" fill="#8A6E4B"></path>
                <path d="M95.1705556,39.5820896 C94.4572222,39.5820896 93.9222222,39.2238806 93.6844444,38.5074627 L93.8627778,38.4477612 C94.16,38.9850746 94.5761111,39.1641791 95.1111111,39.1641791 C95.6461111,39.1641791 95.9433333,38.8059701 95.9433333,38.4477612 C95.9433333,38.0298507 95.7055556,37.8507463 95.1705556,37.7313433 C95.0516667,37.7313433 94.8138889,37.6716418 94.695,37.6119403 C94.16,37.4328358 93.7438889,37.1343284 93.7438889,36.5373134 C93.7438889,35.880597 94.3383333,35.3432836 95.1111111,35.3432836 C95.8838889,35.3432836 96.3,35.761194 96.4188889,36.358209 L96.2405556,36.4179104 C96.0622222,36.0597015 95.765,35.761194 95.23,35.761194 C94.7544444,35.761194 94.4572222,36 94.3977778,36.358209 C94.3977778,36.6567164 94.4572222,36.8955224 94.9327778,37.0746269 C95.0516667,37.1343284 95.3488889,37.1940299 95.5272222,37.1940299 C96.3,37.3731343 96.5377778,37.7910448 96.5972222,38.3283582 C96.6566667,39.0447761 96.0622222,39.5820896 95.1705556,39.5820896" id="Path" fill="#8A6E4B"></path>
                <polygon id="Path" fill="#8A6E4B" points="98.7966667 39.4626866 98.7966667 35.4626866 101.352778 35.4626866 101.352778 35.880597 99.4505556 35.880597 99.4505556 37.1343284 101.055556 37.1343284 101.055556 37.6119403 99.4505556 37.6119403 99.4505556 39.0447761 101.471667 39.0447761 101.471667 39.4626866"></polygon>
                <path d="M105.097778,39.5820896 C104.384444,39.5820896 103.849444,39.2238806 103.611667,38.5074627 L103.79,38.4477612 C104.087222,38.9850746 104.503333,39.1641791 105.038333,39.1641791 C105.573333,39.1641791 105.870556,38.8059701 105.870556,38.4477612 C105.870556,38.0298507 105.632778,37.8507463 105.097778,37.7313433 C104.978889,37.7313433 104.741111,37.6716418 104.622222,37.6119403 C104.087222,37.4328358 103.671111,37.1343284 103.671111,36.5373134 C103.671111,35.880597 104.265556,35.3432836 105.038333,35.3432836 C105.811111,35.3432836 106.227222,35.761194 106.346111,36.358209 L106.167778,36.4179104 C105.989444,36.0597015 105.692222,35.761194 105.157222,35.761194 C104.681667,35.761194 104.384444,36 104.325,36.358209 C104.325,36.6567164 104.384444,36.8955224 104.86,37.0746269 C104.978889,37.1343284 105.276111,37.1940299 105.454444,37.1940299 C106.227222,37.3731343 106.465,37.7910448 106.524444,38.3283582 C106.524444,39.0447761 105.93,39.5820896 105.097778,39.5820896" id="Path" fill="#8A6E4B"></path>
            </g>
        </g>
    </g>
</svg>
